<svg width="104" height="108" viewBox="0 0 104 108" fill="none" xmlns="http://www.w3.org/2000/svg">
    <path d="M86.0605 72.8393C82.0017 83.0982 73.3539 82.3575 68.3791 79.2323C66.775 78.2251 65.5538 76.9684 64.9916 75.7542L67.2749 62.965L68.3048 57.1917L68.5436 55.8507C68.5436 55.8507 69.3103 58.892 70.8615 61.6682C72.5673 64.7108 75.2191 67.4345 78.8409 65.4639C78.843 65.4639 88.4207 66.873 86.0605 72.8393Z" fill="white"/>
    <g opacity="0.2">
        <path opacity="0.2" d="M86.0606 72.8393C80.6925 86.4061 67.2997 80.736 64.9937 75.7542L66.5573 64.3572C71.2499 69.9272 76.5134 88.5658 85.6483 68.7507C86.4311 69.7876 86.7381 71.1249 86.0606 72.8393Z" fill="#000072"/>
    </g>
    <path d="M75.3149 81.9919C73.0841 81.9919 70.7293 81.3635 68.6517 80.2076C66.6233 79.0794 65.0576 77.5637 64.3553 76.048C64.2843 75.8801 64.2813 75.6913 64.347 75.5213C64.4126 75.3513 64.5418 75.2134 64.7072 75.1369C64.8726 75.0604 65.0612 75.0511 65.2333 75.1111C65.4054 75.1711 65.5474 75.2957 65.6294 75.4585C66.7973 77.9834 71.1825 80.7104 75.6057 80.584C78.6665 80.4972 82.851 79.0385 85.4053 72.5819C85.8655 71.4194 85.8395 70.4222 85.326 69.5335C84.5588 68.2066 82.8303 67.3622 81.515 66.8896C80.6818 66.5912 79.8261 66.36 78.9561 66.198C77.4144 66.9718 75.9053 67.0449 74.4676 66.4149C70.0386 64.4733 67.9495 56.3692 67.8627 56.025C67.8402 55.9355 67.8355 55.8424 67.8489 55.7511C67.8623 55.6598 67.8936 55.572 67.941 55.4928C67.9883 55.4135 68.0508 55.3444 68.1249 55.2893C68.199 55.2342 68.2832 55.1943 68.3727 55.1717C68.4622 55.1492 68.5553 55.1445 68.6466 55.1579C68.7379 55.1714 68.8257 55.2026 68.905 55.25C68.9842 55.2974 69.0533 55.3599 69.1084 55.4339C69.1635 55.508 69.2034 55.5922 69.226 55.6817C69.2454 55.7594 71.2333 63.4661 75.0344 65.1297C76.137 65.6122 77.2731 65.5209 78.5071 64.85L78.7136 64.7381L78.9454 64.772C79.1796 64.8067 84.7059 65.6523 86.5443 68.8333C87.2759 70.0995 87.3329 71.5351 86.7136 73.1004C85.5296 76.0934 83.8858 78.3771 81.8281 79.8883C80.0182 81.2177 77.939 81.9246 75.6483 81.9894C75.5373 81.9911 75.4262 81.9919 75.3149 81.9919Z" fill="#000072"/>
    <path d="M63.028 77.7529C63.028 77.7529 69.3821 80.2696 70.0592 86.4912C71.0032 95.1621 63.7307 100.055 63.7307 100.055H49.1274V77.077" fill="white"/>
    <g opacity="0.2">
        <path opacity="0.2" d="M69.9791 90.1489C68.9756 96.5262 63.7303 100.055 63.7303 100.055H49.1266V97.5763H58.5262C63.3341 97.5763 67.785 94.8609 69.8196 90.5046C69.8741 90.3886 69.9273 90.2701 69.9791 90.1489Z" fill="#000072"/>
    </g>
    <path d="M63.9435 100.757H48.4252V77.077C48.4252 76.8908 48.4992 76.7122 48.6309 76.5804C48.7626 76.4487 48.9412 76.3747 49.1275 76.3747C49.3137 76.3747 49.4924 76.4487 49.6241 76.5804C49.7558 76.7122 49.8298 76.8908 49.8298 77.077V99.3531H63.5039C63.9786 98.9995 65.3931 97.8705 66.7126 96.0684C68.8402 93.163 69.7313 89.9663 69.3611 86.5668C69.1021 84.186 67.928 82.0956 65.8711 80.3543C64.3012 79.0257 62.7835 78.4127 62.7682 78.4048C62.5999 78.3328 62.4664 78.1979 62.3962 78.0289C62.3259 77.8599 62.3243 77.6702 62.3918 77.5001C62.4594 77.33 62.5906 77.1929 62.7577 77.1182C62.9247 77.0434 63.1144 77.0368 63.2862 77.0998C63.3552 77.1274 65.0007 77.788 66.7411 79.2513C67.7694 80.1159 68.6204 81.0843 69.2706 82.1299C70.0839 83.4274 70.5924 84.8924 70.7579 86.4147C70.9874 88.4602 70.7754 90.5311 70.1361 92.4875C69.6272 94.0433 68.846 95.5421 67.8144 96.9418C66.062 99.3197 64.2013 100.585 64.1228 100.638L63.9435 100.757Z" fill="#000072"/>
    <path d="M61.8974 99.4717C63.9824 98.2774 67.3856 99.0255 67.9181 100.409C68.3449 101.517 68.2003 103.521 66.7552 104.432C65.5985 105.162 63.9208 105.16 59.7677 105.148H39.1768V88.9178L61.8974 99.4717Z" fill="white"/>
    <g opacity="0.3">
        <path opacity="0.3" d="M66.7556 104.432C65.5989 105.162 63.9216 105.16 59.7677 105.148H39.1768V88.9174L39.4246 89.0314V102.654H60.0156C64.1695 102.666 65.8472 102.668 67.0035 101.94C67.4494 101.655 67.8045 101.249 68.0268 100.769C68.3036 101.91 68.0545 103.612 66.7556 104.432Z" fill="#000072"/>
    </g>
    <path d="M61.839 99.3701C62.1776 99.1099 62.5555 98.9055 62.9585 98.7644C63.3647 98.62 63.7863 98.5238 64.2148 98.4777C64.4293 98.455 64.6457 98.4418 64.863 98.4401C65.0803 98.4385 65.298 98.4492 65.5162 98.4707C65.7358 98.4931 65.9541 98.527 66.1701 98.5723C66.3907 98.6196 66.608 98.6809 66.8208 98.7558C67.0427 98.8333 67.2573 98.93 67.4623 99.0449C67.6864 99.1687 67.8931 99.3215 68.0771 99.4994C68.1788 99.5986 68.2708 99.7073 68.3518 99.8241C68.3729 99.8551 68.3931 99.8856 68.4133 99.9187C68.4336 99.9517 68.4547 99.9844 68.4704 100.019C68.4861 100.054 68.5059 100.089 68.522 100.125C68.5298 100.143 68.5398 100.164 68.5451 100.178L68.5629 100.223C68.65 100.453 68.7146 100.691 68.7558 100.933C68.8371 101.402 68.846 101.881 68.7823 102.353C68.7194 102.837 68.5733 103.306 68.3506 103.74C68.1145 104.195 67.7816 104.593 67.3752 104.906C67.2734 104.984 67.1672 105.055 67.0571 105.121C66.9501 105.186 66.8398 105.245 66.7266 105.299C66.5074 105.403 66.2803 105.489 66.0474 105.557C65.8269 105.62 65.6031 105.672 65.3769 105.711C65.1566 105.751 64.9396 105.781 64.7259 105.803C64.2975 105.847 63.879 105.872 63.4646 105.885C61.8097 105.936 60.2031 105.892 58.5841 105.881L56.1578 105.859C55.3489 105.852 54.5405 105.853 53.7316 105.85L51.3058 105.856L48.8795 105.871C45.6444 105.897 42.4097 105.942 39.175 105.913L38.4045 105.905L38.4107 105.148L38.4268 103.12L38.452 101.091C38.4706 99.7382 38.4934 98.3856 38.5347 97.0331C38.576 95.6805 38.6375 94.328 38.7202 92.9754C38.7606 92.299 38.808 91.6229 38.8623 90.947C38.9168 90.2708 38.9771 89.5945 39.056 88.9182C39.0594 88.8896 39.0732 88.8632 39.0948 88.8441C39.1163 88.825 39.1441 88.8144 39.1729 88.8144C39.2018 88.8144 39.2296 88.825 39.2511 88.8441C39.2727 88.8632 39.2864 88.8896 39.2898 88.9182C39.3683 89.5945 39.4287 90.2708 39.4836 90.947C39.5385 91.6233 39.5848 92.2992 39.6253 92.9754C39.7079 94.328 39.7698 95.6805 39.8108 97.0331C39.8521 98.3856 39.8773 99.7382 39.8959 101.091L39.9207 103.12L39.9372 105.148L39.1729 104.384C42.4081 104.353 45.6432 104.399 48.8783 104.425L51.3049 104.441L53.7312 104.446C54.5401 104.443 55.3485 104.444 56.1574 104.437L58.5841 104.415L59.7974 104.403L61.0095 104.396C61.815 104.393 62.6206 104.384 63.4055 104.358C63.7992 104.343 64.1905 104.323 64.5652 104.286C64.9242 104.256 65.2801 104.196 65.6289 104.106C65.7854 104.064 65.9385 104.01 66.0867 103.945C66.2251 103.882 66.357 103.806 66.4808 103.719C66.7226 103.542 66.9225 103.315 67.0662 103.052C67.222 102.769 67.3279 102.462 67.3793 102.143C67.436 101.814 67.4436 101.478 67.402 101.146C67.3822 100.988 67.3478 100.833 67.2992 100.682L67.2843 100.638C67.2816 100.627 67.278 100.616 67.2736 100.606C67.2696 100.595 67.2649 100.583 67.2595 100.573C67.2544 100.561 67.2486 100.549 67.2422 100.538C67.2132 100.485 67.1789 100.435 67.1397 100.389C67.0422 100.276 66.9312 100.175 66.8092 100.089C66.67 99.9912 66.5235 99.9043 66.3709 99.829C66.2099 99.7494 66.0444 99.6793 65.8752 99.6192C65.7014 99.5565 65.5245 99.5029 65.3451 99.4585C65.1646 99.4114 64.9803 99.3758 64.794 99.3445C64.6077 99.3131 64.4197 99.292 64.2301 99.2784C63.4721 99.2238 62.6933 99.2949 61.9514 99.5741H61.9493C61.9229 99.5841 61.8937 99.5843 61.8672 99.5746C61.8406 99.565 61.8184 99.5461 61.8046 99.5215C61.7907 99.4968 61.7862 99.4681 61.7917 99.4404C61.7973 99.4127 61.8126 99.3879 61.8349 99.3705L61.839 99.3701Z" fill="#000072"/>
    <path d="M83.1873 62.3412C83.1873 61.6232 83.8664 58.5632 85.8866 59.2461C88.5235 60.1376 85.661 64.933 85.5147 66.1794" fill="white"/>
    <path d="M85.516 66.8813C85.4168 66.8814 85.3186 66.8605 85.228 66.8199C85.1375 66.7793 85.0565 66.7199 84.9905 66.6458C84.9246 66.5716 84.8751 66.4843 84.8453 66.3896C84.8155 66.2949 84.8062 66.195 84.8179 66.0964C84.865 65.694 85.0819 65.1351 85.3549 64.4278C85.8486 63.1546 86.5943 61.2307 86.1766 60.338C86.0795 60.1314 85.9201 59.9984 85.6606 59.9108C85.3537 59.8071 85.1161 59.8327 84.8902 59.9934C84.2395 60.4602 83.8884 61.8669 83.8884 62.3391C83.8884 62.5254 83.8144 62.704 83.6827 62.8357C83.551 62.9674 83.3723 63.0414 83.1861 63.0414C82.9998 63.0414 82.8212 62.9674 82.6895 62.8357C82.5578 62.704 82.4838 62.5254 82.4838 62.3391C82.4838 61.7124 82.8601 59.7216 84.0714 58.8524C84.6679 58.4244 85.3727 58.3302 86.1097 58.5789C86.7269 58.7875 87.1896 59.1899 87.4478 59.7418C88.1199 61.1782 87.278 63.3492 86.6629 64.9343C86.4534 65.4751 86.2365 66.034 86.2084 66.2588C86.189 66.4292 86.1078 66.5866 85.9802 66.7013C85.8527 66.816 85.6876 66.88 85.516 66.8813V66.8813Z" fill="#000072"/>
    <path d="M2.14659 82.3621C2.4451 83.3683 2.79604 84.3582 3.19797 85.3278C11.0162 104.18 34.2073 103.753 34.2073 103.753L34.9142 98.4397C34.1925 98.3158 33.4646 98.1819 32.7333 98.0303C23.8617 96.2188 14.6033 92.3839 10.7774 85.2514C9.04233 82.015 8.42266 78.2284 8.68375 74.8524C9.07208 69.8215 11.4182 65.6965 14.9483 65.6473C17.184 65.6168 17.4683 68.2087 17.5005 68.8763C17.6769 72.7815 19.255 75.0024 22.7987 74.6384C23.905 74.5248 25.1745 73.5602 25.995 71.9742C27.0278 69.9772 27.35 66.9925 25.7376 63.4719C19.5904 50.0456 -5.47088 56.7401 2.14659 82.3621Z" fill="white"/>
    <path d="M5.40476 60.7627C4.71196 63.3496 3.9258 68.9791 9.93417 69.681C11.0281 67.2746 12.7603 65.6783 14.9478 65.6478C17.1835 65.6172 17.4678 68.2091 17.5 68.8767C17.6764 72.7819 19.2545 75.0028 22.7982 74.6388C23.9045 74.5252 25.1741 73.5606 25.9945 71.9746C27.0273 69.9776 27.3495 66.9929 25.7371 63.4723C22.0534 55.4223 11.5697 54.606 5.40476 60.7627Z" fill="#F9744B"/>
    <g opacity="0.5">
        <path opacity="0.5" d="M25.7376 65.1247C26.3432 66.4467 26.6762 67.6943 26.801 68.8428C26.9881 67.1878 26.7295 65.2264 25.7376 63.0591C20.2873 51.1548 -0.0293256 55.0682 0.741964 73.9654C1.47525 56.862 20.4923 53.6674 25.7376 65.1247Z" fill="white"/>
    </g>
    <g opacity="0.2">
        <path opacity="0.2" d="M8.68376 74.8528C9.07209 69.8219 11.4182 65.6969 14.9483 65.6478C17.1841 65.6172 17.4683 68.2091 17.5005 68.8767C17.6769 72.7819 19.255 75.0028 22.7987 74.6388C23.9051 74.5252 25.1746 73.5606 25.995 71.9746C24.9622 72.5166 23.7555 72.6699 22.5661 72.5716C19.8359 72.3498 19.2843 69.0109 18.8997 65.5073C18.4507 61.422 11.7772 61.1489 9.85949 66.555C8.79241 69.5604 8.60403 72.5848 8.68376 74.8528Z" fill="#000072"/>
    </g>
    <g opacity="0.2">
        <path opacity="0.2" d="M3.198 85.3278C11.0162 104.18 34.2074 103.753 34.2074 103.753L34.9142 98.4397C34.1925 98.3158 33.4646 98.1819 32.7334 98.0303C29.3243 98.8223 22.1749 99.5176 13.114 95.0195C9.08739 93.0225 5.79981 89.3598 3.198 85.3278Z" fill="#000072"/>
    </g>
    <path d="M34.0714 104.457C33.6129 104.457 32.1413 104.434 30.0295 104.183C27.7135 103.907 24.1587 103.29 20.3749 101.916C16.1058 100.366 12.4212 98.1886 9.42403 95.4451C5.66798 92.0067 2.99305 87.6723 1.4736 82.562C0.466837 79.1744 -0.0222959 75.9521 0.0202551 72.9806C0.0615668 70.2362 0.550284 67.7043 1.47938 65.4552C3.15127 61.4067 6.21412 58.3732 10.1036 56.9128C13.1632 55.7644 16.4627 55.7024 19.395 56.7381C20.8854 57.2598 22.2574 58.0725 23.4312 59.1288C24.6635 60.2396 25.6546 61.6025 26.3767 63.1794C27.2029 64.988 27.602 66.7776 27.5578 68.4987C27.5194 69.9859 27.1422 71.3967 26.4663 72.5782C25.5711 74.1435 24.1942 75.2007 22.8722 75.3366C21.1954 75.5089 19.8317 75.1536 18.8191 74.2807C17.593 73.2235 16.9138 71.4165 16.7998 68.9101C16.7899 68.6966 16.7341 67.9501 16.421 67.3085C16.0979 66.6475 15.6336 66.3422 14.959 66.3513C13.0272 66.3781 11.7643 67.8385 11.0447 69.0618C8.9758 72.5732 8.3962 79.3265 11.3967 84.9209C15.9215 93.3576 28.1481 96.5799 35.0336 97.7502C35.2119 97.7869 35.369 97.8914 35.4718 98.0417C35.5746 98.1919 35.615 98.3763 35.5845 98.5558C35.5541 98.7353 35.455 98.8959 35.3084 99.0038C35.1618 99.1117 34.9789 99.1585 34.7985 99.1342C29.4086 98.2183 24.4747 96.7084 20.5303 94.7675C15.6216 92.352 12.1324 89.2623 10.161 85.5844C8.72959 82.9152 7.93599 79.6578 7.92649 76.4132C7.91698 73.3218 8.59574 70.4585 9.83674 68.3512C10.4473 67.3143 11.1752 66.4959 11.9994 65.9192C12.8979 65.2904 13.8878 64.9641 14.9408 64.9492H14.9891C17.2278 64.9492 18.1193 67.0437 18.2011 68.8486C18.297 70.9555 18.8129 72.4258 19.735 73.2206C20.4534 73.8403 21.4325 74.0766 22.728 73.9431C23.5956 73.8543 24.5838 73.0463 25.2481 71.8846C25.8442 70.8427 27.0245 67.9658 25.1006 63.7672C22.2839 57.6151 15.6724 56.3249 10.5977 58.2315C4.41665 60.5478 -1.32898 68.2083 2.81954 82.1621C5.44365 90.9916 11.4975 97.1884 20.8141 100.581C27.8168 103.133 34.1342 103.053 34.1991 103.052C34.3853 103.049 34.5653 103.12 34.6994 103.249C34.8334 103.378 34.9106 103.556 34.914 103.742C34.9173 103.928 34.8465 104.108 34.7172 104.242C34.5878 104.376 34.4105 104.453 34.2243 104.457C34.2102 104.456 34.1578 104.457 34.0714 104.457Z" fill="#000072"/>
    <path d="M69.7828 69.1192C69.5946 72.523 69.1256 75.9056 68.3807 79.2323C66.9311 85.7674 64.7655 90.7929 63.5444 93.5079C60.3311 100.661 58.708 102.147 55.9211 103.893C52.9277 105.767 44.2254 106.379 44.2254 106.379H37.5482C34.8629 106.379 30.2323 105.611 29.3271 104.825C28.422 104.039 28.106 102.763 27.2917 101.859C20.3406 94.1412 24.247 85.9165 28.7149 77.1336C31.4241 71.8024 33.9202 66.0956 35.7792 61.6004C37.7956 56.729 39.0697 53.2807 39.0697 53.2807C39.0697 53.2807 65.6099 49.9414 67.0121 53.2807C67.4136 54.2408 67.7681 55.1924 68.0754 56.1357L68.3051 57.1925L69.3986 62.2358L69.6197 63.2517C69.8343 65.1997 69.8889 67.1622 69.7828 69.1192Z" fill="white"/>
    <g opacity="0.2">
        <path opacity="0.2" d="M66.5573 85.8393C65.4535 89.1768 64.3129 91.7985 63.5445 93.5079C60.3312 100.661 58.7081 102.147 55.9212 103.893C52.9278 105.767 44.2255 106.379 44.2255 106.379H38.6219L40.5999 95.5996H44.2255C44.2255 95.5996 52.6345 78.2003 53.0348 81.7085C54.686 96.1647 63.0793 91.2073 66.5573 85.8393Z" fill="#000072"/>
    </g>
    <path d="M67.975 56.1684C67.7135 55.5673 67.4483 54.9703 67.1719 54.3808C67.0335 54.0862 66.8939 53.7921 66.7497 53.5009L66.7229 53.4463C66.7158 53.4302 66.7078 53.4145 66.6989 53.3992C66.6868 53.3782 66.673 53.3581 66.6576 53.3393C66.6232 53.2966 66.5843 53.2579 66.5415 53.2237C66.4381 53.1437 66.3253 53.0767 66.2057 53.0241C65.9325 52.9064 65.6478 52.8173 65.3563 52.7585C65.0555 52.692 64.7449 52.6436 64.4317 52.6052C63.8042 52.528 63.1643 52.4871 62.5219 52.4623C61.8795 52.4375 61.2338 52.4296 60.5873 52.4317C59.9407 52.4338 59.2921 52.4441 58.6435 52.4602C57.3464 52.4941 56.0467 52.549 54.747 52.6164C53.4474 52.6837 52.1444 52.7746 50.8468 52.875C49.5492 52.9754 48.247 53.0877 46.9478 53.2113C45.6485 53.3348 44.3505 53.4649 43.0529 53.6062C42.4043 53.677 41.7559 53.7493 41.1076 53.8231C40.4606 53.8979 39.81 53.9751 39.1684 54.0561L39.8046 53.5508C39.5435 54.2577 39.2779 54.9521 39.0093 55.6503C38.7408 56.3485 38.4694 57.0425 38.1943 57.7365C37.6434 59.1243 37.0822 60.5075 36.5104 61.8859C35.3636 64.6426 34.1779 67.3832 32.9328 70.0991C32.3107 71.4574 31.6742 72.8094 31.0234 74.155C30.6965 74.827 30.366 75.4977 30.0319 76.1669C29.6973 76.8353 29.3556 77.5034 29.0185 78.1631C28.3443 79.4851 27.6809 80.8091 27.0657 82.1476C26.4506 83.4861 25.8801 84.8378 25.405 86.2139C24.9299 87.59 24.5585 88.9925 24.3602 90.4095C24.1619 91.8265 24.1479 93.2559 24.3821 94.6444C24.4424 94.991 24.511 95.336 24.6023 95.6772L24.6349 95.8048L24.6713 95.9317C24.6961 96.0143 24.7188 96.1006 24.7452 96.1845C24.7994 96.3518 24.8514 96.5195 24.913 96.6844C24.9745 96.8492 25.0369 97.0149 25.1001 97.1776C25.1336 97.2603 25.1691 97.3396 25.2034 97.421L25.2554 97.5424L25.3108 97.6622L25.4223 97.9022L25.5413 98.1385L25.6008 98.2567L25.664 98.3732L25.7904 98.6062C26.1412 99.2237 26.5352 99.8157 26.9695 100.378C27.1892 100.659 27.414 100.937 27.6519 101.204L27.8329 101.41C27.9064 101.493 27.9766 101.578 28.0419 101.664C28.1695 101.83 28.2883 102.003 28.398 102.182C28.6124 102.527 28.7888 102.867 28.9652 103.177C29.1416 103.488 29.3151 103.772 29.5089 104.004C29.5568 104.063 29.6068 104.116 29.6572 104.169C29.6824 104.194 29.7084 104.22 29.734 104.244L29.7754 104.28L29.7853 104.289C29.7877 104.291 29.7903 104.293 29.7931 104.295L29.801 104.301C29.8422 104.333 29.886 104.36 29.9319 104.384C29.9902 104.416 30.0559 104.448 30.1286 104.479C30.2711 104.541 30.4289 104.599 30.5908 104.653C30.7528 104.708 30.9213 104.757 31.0911 104.804C31.7736 104.992 32.4875 105.135 33.2034 105.259C33.9193 105.383 34.6448 105.478 35.369 105.552C36.0931 105.625 36.819 105.675 37.5283 105.675H44.2266H44.1774L44.5608 105.645L44.9487 105.611C45.2076 105.587 45.4665 105.562 45.7254 105.536C46.2434 105.483 46.7607 105.424 47.277 105.359C48.3098 105.228 49.3381 105.076 50.356 104.888C51.3739 104.701 52.3803 104.479 53.3536 104.19C53.8314 104.051 54.3004 103.884 54.7582 103.689C54.9753 103.595 55.1871 103.49 55.3927 103.373C55.4427 103.345 55.489 103.315 55.5377 103.286L55.7001 103.183C55.8092 103.114 55.9153 103.043 56.0227 102.974C56.2343 102.833 56.4449 102.691 56.647 102.544C56.7498 102.471 56.8477 102.395 56.9481 102.321C57.0485 102.247 57.1448 102.169 57.2373 102.09C57.4298 101.935 57.6124 101.77 57.7929 101.603C57.8805 101.517 57.9714 101.435 58.0561 101.346L58.1854 101.214L58.3093 101.079C58.6459 100.713 58.9596 100.327 59.2488 99.9224C59.5425 99.5163 59.8193 99.0916 60.0841 98.6562C60.3489 98.2208 60.6001 97.7733 60.8455 97.3202C60.9694 97.0946 61.0871 96.8657 61.2069 96.6356C61.3267 96.4055 61.4432 96.1754 61.5568 95.942L61.7291 95.5933L61.8981 95.2422C62.0121 95.0088 62.1216 94.7725 62.2331 94.5374L62.5636 93.8285L62.8875 93.1159C63.748 91.2114 64.5532 89.2925 65.2749 87.3384C65.4558 86.8501 65.6318 86.3602 65.8029 85.8686C65.8876 85.6207 65.9743 85.377 66.0561 85.1299C66.1379 84.8829 66.2214 84.6362 66.3011 84.3884C66.6217 83.3969 66.9223 82.3996 67.2029 81.3966C67.4836 80.3935 67.74 79.3836 67.9721 78.3668C68.2071 77.3513 68.4189 76.3304 68.6075 75.3039C68.7962 74.2775 68.96 73.2467 69.0991 72.2117C69.1644 71.6937 69.235 71.1756 69.2875 70.6559C69.3499 70.1367 69.3933 69.6157 69.4432 69.0952V69.0873C69.4512 68.9992 69.4933 68.9177 69.5605 68.8601C69.6278 68.8026 69.7148 68.7737 69.8031 68.7794C69.8914 68.7852 69.974 68.8252 70.0332 68.891C70.0924 68.9568 70.1235 69.0431 70.1199 69.1315C70.1018 69.6599 70.0906 70.1895 70.0596 70.7179C70.0361 71.2471 69.9948 71.7747 69.9588 72.3035C69.871 73.3588 69.7571 74.4126 69.6172 75.4646C69.3306 77.5678 68.9354 79.6548 68.4332 81.7172C68.1814 82.7483 67.9051 83.7734 67.6041 84.7924C67.5305 85.0473 67.4516 85.3009 67.3739 85.555C67.2963 85.8091 67.2161 86.0619 67.1352 86.3147C66.9728 86.8204 66.8047 87.3236 66.6295 87.8251C65.933 89.8312 65.1328 91.8042 64.2681 93.7355L63.9414 94.4597L63.6063 95.1815C63.3799 95.6619 63.1519 96.1411 62.9098 96.617C62.7917 96.8558 62.6669 97.0921 62.5454 97.3297C62.424 97.5672 62.2976 97.8031 62.1662 98.0382C61.9092 98.5087 61.6411 98.9759 61.3544 99.4357C61.0677 99.8955 60.7666 100.351 60.4398 100.793C60.112 101.241 59.7572 101.669 59.3772 102.074L59.2331 102.226L59.0848 102.375C58.9868 102.475 58.8827 102.569 58.7815 102.664C58.575 102.852 58.3639 103.036 58.1453 103.21C57.7145 103.552 57.2665 103.873 56.8031 104.17C56.6895 104.242 56.5759 104.316 56.4623 104.387L56.2913 104.494C56.2268 104.532 56.162 104.573 56.0971 104.609C55.8445 104.75 55.5843 104.877 55.3175 104.99C54.8065 105.203 54.2838 105.387 53.7518 105.542C52.7062 105.849 51.6565 106.073 50.6059 106.267C49.5554 106.461 48.5028 106.616 47.4485 106.749C46.9214 106.816 46.3938 106.876 45.8658 106.93C45.6015 106.958 45.3369 106.983 45.0722 107.007L44.6748 107.042L44.272 107.074L44.2501 107.076H37.5242C36.7446 107.073 35.9841 107.019 35.2264 106.944C34.4688 106.869 33.7169 106.766 32.9667 106.638C32.2165 106.511 31.4683 106.359 30.7148 106.152C30.5264 106.1 30.3372 106.044 30.1463 105.98C29.9555 105.917 29.763 105.847 29.5647 105.761C29.4651 105.717 29.3639 105.669 29.259 105.612C29.1403 105.549 29.0275 105.475 28.9219 105.392L28.8756 105.354C28.8669 105.347 28.8624 105.343 28.857 105.338L28.8409 105.323L28.7769 105.265C28.7355 105.226 28.6942 105.186 28.6529 105.145C28.5744 105.063 28.498 104.98 28.4282 104.895C28.1456 104.555 27.9324 104.199 27.742 103.863C27.5515 103.527 27.3834 103.204 27.2049 102.917C27.1199 102.779 27.0279 102.644 26.9294 102.515C26.8819 102.453 26.8331 102.394 26.7832 102.338L26.5956 102.124C26.3395 101.835 26.0961 101.535 25.8574 101.229C25.3815 100.614 24.95 99.9648 24.566 99.2878L24.4263 99.0301L24.3565 98.9007L24.2904 98.7698L24.1603 98.5104L24.0363 98.2439L23.9748 98.1105L23.9169 97.9754C23.8785 97.8853 23.8389 97.7957 23.8017 97.7048C23.7306 97.5218 23.6563 97.3404 23.5926 97.1545C23.4584 96.7852 23.3448 96.4088 23.2444 96.0288C23.144 95.6487 23.0643 95.2641 22.9965 94.8774L22.9494 94.5882L22.9106 94.2966C22.897 94.1995 22.887 94.102 22.8775 94.0045C22.868 93.907 22.8556 93.8099 22.8495 93.712C22.816 93.3216 22.8028 92.9308 22.7995 92.5404C22.7962 92.15 22.8139 91.7608 22.8408 91.3729C22.8676 90.985 22.9098 90.5996 22.9618 90.2162C23.1737 88.6823 23.5712 87.1947 24.0566 85.7545C24.542 84.3144 25.1278 82.9156 25.7504 81.5461C26.3729 80.1766 27.0364 78.8332 27.7056 77.4976C28.0419 76.8292 28.3741 76.1698 28.7017 75.5047C29.0293 74.8396 29.3519 74.1728 29.6717 73.504C30.3101 72.166 30.9335 70.8202 31.5418 69.4666C32.7589 66.7598 33.9326 64.0333 35.0628 61.2869C35.6272 59.9137 36.1838 58.5366 36.7327 57.1557C37.0061 56.4652 37.2774 55.7744 37.5465 55.0831C37.8142 54.3924 38.0807 53.6967 38.3389 53.008L38.5066 52.5594L38.9751 52.5028C39.6323 52.423 40.2822 52.3491 40.9353 52.2768C41.5884 52.2045 42.2407 52.1355 42.8939 52.0702C44.1996 51.9386 45.5067 51.8166 46.8152 51.7042C48.1237 51.5918 49.4334 51.4932 50.7443 51.4084C52.0556 51.3236 53.3686 51.2547 54.6834 51.2019C55.9984 51.1486 57.3158 51.1192 58.6365 51.1353C59.9573 51.1515 61.2805 51.2056 62.6066 51.3473C63.2746 51.4161 63.9386 51.5189 64.5962 51.6555C64.9266 51.7278 65.2571 51.8116 65.5876 51.9182C65.93 52.0244 66.2596 52.1681 66.5704 52.3466C66.7413 52.4458 66.8978 52.5678 67.0356 52.7093C67.1115 52.7879 67.1779 52.8751 67.2335 52.9692C67.263 53.0189 67.2885 53.0708 67.3099 53.1245C67.3227 53.1551 67.3273 53.1699 67.3343 53.1906L67.3549 53.2493C67.4624 53.562 67.5669 53.8756 67.664 54.1912C67.8598 54.822 68.0358 55.4586 68.1795 56.1018C68.185 56.1279 68.1806 56.1551 68.1673 56.1782C68.154 56.2012 68.1326 56.2186 68.1072 56.2269C68.0819 56.2352 68.0544 56.2338 68.03 56.2231C68.0056 56.2124 67.9861 56.193 67.975 56.1688V56.1684Z" fill="#000072"/>
    <path d="M82.1759 51.2585C82.1693 51.2721 82.1607 51.2841 82.1541 51.2973L82.183 51.2498C82.1801 51.2522 82.1777 51.2551 82.1759 51.2585V51.2585Z" fill="#000072"/>
    <path d="M82.1541 51.2973L81.3138 52.6453C81.6039 52.209 81.8864 51.7629 82.1541 51.2973Z" fill="#000072"/>
    <path d="M82.1776 50.8247C82.1722 50.8301 82.1673 50.8359 82.164 50.8396L82.1433 50.8673L82.1776 50.8247Z" fill="#000072"/>
    <path d="M81.3291 51.8657C81.61 51.5435 81.8827 51.2118 82.1434 50.8672L81.3291 51.8657Z" fill="#000072"/>
    <path d="M25.4443 51.8658L24.6317 50.8743C24.8907 51.2159 25.1617 51.5452 25.4443 51.8658Z" fill="#000072"/>
    <path d="M82.7816 50.4467C82.77 50.4599 82.7585 50.4748 82.7473 50.488L82.7886 50.4422L82.7816 50.4467Z" fill="#000072"/>
    <path d="M82.749 50.4876L81.9141 51.4221C81.9174 51.4221 81.919 51.4171 81.9219 51.4155C82.2078 51.1161 82.4835 50.8068 82.749 50.4876Z" fill="#000072"/>
    <path d="M55.1222 79.8825C53.2273 89.4594 53.2909 101.831 53.3636 102.035C53.388 102.104 56.4471 103.315 54.7802 105.046C52.4581 107.459 44.948 106.534 44.2044 105.441C43.1175 103.841 40.0617 85.0436 41.0209 76.34" fill="white"/>
    <path d="M55.3506 79.928C55.4063 80.1081 55.4462 80.2928 55.47 80.4799C55.4952 80.6604 55.508 80.8385 55.515 81.0149C55.5221 81.1913 55.5188 81.366 55.5097 81.5395C55.5006 81.713 55.4832 81.8845 55.4684 82.0568C55.435 82.4005 55.3915 82.7427 55.3378 83.0834C55.2845 83.4242 55.2205 83.7638 55.1614 84.1042L55.1172 84.3595L55.0759 84.6156C55.0484 84.7864 55.0231 84.9574 55.0003 85.1287C54.9548 85.4712 54.9148 85.8149 54.8764 86.1582C54.797 86.8467 54.7243 87.5352 54.6582 88.2238C54.3938 90.9805 54.222 93.75 54.1212 96.5212C54.0728 97.906 54.041 99.2936 54.0386 100.675C54.0386 101.019 54.0385 101.366 54.0476 101.701L54.0514 101.825C54.0514 101.864 54.0547 101.904 54.0567 101.93C54.0567 101.934 54.0567 101.941 54.0567 101.934C54.0567 101.938 54.0567 101.914 54.0522 101.903C54.1447 101.967 53.813 101.426 53.7973 101.487C53.7638 101.462 53.7539 101.457 53.7502 101.454C53.7465 101.451 53.744 101.451 53.7448 101.451L53.758 101.458L53.8667 101.515C54.0278 101.598 54.1972 101.692 54.3624 101.793C54.7168 102.001 55.0419 102.256 55.3295 102.55C55.4938 102.721 55.6344 102.914 55.7476 103.122C55.8792 103.364 55.9568 103.632 55.9752 103.907C55.9841 104.05 55.9756 104.194 55.95 104.335C55.9254 104.47 55.8865 104.601 55.834 104.728C55.7385 104.952 55.6101 105.161 55.4531 105.347C55.1774 105.673 54.8498 105.952 54.4835 106.171C54.1435 106.375 53.7836 106.545 53.4094 106.676C53.052 106.804 52.6865 106.907 52.3154 106.986C51.5944 107.137 50.862 107.226 50.1259 107.254C49.4009 107.285 48.6746 107.271 47.9513 107.213C47.2226 107.157 46.4988 107.05 45.7853 106.891C45.4115 106.808 45.0441 106.699 44.686 106.563C44.5918 106.526 44.4968 106.486 44.3997 106.439C44.2964 106.39 44.196 106.335 44.099 106.274C44.0434 106.24 43.9896 106.202 43.9378 106.162C43.8763 106.116 43.8183 106.065 43.7643 106.009L43.7185 105.96C43.7032 105.943 43.6875 105.923 43.6722 105.905C43.6569 105.886 43.6408 105.863 43.6259 105.842C43.6111 105.82 43.6036 105.808 43.5925 105.79L43.5764 105.765L43.5631 105.742L43.5375 105.697C43.5218 105.667 43.5086 105.641 43.4962 105.614C43.4438 105.507 43.4049 105.411 43.3682 105.317C43.3314 105.223 43.2996 105.132 43.2694 105.043C43.2087 104.862 43.1558 104.687 43.1042 104.512C43.0042 104.162 42.9166 103.816 42.834 103.471C42.6687 102.78 42.5246 102.091 42.3882 101.401C42.1168 100.022 41.8809 98.6405 41.6645 97.257C41.448 95.8734 41.2538 94.4891 41.0778 93.0985C40.9018 91.708 40.7473 90.3187 40.6094 88.9261L40.5032 87.8809L40.4016 86.8345C40.3363 86.1367 40.2751 85.4377 40.2293 84.7375C40.1324 83.3335 40.1104 81.9254 40.1632 80.5191C40.1938 79.8144 40.2537 79.1092 40.3503 78.4065C40.3987 78.0553 40.4565 77.7042 40.528 77.3559C40.5994 77.0076 40.6817 76.6602 40.7874 76.3177C40.8037 76.265 40.8379 76.2195 40.884 76.1891C40.9302 76.1587 40.9855 76.1453 41.0404 76.1512C41.0953 76.157 41.1465 76.1818 41.1852 76.2212C41.2239 76.2606 41.2477 76.3123 41.2526 76.3673V76.3673C41.2823 76.7172 41.3042 77.0642 41.3265 77.4104L41.3914 78.4461C41.4333 79.1346 41.4729 79.8232 41.5104 80.5117L41.7318 84.6458C41.8037 86.026 41.8847 87.4091 42.0107 88.7889C42.1367 90.1687 42.2998 91.546 42.4709 92.9201C42.6419 94.2941 42.8377 95.6685 43.0492 97.0376C43.2607 98.4067 43.497 99.7725 43.7635 101.127C43.8974 101.804 44.0391 102.479 44.1973 103.143C44.2766 103.474 44.3625 103.804 44.4518 104.124C44.4972 104.285 44.5451 104.442 44.5959 104.592C44.6211 104.667 44.6472 104.741 44.6736 104.809C44.7 104.878 44.7277 104.943 44.7521 104.992L44.7686 105.024L44.7752 105.036L44.7781 105.041V105.043C44.7781 105.043 44.7806 105.048 44.7781 105.047C44.7756 105.046 44.7723 105.038 44.7707 105.036C44.769 105.033 44.767 105.032 44.7661 105.031C44.7898 105.052 44.8154 105.07 44.8426 105.086C44.8934 105.118 44.9461 105.146 45.0004 105.171C45.0603 105.2 45.1243 105.228 45.1937 105.254C45.4876 105.364 45.789 105.453 46.0956 105.521C46.7429 105.663 47.3994 105.76 48.0603 105.81C48.7259 105.865 49.3942 105.879 50.0615 105.851C50.7182 105.827 51.3717 105.748 52.0151 105.614C52.3255 105.548 52.6312 105.462 52.9302 105.356C53.2141 105.256 53.4871 105.128 53.7452 104.974C53.9788 104.836 54.1882 104.66 54.3649 104.454C54.4326 104.375 54.4883 104.286 54.5302 104.191C54.5579 104.128 54.5709 104.06 54.5682 103.992C54.5617 103.917 54.5391 103.846 54.5021 103.781C54.4476 103.684 54.3805 103.594 54.3025 103.514C54.1006 103.311 53.8731 103.135 53.6258 102.991C53.4941 102.908 53.3581 102.836 53.2102 102.759L53.0863 102.694L53.0425 102.67L53.0087 102.65C52.983 102.635 52.9582 102.618 52.9343 102.599C52.9087 102.655 52.5724 102.104 52.6637 102.156C52.6596 102.134 52.655 102.1 52.6546 102.093C52.6513 102.064 52.6505 102.052 52.6492 102.032C52.6447 101.971 52.643 101.924 52.641 101.876L52.6368 101.738C52.6282 101.377 52.6269 101.027 52.6269 100.675C52.6294 99.2701 52.6616 97.8713 52.7096 96.4721C52.8099 93.6748 52.9834 90.8801 53.2507 88.0899C53.3182 87.3926 53.3919 86.6955 53.4718 85.9987L53.5957 84.9539C53.6163 84.7799 53.6356 84.6055 53.6535 84.4309C53.6725 84.2562 53.6903 84.0819 53.7076 83.9067C53.744 83.5572 53.7791 83.2073 53.8295 82.8594C53.8799 82.5116 53.9444 82.1654 54.0237 81.8221C54.065 81.6507 54.1063 81.4792 54.1551 81.309C54.2051 81.138 54.2638 80.9696 54.331 80.8046C54.3998 80.6361 54.4781 80.4717 54.5657 80.3122C54.6562 80.1446 54.7624 79.9861 54.883 79.8387C54.9136 79.8023 54.9534 79.7747 54.9983 79.7587C55.0431 79.7428 55.0915 79.7392 55.1382 79.7482C55.185 79.7572 55.2285 79.7786 55.2642 79.81C55.3 79.8415 55.3266 79.8819 55.3415 79.9271L55.3506 79.928Z" fill="#000072"/>
    <path d="M49.2808 102.27C49.6002 102.118 49.9286 101.986 50.264 101.874C50.6045 101.76 50.9513 101.665 51.3026 101.589L51.5703 101.535L51.8421 101.494C51.933 101.478 52.0251 101.47 52.1172 101.46C52.2093 101.451 52.3023 101.438 52.3961 101.436L52.6786 101.422C52.7733 101.419 52.8687 101.422 52.9645 101.422L53.1087 101.425C53.157 101.425 53.2054 101.433 53.2537 101.436L53.5466 101.463C53.63 101.469 53.7114 101.491 53.786 101.529C53.8606 101.567 53.927 101.619 53.9812 101.682C54.0354 101.746 54.0763 101.82 54.1016 101.899C54.1269 101.979 54.1361 102.063 54.1286 102.146C54.121 102.23 54.097 102.311 54.0578 102.384C54.0186 102.458 53.965 102.523 53.9003 102.576C53.8356 102.629 53.7609 102.669 53.6808 102.692C53.6006 102.716 53.5165 102.723 53.4334 102.714C53.3724 102.709 53.3123 102.695 53.2554 102.673L53.2297 102.662L53.0149 102.575C52.9786 102.561 52.9426 102.544 52.9055 102.531L52.7927 102.494C52.7171 102.471 52.6419 102.443 52.5642 102.422L52.3287 102.362C52.0046 102.287 51.6755 102.236 51.3439 102.208C51.0032 102.18 50.6611 102.17 50.3193 102.18C49.9716 102.189 49.6248 102.219 49.2808 102.27V102.27Z" fill="#000072"/>
    <path d="M81.3134 52.2124C81.5959 51.8877 81.8702 51.5525 82.1363 51.2068L81.3134 52.2124Z" fill="white"/>
    <path d="M25.4988 52.2124L24.6792 51.2085C24.9407 51.5543 25.2162 51.8877 25.4988 52.2124Z" fill="white"/>
    <g opacity="0.2">
        <path opacity="0.2" d="M70.8636 61.6682C70.3778 61.8665 69.89 62.0554 69.4003 62.235C68.6947 62.4963 67.9869 62.7397 67.2769 62.965C56.8969 66.2604 46.0642 65.8155 35.7809 61.6017C37.7973 56.7302 39.0714 53.2819 39.0714 53.2819C39.0714 53.2819 65.6116 49.9427 67.0138 53.2819C67.4153 54.242 67.7698 55.1937 68.0771 56.137L68.3068 57.1937L68.5456 55.8527C68.5456 55.8527 69.314 58.8924 70.8636 61.6682Z" fill="#000072"/>
    </g>
    <path d="M17.8214 45.3579C17.9793 46.732 20.7835 45.4298 21.3945 45.1295C21.4432 45.1051 21.4961 45.1559 21.4821 45.2158C21.4259 45.4525 21.2755 45.9859 20.8926 46.839C20.4187 47.8916 20.0324 48.7079 20.2464 49.2606C20.4765 49.8469 21.4292 50.0732 22.6173 49.9398C23.2824 49.8642 23.9951 50.4451 24.63 51.1469H24.6321L24.637 51.1523L24.6784 51.2068C24.668 51.1911 24.6556 51.1771 24.6453 51.161C24.956 51.5051 25.2472 51.879 25.505 52.2177C26.5744 53.4329 27.7763 54.5247 29.0884 55.4727C30.7822 56.6625 32.649 57.6015 34.618 58.3368V58.3228C34.618 58.3228 37.3185 59.3192 41.3104 60.2334C41.3104 60.2334 44.8798 60.9969 48.1422 61.4183C49.883 61.6085 51.6326 61.7075 53.3838 61.7149C55.1484 61.7065 56.9114 61.6074 58.6659 61.4183C61.9262 60.9969 65.4976 60.2334 65.4976 60.2334C69.4896 59.3192 72.1901 58.3228 72.1901 58.3228V58.3368C74.159 57.6015 76.0263 56.6625 77.7197 55.4727C79.0309 54.5242 80.2322 53.4325 81.3014 52.2177C81.5629 51.8753 81.8558 51.4997 82.1689 51.1523C82.157 51.1701 82.1429 51.1874 82.1305 51.2052L82.178 51.1453L82.171 51.1507C82.8076 50.4484 83.5219 49.8626 84.1887 49.9382C85.3768 50.0716 86.3299 49.8452 86.5595 49.259C86.7756 48.7062 86.3877 47.8899 85.9155 46.8373C85.5313 45.9842 85.3805 45.4509 85.3243 45.2142C85.3119 45.1543 85.3627 45.1035 85.4119 45.1278C86.0225 45.4282 88.8267 46.7303 88.985 45.3563C89.0742 44.5945 87.839 42.2922 87.4089 39.9337C86.1613 33.0987 85.7978 31.749 85.7978 31.749C85.7891 31.7036 84.5799 26.804 82.7725 23.1975C84.5782 18.3859 85.761 4.35236 82.739 1.42212C80.314 -0.932644 71.1941 4.007 67.7722 7.46189C62.5971 5.30005 54.5703 4.97534 53.3982 4.97741C52.9946 4.97741 51.7801 5.01417 50.1499 5.15257C47.0404 5.41614 42.418 6.04408 39.0259 7.46189C35.6041 4.007 26.4841 -0.931404 24.0574 1.42212C21.0355 4.35236 22.2182 18.3859 24.024 23.1975C22.8817 25.4771 21.9778 28.2727 21.4672 30.0329C21.1689 31.0595 21.002 31.7333 20.9987 31.7507C20.9987 31.7507 20.6389 33.1003 19.3913 39.9354C18.9691 42.2938 17.7339 44.5961 17.8214 45.3579Z" fill="white"/>
    <path d="M23.3709 20.9122C22.5831 17.5006 22.0634 12.4606 22.253 8.28771C22.4269 12.6416 23.1569 17.1462 24.0323 19.4832C23.8026 19.9417 23.582 20.4222 23.3709 20.9122Z" fill="white"/>
    <g opacity="0.2">
        <path opacity="0.2" d="M85.9213 46.8398C86.393 47.8924 86.781 48.7087 86.5653 49.2615C86.3352 49.8477 85.3826 50.0736 84.1944 49.9406C83.5277 49.865 82.8134 50.4492 82.1764 51.1531L82.1834 51.1478L82.1359 51.2077C82.1483 51.1899 82.1623 51.1725 82.1747 51.1548C81.8603 51.5022 81.5674 51.8777 81.3072 52.2202C80.238 53.435 79.0367 54.5267 77.7254 55.4752C76.0317 56.6649 74.1648 57.6039 72.1959 58.3393V58.3252C72.1959 58.3252 69.4937 59.3217 65.5013 60.2359C65.5013 60.2359 61.9303 60.9993 58.6696 61.4207C56.9151 61.6099 55.1521 61.7089 53.3875 61.7173C51.6363 61.7099 49.8867 61.6109 48.1458 61.4207C44.8822 60.9993 41.3145 60.2359 41.3145 60.2359C37.3205 59.3217 34.6196 58.3252 34.6196 58.3252V58.3393C32.6507 57.6039 30.7838 56.6649 29.09 55.4752C27.7779 54.5272 26.576 53.4354 25.5066 52.2202C25.2488 51.8814 24.9576 51.5076 24.6469 51.1635C24.6577 51.1796 24.6697 51.1936 24.6804 51.2093L24.6391 51.1548L24.6337 51.1494C23.9983 50.4471 23.2857 49.8687 22.621 49.9423C21.4329 50.0753 20.4798 49.8493 20.2501 49.2631C20.0361 48.7104 20.422 47.894 20.8958 46.8414C21.0065 46.5936 21.0974 46.3729 21.173 46.1804C21.5733 46.2717 22.0716 46.2874 22.621 46.2263C23.2857 46.1507 23.9983 46.7315 24.6337 47.4334L24.6391 47.4384L24.6804 47.4929C24.6697 47.4772 24.6577 47.4632 24.6469 47.4475C24.9576 47.7912 25.2488 48.165 25.5066 48.5038C26.5759 49.7191 27.7778 50.8109 29.09 51.7587C30.7838 52.9485 32.6507 53.8875 34.6196 54.6229V54.6088C34.6196 54.6088 37.3205 55.6057 41.3145 56.5199C41.3145 56.5199 44.8839 57.2829 48.1458 57.7043C49.8867 57.8945 51.6363 57.9935 53.3875 58.0009C55.1521 57.9925 56.9151 57.8935 58.6696 57.7043C61.9303 57.2829 65.5013 56.5199 65.5013 56.5199C69.4937 55.6057 72.1959 54.6088 72.1959 54.6088V54.6229C74.1648 53.8875 76.0321 52.9485 77.7254 51.7587C79.0368 50.8104 80.2381 49.7187 81.3072 48.5038C81.5687 48.1613 81.8616 47.7858 82.1747 47.4384C82.1623 47.4561 82.1483 47.4735 82.1359 47.4913L82.1834 47.4313C82.1811 47.4333 82.1788 47.4351 82.1764 47.4367C82.8134 46.7344 83.5277 46.1486 84.1944 46.2242C84.7435 46.2854 85.2421 46.2697 85.6403 46.1784C85.7184 46.3713 85.8097 46.5923 85.9213 46.8398Z" fill="#000072"/>
    </g>
    <path d="M21.4751 30.0329C22.5212 30.162 23.5743 30.2264 24.6284 30.2259C38.5761 30.2259 49.9112 19.0424 50.159 5.15257C47.0495 5.41613 42.4271 6.04407 39.035 7.46189C35.6132 4.00699 26.4932 -0.931406 24.0666 1.42212C21.0446 4.35236 22.2274 18.3859 24.0331 23.1975C22.8896 25.4771 21.9857 28.2727 21.4751 30.0329Z" fill="#F9744B"/>
    <path d="M82.1301 51.2126L81.3134 52.2111C81.5959 51.8893 81.8686 51.5576 82.1301 51.2126Z" fill="#000072"/>
    <path d="M25.4989 52.2111L24.6821 51.2126C24.9453 51.5576 25.2184 51.8893 25.4989 52.2111Z" fill="#000072"/>
    <path d="M75.9986 13.6562C78.3918 16.0853 79.8964 19.4811 80.1104 19.0849C80.1342 19.0407 80.1552 18.9951 80.1732 18.9482C80.6276 17.8381 81.3894 13.4343 81.3877 9.51012C81.3857 8.87722 81.3687 8.31827 81.3344 7.82543C81.2436 6.49519 81.0453 5.64252 80.8003 5.09679C80.4971 4.43002 79.815 4.22553 79.2106 4.44902C77.6036 5.04598 73.0391 7.88822 71.5514 9.71089C71.2862 10.0335 73.6034 11.2258 75.9986 13.6562Z" fill="#FA508E"/>
    <g opacity="0.2">
        <path opacity="0.2" d="M75.9986 13.6562C78.3918 16.0853 79.8964 19.4811 80.1104 19.0849C80.1342 19.0407 80.1552 18.9951 80.1732 18.9482C79.6407 16.8888 78.172 14.0424 77.0467 11.9847C75.5078 9.17549 77.63 6.94466 79.4701 6.27541C80.1009 6.04613 80.8494 7.02976 81.3344 7.82543C81.2436 6.49519 81.0453 5.64252 80.8003 5.09679C80.4971 4.43002 79.815 4.22553 79.2106 4.44902C77.6036 5.04598 73.0391 7.88822 71.5514 9.71089C71.2862 10.0335 73.6034 11.2258 75.9986 13.6562Z" fill="#000072"/>
    </g>
    <path d="M80.0633 19.7348C79.656 19.7348 79.4056 19.3811 79.2371 19.1452C79.0784 18.9209 78.8801 18.6082 78.6509 18.2418C77.9486 17.1263 76.8893 15.4441 75.555 14.0899C74.3429 12.8601 73.1651 11.9661 72.305 11.3134C71.3581 10.5954 70.9665 10.2979 70.9136 9.85466C70.9018 9.75929 70.9094 9.66251 70.9362 9.57019C70.9629 9.47788 71.008 9.39194 71.0689 9.31761C72.6491 7.38257 77.3528 4.47629 78.9937 3.86818C79.9501 3.51373 80.9461 3.92271 81.3621 4.84066C81.7934 5.79868 82.0033 7.32514 82.0049 9.50888C82.0083 13.5715 81.1899 18.3872 80.6545 19.3778C80.5995 19.4822 80.5179 19.5702 80.4179 19.6328C80.3179 19.6954 80.2031 19.7304 80.0852 19.7343L80.0633 19.7348ZM72.3298 9.76336C72.5239 9.92365 72.7999 10.1352 73.0544 10.3264C73.8942 10.9635 75.1637 11.9269 76.4382 13.2183C77.8668 14.6683 78.9698 16.4203 79.6998 17.5799L79.8596 17.8332C80.2533 16.1807 80.7685 12.7965 80.766 9.50805C80.766 7.53046 80.5851 6.13123 80.2331 5.34879C80.0555 4.95716 79.6865 4.93113 79.425 5.02821C78.0217 5.55039 74.0095 8.00761 72.3298 9.76336Z" fill="#000072"/>
    <path d="M31.0019 13.6562C28.6087 16.0853 27.1041 19.4811 26.8901 19.0849C26.8663 19.0407 26.8454 18.9951 26.8274 18.9482C26.3729 17.8381 25.6111 13.4343 25.6128 9.51012C25.6128 8.87722 25.6318 8.31827 25.6661 7.82543C25.757 6.49519 25.9553 5.64252 26.2002 5.09679C26.5035 4.43002 27.1855 4.22553 27.7903 4.44902C29.3969 5.04598 33.9619 7.88822 35.4491 9.71089C35.7143 10.0335 33.3972 11.2258 31.0019 13.6562Z" fill="#FA508E"/>
    <g opacity="0.2">
        <path opacity="0.2" d="M31.002 13.6562C28.6088 16.0853 27.1042 19.4811 26.8902 19.0849C26.8664 19.0407 26.8454 18.9951 26.8274 18.9482C27.3599 16.8888 28.8285 14.0424 29.9543 11.9847C31.4927 9.17549 29.3706 6.94466 27.5305 6.27541C26.8997 6.04613 26.1511 7.02976 25.6661 7.82543C25.757 6.49519 25.9553 5.64252 26.2003 5.09679C26.5035 4.43002 27.1856 4.22553 27.7904 4.44902C29.397 5.04598 33.9619 7.88822 35.4492 9.71089C35.7144 10.0335 33.3972 11.2258 31.002 13.6562Z" fill="#000072"/>
    </g>
    <path d="M26.9373 19.7348H26.9138C26.7959 19.7309 26.6811 19.6958 26.5811 19.6332C26.4811 19.5706 26.3995 19.4826 26.3445 19.3782C25.8075 18.3868 24.9911 13.5719 24.994 9.5093C24.994 7.32515 25.2055 5.79868 25.636 4.84107C26.0528 3.92148 27.0493 3.51249 28.0052 3.86694C29.6461 4.47505 34.3499 7.38133 35.9301 9.31637C35.991 9.39071 36.0361 9.47664 36.0628 9.56896C36.0895 9.66127 36.0972 9.75805 36.0854 9.85342C36.0325 10.2967 35.6409 10.5941 34.694 11.3121C33.8339 11.9649 32.6561 12.8588 31.444 14.0887C30.1097 15.4429 29.0479 17.1263 28.3485 18.2405C28.1188 18.6049 27.921 18.9197 27.7619 19.144C27.595 19.3807 27.3447 19.7348 26.9373 19.7348ZM27.3133 4.98236C27.1067 4.98236 26.8878 5.07779 26.7634 5.35417C26.4123 6.13496 26.233 7.53418 26.2313 9.51177C26.2288 12.8006 26.744 16.1848 27.1377 17.8369C27.1914 17.7522 27.2451 17.6667 27.2976 17.5833C28.0275 16.424 29.1306 14.672 30.5612 13.222C31.8357 11.9289 33.1052 10.9655 33.945 10.3302C34.1995 10.1368 34.4755 9.92737 34.6696 9.76708C32.9911 8.01133 28.979 5.55329 27.5744 5.03359C27.4919 5.00063 27.4041 4.98272 27.3153 4.98071L27.3133 4.98236Z" fill="#000072"/>
    <path d="M58.6234 61.0721C59.7536 60.8391 60.8827 60.6061 62.0109 60.3603L63.7006 59.9885L64.5437 59.798L64.9643 59.7018L65.1742 59.6534L65.2787 59.6286L65.3774 59.6051L66.2061 59.3911C66.4833 59.3163 66.7613 59.2457 67.0373 59.1684C67.5917 59.0201 68.1424 58.8611 68.6935 58.7024C69.2446 58.5438 69.792 58.3752 70.3377 58.203C70.6106 58.1173 70.8825 58.0293 71.1532 57.939L71.5572 57.8023L71.7576 57.732L71.9522 57.6626L72.899 57.3234V58.3232V58.3372L71.9489 57.6763C72.7927 57.3602 73.62 57.0018 74.4276 56.6021C75.2311 56.203 76.0103 55.7565 76.7608 55.2649C76.8538 55.2029 76.9484 55.1409 77.0393 55.079L77.3111 54.891L77.5763 54.694C77.6656 54.6258 77.7556 54.5589 77.8436 54.4895C78.1978 54.2141 78.543 53.9287 78.8793 53.6335C79.2156 53.3382 79.5414 53.032 79.8567 52.7147C79.9361 52.6362 80.0141 52.5561 80.0918 52.4755C80.1695 52.395 80.2459 52.314 80.3223 52.2326C80.3987 52.1512 80.4731 52.0674 80.5487 51.9847C80.5867 51.9434 80.6231 51.9021 80.6602 51.8608L80.7156 51.7984L80.7433 51.767L80.7573 51.7513L80.7639 51.7435C80.745 51.7655 80.7274 51.7885 80.7111 51.8125C80.7078 51.8174 80.7152 51.8054 80.7305 51.7848C80.7532 51.7539 80.7783 51.7249 80.8057 51.698C80.8505 51.654 80.9007 51.6158 80.9552 51.5844L80.771 51.7356C81.0601 51.4051 81.3378 51.0643 81.5972 50.7161L81.6145 50.6929L81.6307 50.6756C81.6565 50.6456 81.685 50.6179 81.7158 50.5929L81.7393 50.5744L81.7195 50.5901C81.6897 50.6142 81.6621 50.6409 81.6369 50.6698L82.7391 51.6018L81.8637 52.6759L80.728 51.779C81.0998 51.2915 81.489 50.795 81.9574 50.3244C82.2022 50.0748 82.4707 49.8497 82.7593 49.6523C82.9233 49.5422 83.0975 49.448 83.2794 49.3709C83.4894 49.2807 83.7126 49.2249 83.9404 49.2057C84.0029 49.201 84.0657 49.1996 84.1284 49.2016C84.1602 49.2016 84.192 49.204 84.2242 49.2069L84.2969 49.214C84.363 49.221 84.4295 49.2268 84.4952 49.2313C84.627 49.2404 84.7575 49.2445 84.8848 49.2425C85.0083 49.2411 85.1316 49.2325 85.2541 49.2169C85.3641 49.2037 85.4729 49.1815 85.5792 49.1503C85.6597 49.1279 85.7368 49.0948 85.8085 49.052C85.8355 49.0368 85.8591 49.0163 85.8779 48.9917C85.8868 48.9651 85.8906 48.9371 85.8891 48.9091C85.8865 48.8191 85.8736 48.7297 85.8507 48.6426C85.8204 48.523 85.7834 48.4053 85.7399 48.2898C85.6949 48.1659 85.6424 48.0362 85.5867 47.9048C85.4747 47.6416 85.3508 47.3723 85.2252 47.0918C85.0967 46.8026 84.9748 46.5134 84.8637 46.2077C84.8084 46.0561 84.7555 45.9016 84.7063 45.7417C84.6819 45.6616 84.6584 45.5806 84.6365 45.4938L84.62 45.4298L84.6121 45.3968L84.608 45.3807C84.608 45.3868 84.6006 45.348 84.5981 45.3311C84.5956 45.3141 84.5911 45.2898 84.5894 45.265C84.5712 45.0681 84.6249 44.8713 84.7406 44.711C84.8502 44.5579 85.0106 44.4486 85.1932 44.4026C85.3758 44.3566 85.5688 44.3769 85.7379 44.4598L85.7639 44.4722L85.8114 44.4953L85.9068 44.5408C85.9709 44.5709 86.0357 44.6003 86.1006 44.6292C86.23 44.6873 86.3603 44.7424 86.4914 44.7944C86.7529 44.9002 87.0161 44.9952 87.2763 45.0712C87.5149 45.1454 87.7603 45.1957 88.0088 45.2216C88.0955 45.2298 88.1828 45.2278 88.269 45.2154C88.2847 45.2131 88.3001 45.2089 88.3149 45.203C88.3038 45.2084 88.2939 45.2158 88.2856 45.2249C88.2707 45.2395 88.2584 45.2566 88.2492 45.2753C88.2443 45.2865 88.2492 45.2844 88.2492 45.2666C88.2492 45.2803 88.2492 45.2563 88.2451 45.2154C88.2409 45.1745 88.231 45.1233 88.2186 45.0671C88.193 44.9535 88.1567 44.825 88.1154 44.6953C88.074 44.5656 88.0282 44.428 87.9799 44.2904C87.7861 43.7393 87.5667 43.1684 87.3672 42.5863C87.1677 42.0042 86.978 41.4061 86.8273 40.7884C86.7897 40.6343 86.7541 40.4786 86.7219 40.3216C86.7058 40.2431 86.6901 40.1642 86.6756 40.0849L86.6343 39.8618L86.4691 38.974C86.2488 37.7898 86.024 36.6081 85.7949 35.4291C85.6795 34.8397 85.5617 34.2513 85.4417 33.6638C85.3819 33.3705 85.3205 33.0782 85.2574 32.7868L85.1616 32.3522L85.1124 32.1382L85.0876 32.0337L85.0649 31.9424L85.0525 31.8878L84.9224 31.3921C84.8745 31.2123 84.8252 31.0324 84.7745 30.8526C84.6737 30.4945 84.5692 30.1358 84.4609 29.7764C84.2453 29.0603 84.0156 28.3499 83.7718 27.6451C83.5281 26.9403 83.2672 26.2438 82.989 25.5556C82.8498 25.2123 82.7039 24.8723 82.5544 24.5356C82.4048 24.1989 82.2462 23.8676 82.0834 23.5404L81.9322 23.2376L82.0504 22.9195C82.1826 22.5642 82.2983 22.192 82.4052 21.8136C82.5122 21.4352 82.6069 21.0497 82.6944 20.661C82.8704 19.8839 83.0171 19.094 83.1447 18.2996C83.3988 16.7108 83.576 15.1033 83.6859 13.4938C83.7995 11.8883 83.8307 10.2781 83.7793 8.66943C83.7499 7.86922 83.6967 7.07232 83.6012 6.2874C83.5058 5.50248 83.3748 4.72747 83.1728 3.9946C83.0771 3.64031 82.956 3.29336 82.8105 2.95644C82.6655 2.63214 82.4937 2.33346 82.2995 2.11161C82.2755 2.08393 82.2512 2.05708 82.2264 2.03188L82.19 1.99511L82.1594 1.96702C82.1161 1.92916 82.0697 1.89502 82.0206 1.86498C81.9074 1.79701 81.7856 1.74462 81.6583 1.70924C81.3803 1.62909 81.0432 1.60059 80.6916 1.61339C80.3257 1.62919 79.9615 1.67408 79.6027 1.74766C79.2309 1.81995 78.8591 1.91703 78.4873 2.02858C77.7364 2.26008 77.0003 2.53682 76.2829 2.85729C75.5574 3.17704 74.8427 3.53191 74.1417 3.9128C73.4406 4.2937 72.752 4.70144 72.0802 5.13274C71.4085 5.56403 70.7529 6.0197 70.1237 6.50098C69.4998 6.97173 68.908 7.48362 68.3523 8.03323L67.9693 8.41867L67.4661 8.21211C66.9291 7.98944 66.3743 7.79238 65.8116 7.61433C65.6699 7.57302 65.5307 7.52386 65.3873 7.48379L64.9606 7.35985C64.6714 7.2826 64.3867 7.20452 64.0972 7.1347C62.9404 6.848 61.7606 6.62491 60.5733 6.4386C59.386 6.25228 58.1879 6.111 56.9874 6.00111C56.387 5.94603 55.7863 5.90045 55.1854 5.86437C54.8852 5.84564 54.5853 5.83008 54.2856 5.81768C54.1361 5.81135 53.9871 5.80598 53.8386 5.80157C53.6911 5.79785 53.5424 5.79414 53.4044 5.79414C53.2665 5.79414 53.1177 5.79785 52.9698 5.80199C52.822 5.80612 52.6728 5.8119 52.5229 5.8181C52.2238 5.83077 51.9238 5.84646 51.6231 5.86519C51.0224 5.90155 50.4217 5.94726 49.8211 6.00235C48.6206 6.11251 47.4254 6.25848 46.2356 6.44025C45.0487 6.62698 43.8689 6.85048 42.7122 7.13718C42.423 7.20741 42.1359 7.28549 41.8492 7.36274L41.422 7.48668C41.2791 7.52799 41.1394 7.57384 40.9981 7.61681C40.4355 7.79527 39.8827 7.99233 39.3457 8.215L38.8404 8.42445L38.4542 8.03364C37.8983 7.48442 37.3065 6.97281 36.6827 6.50222C36.0535 6.02094 35.3979 5.5661 34.7262 5.1348C34.0545 4.70351 33.3662 4.29659 32.6647 3.91528C31.9633 3.53398 31.249 3.17993 30.524 2.86101C29.8064 2.54161 29.0703 2.2657 28.3196 2.03477C27.9478 1.92323 27.576 1.82822 27.2071 1.75427C26.8485 1.68083 26.4846 1.63607 26.1189 1.62042C25.7686 1.60802 25.4319 1.63611 25.1551 1.71626C25.0285 1.75155 24.9072 1.80365 24.7944 1.87118C24.7459 1.90108 24.6999 1.93493 24.6569 1.97239L24.6267 2.00048L24.5904 2.03725C24.566 2.06204 24.5416 2.08889 24.5177 2.11616C24.3243 2.33759 24.1529 2.63545 24.0083 2.95933C23.8613 3.29829 23.7391 3.64746 23.6427 4.0041C23.4411 4.73656 23.3093 5.51198 23.2151 6.29566C23.1209 7.07934 23.0668 7.87707 23.0379 8.67686C22.9865 10.2851 23.018 11.895 23.1321 13.5C23.2424 15.1112 23.4212 16.7161 23.6741 18.305C23.8017 19.099 23.9496 19.8884 24.1256 20.6651C24.214 21.0534 24.3095 21.4385 24.4148 21.8169C24.5201 22.1953 24.6375 22.5671 24.7697 22.922L24.8899 23.245L24.7362 23.5536C24.5734 23.8805 24.4166 24.212 24.2657 24.548C24.1147 24.884 23.97 25.224 23.8315 25.568C23.553 26.2546 23.2925 26.9508 23.0499 27.6567C22.8072 28.3626 22.5777 29.073 22.3612 29.788C22.2535 30.146 22.1493 30.504 22.0485 30.8621C21.9981 31.0416 21.9488 31.2207 21.9006 31.3991L21.7708 31.8949L21.758 31.9506L21.7357 32.0419L21.7109 32.146L21.6618 32.36L21.5664 32.7942C21.5036 33.0851 21.4421 33.3774 21.3821 33.6713C21.262 34.2579 21.1446 34.8463 21.0297 35.4365C20.7992 36.6158 20.5749 37.7975 20.3568 38.9815L20.1915 39.8693L20.1502 40.0928C20.1353 40.1721 20.12 40.251 20.1035 40.3295C20.0713 40.4867 20.0362 40.6426 19.9982 40.7971C19.8474 41.4168 19.6594 42.0133 19.4582 42.5967C19.257 43.18 19.0397 43.7505 18.8464 44.3012C18.7981 44.4383 18.7522 44.5742 18.7113 44.7056C18.6704 44.837 18.6336 44.9651 18.6089 45.0774C18.5965 45.1332 18.587 45.1848 18.5824 45.2237C18.5779 45.2625 18.5799 45.286 18.5783 45.2699C18.5783 45.2865 18.5824 45.286 18.5783 45.2728C18.568 45.2515 18.554 45.2322 18.537 45.2158C18.5267 45.2052 18.5147 45.1964 18.5014 45.1898L18.5118 45.1935C18.5151 45.1935 18.5204 45.1935 18.5246 45.1968L18.5423 45.2005C18.6268 45.2125 18.7123 45.2145 18.7972 45.2063C19.0443 45.1808 19.2883 45.1308 19.5256 45.0572C19.7833 44.9812 20.0461 44.8862 20.3068 44.7808C20.4373 44.7279 20.5679 44.6726 20.6972 44.6156C20.7622 44.5866 20.8265 44.5572 20.8901 44.5272L20.9859 44.4817L21.033 44.459L21.059 44.4462C21.2326 44.3617 21.4305 44.3412 21.6177 44.3884C21.8049 44.4355 21.9695 44.5473 22.0823 44.704C22.2012 44.8684 22.2564 45.0704 22.2377 45.2724C22.2377 45.2956 22.2323 45.3174 22.2286 45.3402C22.2249 45.3629 22.217 45.3972 22.2183 45.3906L22.2145 45.4071L22.2063 45.4401L22.1897 45.5046C22.1679 45.5872 22.1439 45.6698 22.1195 45.7525C22.0704 45.9123 22.0175 46.0673 21.9621 46.2193C21.851 46.5233 21.7287 46.8166 21.5998 47.105C21.4759 47.3855 21.3519 47.6544 21.2388 47.9176C21.183 48.0486 21.1309 48.1775 21.0855 48.3014C21.0425 48.4162 21.006 48.5333 20.976 48.6521C20.9532 48.7374 20.9403 48.825 20.9376 48.9132C20.9364 48.9377 20.9395 48.9621 20.9467 48.9855C20.9499 48.9905 20.9538 48.9951 20.9582 48.9991C20.9736 49.0145 20.9905 49.0284 21.0086 49.0405C21.0789 49.082 21.1543 49.1142 21.233 49.1363C21.3383 49.167 21.4459 49.189 21.5548 49.202C21.6765 49.2177 21.799 49.2261 21.9216 49.2272C22.0485 49.2272 22.1782 49.2272 22.3095 49.2164C22.3748 49.2119 22.4409 49.2061 22.507 49.1991L22.5801 49.1921C22.6128 49.1888 22.645 49.1879 22.6772 49.1867C22.7406 49.1848 22.804 49.1861 22.8673 49.1908C23.0975 49.2095 23.3232 49.2654 23.5357 49.3561C23.719 49.4337 23.8944 49.5287 24.0595 49.6399C24.3492 49.8378 24.6187 50.0636 24.8643 50.3141C25.3344 50.7859 25.724 51.2833 26.0958 51.7712L24.9275 52.6936L24.0525 51.6195L25.1861 50.6611C25.1604 50.631 25.1321 50.6034 25.1014 50.5785L25.0812 50.562L25.1051 50.581C25.1367 50.6069 25.166 50.6355 25.1927 50.6665L25.2092 50.6847L25.227 50.7082C25.4881 51.0561 25.764 51.3948 26.0532 51.7265L25.8636 51.5712C25.9196 51.6035 25.9712 51.6427 26.0173 51.6881C26.0454 51.7158 26.0714 51.7457 26.0949 51.7774C26.1102 51.798 26.1181 51.8104 26.1148 51.8054C26.0978 51.7808 26.0794 51.7571 26.0598 51.7344L26.0669 51.7422L26.0809 51.7579L26.1086 51.7893L26.1639 51.8517C26.2011 51.893 26.2375 51.9343 26.2751 51.9756C26.3507 52.0583 26.4246 52.1409 26.5015 52.2235C26.5783 52.3061 26.6535 52.3888 26.732 52.4664C26.8105 52.5441 26.8869 52.6267 26.9662 52.7052C27.2818 53.0211 27.6074 53.3271 27.9428 53.6232C28.2783 53.9192 28.6225 54.2043 28.9756 54.4783C29.0632 54.5477 29.1537 54.6142 29.2425 54.6824L29.5077 54.8795L29.7787 55.067C29.8696 55.129 29.9642 55.1909 30.0567 55.2525C30.8067 55.7436 31.5851 56.1897 32.388 56.5885C33.1955 56.9882 34.0228 57.3467 34.8667 57.6626L33.8888 58.3418V58.3277V57.2991L34.8629 57.6482L35.0571 57.7176L35.2575 57.7874L35.6615 57.9245C35.9321 58.0142 36.2039 58.103 36.4766 58.1881C37.0223 58.36 37.5709 58.524 38.1212 58.6838C38.6715 58.8437 39.2234 58.999 39.7774 59.1474C40.0533 59.2242 40.3314 59.2953 40.6082 59.3696L41.4344 59.584L41.4811 59.5956L41.5327 59.6076L41.6372 59.6319L41.8471 59.6803L42.2676 59.7769L43.1104 59.9682L44.7984 60.345C45.9245 60.5929 47.0524 60.8329 48.1814 61.0758C48.2679 61.0943 48.3443 61.1448 48.3953 61.2171C48.4463 61.2894 48.4682 61.3782 48.4567 61.466C48.4451 61.5537 48.4009 61.6338 48.3329 61.6905C48.2649 61.7471 48.1781 61.776 48.0897 61.7715C46.9218 61.7128 45.7605 61.5893 44.6051 61.4381C44.0267 61.3618 43.45 61.2781 42.8749 61.1869C42.5874 61.1415 42.2999 61.094 42.0123 61.0444L41.5815 60.9688L41.3658 60.93L41.2576 60.9097L41.203 60.8998L41.1435 60.8878C40.8544 60.8267 40.5652 60.7668 40.281 60.7019C39.9967 60.6371 39.71 60.573 39.4262 60.5028C38.8569 60.3669 38.291 60.2177 37.7267 60.0628C37.1623 59.9079 36.6009 59.7402 36.0407 59.5671C35.7606 59.4803 35.4811 59.3907 35.2021 59.2981L34.7828 59.1573L34.5725 59.0846L34.3577 59.0081L35.3335 58.3282V58.3422V59.3857L34.3643 59.0164C33.4731 58.6858 32.5992 58.3102 31.746 57.8911C30.8897 57.4687 30.0592 56.9958 29.259 56.4749C29.159 56.4084 29.0595 56.3439 28.9595 56.2758L28.6592 56.0692L28.3667 55.8536C28.2717 55.7813 28.1754 55.7102 28.0816 55.6367C27.7035 55.3445 27.3343 55.0415 26.9741 54.7278C26.6138 54.4141 26.2643 54.0875 25.9256 53.7479C25.8402 53.6636 25.756 53.5784 25.6731 53.4922C25.5905 53.4067 25.5079 53.3191 25.4253 53.2323C25.3427 53.1456 25.2629 53.056 25.1815 52.968L25.0613 52.8341L25.0014 52.7668L24.9717 52.7333L24.9564 52.7164L24.949 52.7081C24.9284 52.6841 24.9091 52.659 24.8911 52.6329C24.887 52.6263 24.8936 52.6371 24.9081 52.6565C24.9302 52.6869 24.955 52.7154 24.982 52.7416C25.0265 52.7858 25.0766 52.824 25.1311 52.8552L24.9419 52.6998C24.6317 52.3458 24.3305 51.9802 24.0438 51.6005L24.0777 51.6418C24.1029 51.6716 24.1305 51.6993 24.1603 51.7245L24.181 51.741L24.1566 51.7216C24.1252 51.6956 24.0959 51.6671 24.069 51.6365L25.2026 50.6781L26.0809 51.7493L24.9126 52.6718C24.7325 52.4363 24.5536 52.2074 24.3706 51.9885C24.1876 51.7695 24.0017 51.5601 23.8104 51.3688C23.6339 51.1885 23.4402 51.026 23.232 50.8834C23.147 50.8258 23.0567 50.7765 22.9623 50.7363C22.8976 50.7075 22.8287 50.6894 22.7582 50.6826C22.7462 50.682 22.7342 50.682 22.7223 50.6826C22.7169 50.6826 22.7115 50.6826 22.7066 50.6826H22.6983L22.6669 50.6859C22.5843 50.695 22.4996 50.7028 22.4145 50.709C22.2455 50.721 22.0737 50.7268 21.8993 50.7247C21.7206 50.7228 21.5421 50.7108 21.3648 50.6888C21.1744 50.6658 20.9862 50.6272 20.8021 50.5735C20.5906 50.5126 20.3885 50.4229 20.2014 50.3071C20.092 50.238 19.9904 50.1574 19.8982 50.0666C19.7947 49.9655 19.7059 49.8502 19.6346 49.7242C19.4993 49.4806 19.4283 49.2067 19.4281 48.9281C19.4283 48.7147 19.4546 48.5022 19.5066 48.2952C19.5496 48.1217 19.6021 47.9507 19.664 47.7829C19.7214 47.6235 19.7825 47.4731 19.8441 47.3285C19.968 47.0364 20.0948 46.758 20.2159 46.4882C20.3324 46.2259 20.441 45.9623 20.536 45.7C20.5836 45.569 20.6273 45.4385 20.6662 45.3104C20.6856 45.2464 20.7038 45.1832 20.7195 45.122L20.7306 45.077L20.736 45.0551L20.7389 45.0444C20.7414 45.0332 20.7327 45.0683 20.731 45.0807C20.7294 45.0931 20.7261 45.1158 20.724 45.1344C20.7091 45.2987 20.7543 45.4628 20.8512 45.5963C20.9086 45.6753 20.9819 45.7413 21.0665 45.79C21.1673 45.8478 21.2808 45.8798 21.397 45.8834C21.5102 45.8867 21.6224 45.8625 21.7242 45.8128L21.6994 45.8248L21.6453 45.8512L21.5366 45.9032C21.4645 45.9377 21.392 45.9711 21.3193 46.0036C21.1739 46.0692 21.027 46.1322 20.8785 46.1928C20.5811 46.3139 20.277 46.4258 19.9569 46.5233C19.6181 46.6284 19.2696 46.6986 18.9166 46.7328C18.7011 46.7523 18.484 46.7442 18.2705 46.7088C18.1359 46.6854 18.0045 46.6459 17.8793 46.5911C17.7275 46.5244 17.5888 46.4314 17.4695 46.3164C17.3441 46.1948 17.2438 46.0498 17.1741 45.8896C17.1148 45.7516 17.0759 45.6058 17.0584 45.4567C17.0436 45.3222 17.0447 45.1864 17.0617 45.0522C17.0736 44.9519 17.0906 44.8522 17.1125 44.7535C17.1539 44.5718 17.1997 44.4098 17.248 44.2537C17.2964 44.0975 17.3468 43.9475 17.398 43.7992C17.6046 43.2126 17.8144 42.6574 18.0045 42.0997C18.1945 41.542 18.3668 40.9896 18.5002 40.4365C18.5332 40.2988 18.564 40.1611 18.5923 40.0233C18.6064 39.9544 18.62 39.8858 18.6336 39.8168L18.6749 39.5954L18.8373 38.7051C19.0554 37.5178 19.2781 36.3309 19.5053 35.1444C19.6199 34.5509 19.7372 33.9571 19.8573 33.3631C19.9176 33.0659 19.9794 32.7685 20.0428 32.4707L20.1403 32.0221L20.1944 31.792L20.2212 31.6763L20.2531 31.5483L20.2402 31.604L20.2522 31.5503L20.2572 31.5297L20.2667 31.4917L20.2845 31.4198L20.3208 31.2785L20.3939 30.9984C20.4435 30.8121 20.4939 30.6266 20.5455 30.4419C20.6483 30.0718 20.7546 29.703 20.8645 29.3356C21.0848 28.6003 21.3189 27.869 21.5668 27.1419C21.8146 26.4149 22.0836 25.6919 22.3728 24.9743C22.5173 24.6163 22.6688 24.2591 22.8272 23.9027C22.9855 23.5463 23.1519 23.1931 23.3262 22.8431L23.2928 23.4747C23.1383 23.0616 23.0098 22.653 22.8937 22.2436C22.7776 21.8342 22.6756 21.4252 22.5814 21.0158C22.3938 20.1975 22.2397 19.3774 22.1063 18.5557C21.8411 16.9128 21.6572 15.2632 21.5416 13.607C21.4214 11.9467 21.3868 10.2813 21.4379 8.61738C21.4676 7.78164 21.523 6.94425 21.6221 6.10356C21.7213 5.26287 21.8621 4.4197 22.0939 3.57322C22.2106 3.13942 22.3592 2.71483 22.5384 2.30289C22.728 1.88109 22.9586 1.456 23.3019 1.05734C23.3432 1.00735 23.3899 0.958602 23.4365 0.910268L23.5084 0.838386L23.591 0.76196C23.7017 0.664269 23.8204 0.576099 23.9459 0.498391C24.1833 0.352868 24.4395 0.240426 24.7073 0.164179C25.2183 0.017522 25.7087 -0.0105684 26.1743 0.00306443C26.6266 0.0209883 27.0769 0.0751416 27.5206 0.165006C27.9544 0.247629 28.3753 0.358757 28.7881 0.481866C29.6022 0.731406 30.4005 1.0298 31.1788 1.37544C31.9517 1.71543 32.7044 2.0893 33.4414 2.49085C34.1784 2.8924 34.8993 3.31709 35.6049 3.77152C36.3105 4.22594 37.0008 4.70268 37.6705 5.21742C38.354 5.73127 39.0022 6.29037 39.6109 6.89096L38.7206 6.71291C39.3118 6.46752 39.9096 6.25517 40.5111 6.06431C40.6614 6.01804 40.8114 5.96765 40.9626 5.92551L41.417 5.79414C41.7198 5.71151 42.0222 5.62889 42.3259 5.55659C43.5405 5.25543 44.7633 5.02367 45.989 4.83033C47.2147 4.637 48.4446 4.49199 49.6769 4.3788C50.293 4.32234 50.91 4.27511 51.5281 4.2371C51.8375 4.2181 52.1477 4.20198 52.458 4.18877C52.6133 4.18174 52.7695 4.17637 52.9265 4.17141C53.0835 4.16646 53.2409 4.16315 53.4082 4.16315C53.5755 4.16315 53.732 4.16728 53.8894 4.17183C54.0468 4.17637 54.2026 4.18216 54.3579 4.18918C54.6691 4.2024 54.9791 4.21865 55.2878 4.23793C55.9061 4.27593 56.5232 4.3233 57.139 4.38004C58.3712 4.49323 59.6004 4.64402 60.8265 4.8324C62.0522 5.02574 63.275 5.25791 64.4896 5.55949C64.7933 5.63302 65.0961 5.71564 65.3985 5.79703L65.8529 5.9284C66.0041 5.96971 66.1541 6.02135 66.3044 6.06762C66.9055 6.25848 67.5025 6.47082 68.0945 6.71621L67.2071 6.89344C67.8152 6.29183 68.4629 5.73163 69.1459 5.2166C69.8168 4.70392 70.5091 4.22512 71.2114 3.77317C71.9137 3.32122 72.6383 2.89447 73.3753 2.49457C74.1123 2.09468 74.865 1.72122 75.6376 1.38205C76.4157 1.03678 77.2139 0.738789 78.0279 0.489715C78.441 0.36578 78.8611 0.257131 79.2949 0.172855C79.7383 0.0833329 80.1881 0.0293198 80.64 0.0113273C81.1052 -0.00230559 81.5947 0.026198 82.1045 0.172441C82.3716 0.248512 82.6271 0.360676 82.8638 0.505827C82.9889 0.583295 83.1072 0.671188 83.2174 0.768569L83.3001 0.844583L83.3715 0.916465C83.4186 0.9648 83.4632 1.01355 83.5062 1.06312C83.8487 1.46095 84.0788 1.88605 84.268 2.30702C84.4465 2.71866 84.5947 3.14283 84.7113 3.57611C84.9422 4.42218 85.0831 5.26535 85.1818 6.10563C85.2806 6.94591 85.3363 7.78329 85.3657 8.61862C85.4163 10.2821 85.3814 11.9471 85.2611 13.607C85.145 15.2628 84.9608 16.9119 84.6952 18.5549C84.5617 19.3762 84.406 20.1958 84.2193 21.0138C84.1251 21.4232 84.0226 21.8322 83.9065 22.2411C83.7904 22.6501 83.662 23.0591 83.5079 23.4706L83.4752 22.8509C83.6493 23.2021 83.8154 23.5553 83.9734 23.9105C84.1315 24.2658 84.283 24.6229 84.4279 24.9818C84.7171 25.6989 84.9831 26.4219 85.2326 27.149C85.4822 27.8761 85.716 28.6073 85.9349 29.3422C86.0451 29.7093 86.1514 30.078 86.2539 30.4481C86.3051 30.6332 86.3555 30.8199 86.4046 31.0046L86.4782 31.2847L86.5141 31.426L86.5319 31.4979L86.5414 31.5355L86.5463 31.5561L86.5579 31.609L86.5455 31.5545L86.5769 31.6821L86.6042 31.7978L86.6554 32.0246L86.7529 32.4732C86.8165 32.7712 86.8782 33.0687 86.938 33.3656C87.0586 33.9596 87.1757 34.5533 87.2891 35.1465C87.518 36.3335 87.7404 37.5204 87.9563 38.7072L88.1182 39.5978L88.1596 39.8189C88.1724 39.8878 88.1856 39.9568 88.2009 40.0254C88.2284 40.1631 88.2593 40.3008 88.2934 40.4385C88.4268 40.9925 88.5987 41.5469 88.7891 42.1034C88.9796 42.6599 89.1903 43.2188 89.3952 43.8034C89.446 43.9504 89.4964 44.1004 89.5447 44.2578C89.5931 44.4152 89.6398 44.5751 89.6794 44.7535C89.7013 44.8516 89.7183 44.9508 89.7302 45.0506C89.7468 45.1832 89.7478 45.3172 89.7331 45.4501C89.7161 45.5972 89.6777 45.7411 89.6191 45.8772C89.5511 46.0348 89.4528 46.1775 89.3299 46.2974C89.2124 46.4106 89.0757 46.5022 88.9263 46.568C88.8027 46.622 88.673 46.661 88.54 46.684C88.3283 46.719 88.113 46.7271 87.8993 46.708C87.5477 46.6738 87.2005 46.6038 86.8632 46.499C86.5439 46.4039 86.2402 46.2924 85.9432 46.1714C85.7949 46.111 85.6486 46.0474 85.5032 45.9826C85.4305 45.9501 85.3582 45.9166 85.2863 45.8822L85.1777 45.8305L85.1236 45.8041L85.0988 45.7917C85.2422 45.862 85.4058 45.8795 85.5608 45.8411C85.7159 45.8027 85.8524 45.7109 85.9465 45.5818C86.0405 45.4526 86.0846 45.2936 86.0704 45.1344C86.0704 45.1163 86.0667 45.0997 86.0634 45.0824C86.0601 45.065 86.0535 45.0361 86.0564 45.0469L86.0589 45.058L86.0642 45.0799L86.0754 45.1253C86.0915 45.1865 86.1097 45.2493 86.1291 45.3141C86.1679 45.4426 86.2117 45.5736 86.2596 45.7049C86.3551 45.9677 86.4637 46.2321 86.5802 46.4944C86.7 46.7646 86.8281 47.043 86.952 47.3347C87.0136 47.4809 87.076 47.6313 87.1317 47.7891C87.1933 47.9562 87.2456 48.1265 87.2883 48.2993C87.34 48.5045 87.3662 48.7153 87.3664 48.9268C87.3665 49.2014 87.297 49.4714 87.1644 49.7118C87.0937 49.8361 87.0061 49.9499 86.9041 50.0501C86.8128 50.1397 86.7123 50.2193 86.6042 50.2877C86.4188 50.4024 86.2184 50.4911 86.0089 50.5512C85.8259 50.605 85.6388 50.6434 85.4495 50.6661C85.273 50.6881 85.0953 50.7001 84.9174 50.702C84.7435 50.7041 84.5725 50.6983 84.4035 50.6859C84.3209 50.6801 84.2354 50.6723 84.1519 50.6632L84.1209 50.6599H84.1036C84.0982 50.6599 84.092 50.6599 84.0866 50.6599C84.074 50.6591 84.0613 50.6591 84.0486 50.6599C83.9759 50.6669 83.9048 50.6854 83.8379 50.7148C83.7424 50.7558 83.651 50.8057 83.5649 50.864C83.3559 51.0075 83.1613 51.171 82.984 51.3523C82.7923 51.5423 82.6056 51.7522 82.4226 51.9719C82.2396 52.1917 82.0603 52.4206 81.8802 52.6561L80.7441 51.7592L81.6224 50.6876L82.7246 51.6195C82.6984 51.6494 82.6698 51.677 82.6391 51.7022L82.6155 51.7208L82.6358 51.7051C82.6653 51.6805 82.6929 51.6537 82.7184 51.6249L82.7514 51.5836C82.4647 51.9628 82.164 52.3272 81.8542 52.6817L81.6699 52.8329C81.7228 52.8024 81.7717 52.7653 81.8153 52.7226C81.8412 52.6967 81.8652 52.6691 81.8872 52.6399C81.9008 52.6209 81.9074 52.6106 81.9033 52.6168C81.8859 52.6422 81.8671 52.6666 81.8471 52.6899L81.8397 52.6986L81.8244 52.7151L81.7947 52.749L81.7348 52.8159L81.615 52.9498C81.5323 53.0378 81.4539 53.127 81.3712 53.2138C81.2886 53.3005 81.206 53.3881 81.1234 53.4732C81.0407 53.5583 80.9581 53.6446 80.8714 53.7285C80.532 54.0664 80.1827 54.3929 79.8233 54.708C79.4639 55.0231 79.0951 55.326 78.717 55.6169C78.6232 55.6904 78.5273 55.761 78.4323 55.8333L78.1398 56.049L77.8403 56.2555C77.7403 56.3237 77.6408 56.3881 77.5408 56.4542C76.7414 56.975 75.9117 57.4475 75.0559 57.8692C74.2034 58.2882 73.3302 58.6637 72.4396 58.9941L71.4895 59.3485V58.3343V58.3203L72.4396 58.9813L72.2252 59.0577L72.0149 59.13L71.5961 59.2709C71.3168 59.3631 71.0374 59.4528 70.7578 59.5398C70.1976 59.7133 69.6355 59.8779 69.0715 60.0335C68.5072 60.1876 67.9408 60.3355 67.3719 60.471C67.0877 60.5408 66.8027 60.6048 66.5172 60.6697C66.2317 60.7346 65.9425 60.7936 65.6554 60.856C65.6385 60.8597 65.6162 60.8639 65.5959 60.8676L65.5414 60.8779L65.4336 60.8977L65.2179 60.939L64.7871 61.0151C64.4999 61.0655 64.2124 61.1117 63.9249 61.1584C63.6374 61.2051 63.3494 61.2493 63.0615 61.2919C62.7735 61.3344 62.4852 61.3745 62.1964 61.4158C61.0397 61.5711 59.8829 61.6996 58.7146 61.7682C58.6263 61.7727 58.5394 61.7438 58.4714 61.6872C58.4034 61.6305 58.3592 61.5504 58.3477 61.4627C58.3361 61.3749 58.358 61.2861 58.409 61.2138C58.46 61.1414 58.5364 61.091 58.6229 61.0725L58.6234 61.0721Z" fill="#000072"/>
    <path d="M35.1629 48.7232C36.9902 48.7232 38.4716 48.012 38.4716 47.1347C38.4716 46.2575 36.9902 45.5463 35.1629 45.5463C33.3356 45.5463 31.8542 46.2575 31.8542 47.1347C31.8542 48.012 33.3356 48.7232 35.1629 48.7232Z" fill="#F27E80"/>
    <path d="M71.6497 48.7232C73.477 48.7232 74.9584 48.012 74.9584 47.1347C74.9584 46.2575 73.477 45.5463 71.6497 45.5463C69.8224 45.5463 68.3411 46.2575 68.3411 47.1347C68.3411 48.012 69.8224 48.7232 71.6497 48.7232Z" fill="#F27E80"/>
    <path d="M58.3664 44.6668C58.3664 44.6668 57.4989 46.9451 55.4651 46.4192C53.1516 45.8206 53.4284 43.0606 53.4284 43.0606" fill="white"/>
    <path d="M48.4049 44.6668C48.4049 44.6668 49.2725 46.9451 51.3062 46.4192C53.6197 45.8206 53.3425 43.0606 53.3425 43.0606" fill="white"/>
    <path d="M58.6939 44.7919L58.672 44.8675L58.6497 44.9353C58.6349 44.9799 58.6196 45.0237 58.6026 45.0667C58.5692 45.153 58.5324 45.2373 58.4932 45.3211C58.4126 45.4895 58.3191 45.6514 58.2135 45.8053C57.9942 46.1324 57.7128 46.4131 57.3852 46.6316C57.0333 46.8624 56.6281 46.9993 56.2082 47.029C56.0011 47.0414 55.7932 47.0306 55.5885 46.9968C55.5373 46.9906 55.4894 46.9773 55.4398 46.9674C55.3902 46.9575 55.3402 46.9472 55.294 46.9319L55.1527 46.8906L55.0821 46.8691L55.0122 46.8427L54.8726 46.789C54.8263 46.7704 54.7817 46.7476 54.7363 46.7253C54.6908 46.703 54.645 46.684 54.6012 46.6568L54.4698 46.5807C54.2962 46.4741 54.1348 46.3487 53.9885 46.2069C53.916 46.1366 53.8471 46.0627 53.782 45.9854C53.72 45.9057 53.6556 45.8276 53.6019 45.7438C53.5481 45.6599 53.4969 45.5752 53.4473 45.4897C53.3978 45.4042 53.3577 45.315 53.3234 45.2249C53.1768 44.8766 53.084 44.508 53.0483 44.1318C53.0297 43.9498 53.0228 43.7668 53.0276 43.584C53.0276 43.4931 53.0351 43.4022 53.0429 43.3113C53.0474 43.2659 53.0524 43.22 53.0586 43.1742L53.0681 43.1048L53.0809 43.0283C53.0944 42.9462 53.1368 42.8717 53.2005 42.8181C53.2642 42.7645 53.3449 42.7355 53.4281 42.7362C53.5113 42.737 53.5915 42.7674 53.6542 42.8222C53.7169 42.8769 53.758 42.9522 53.77 43.0345L53.7795 43.0986C53.7795 43.1085 53.7795 43.13 53.7828 43.1473L53.7865 43.2027C53.7894 43.2399 53.7931 43.2779 53.7968 43.3159C53.8051 43.3919 53.8121 43.4679 53.8241 43.5435C53.8472 43.6947 53.8725 43.8447 53.9092 43.9905C53.9753 44.2745 54.0767 44.549 54.2112 44.8076C54.243 44.87 54.2802 44.9283 54.3153 44.9874C54.3504 45.0464 54.3905 45.1014 54.4335 45.1526C54.4764 45.2038 54.519 45.255 54.5615 45.3054C54.6041 45.3558 54.6532 45.4001 54.7036 45.441C54.9023 45.6142 55.1326 45.7472 55.382 45.8326L55.4291 45.8508L55.4786 45.8648L55.577 45.8937C55.61 45.9049 55.6422 45.9082 55.6745 45.9165C55.7067 45.9247 55.7393 45.9334 55.7711 45.9367L55.867 45.9512C55.8992 45.9573 55.9302 45.9561 55.962 45.9594C56.0252 45.9664 56.0859 45.9631 56.1491 45.9644C56.3989 45.9536 56.6429 45.8857 56.8622 45.7657C57.1039 45.6303 57.3221 45.4568 57.5083 45.2517C57.609 45.1428 57.7039 45.0286 57.7925 44.9097C57.8375 44.8494 57.8817 44.7858 57.9231 44.725C57.9441 44.694 57.9644 44.6626 57.985 44.6312L58.0144 44.5846C58.0234 44.5705 58.0342 44.5519 58.04 44.5433L58.0945 44.4767C58.145 44.4146 58.2155 44.3718 58.2939 44.3558C58.3724 44.3397 58.454 44.3513 58.5249 44.3886C58.5958 44.4259 58.6515 44.4865 58.6827 44.5603C58.7139 44.6341 58.7186 44.7164 58.696 44.7932L58.6939 44.7919Z" fill="#000072"/>
    <path d="M48.7325 44.542C48.7387 44.549 48.7495 44.5676 48.7586 44.5833L48.7879 44.63C48.8077 44.6614 48.8292 44.6928 48.8499 44.7238C48.8912 44.7866 48.935 44.8477 48.9804 44.9085C49.0691 45.0274 49.1639 45.1416 49.2646 45.2505C49.4509 45.4556 49.6691 45.6291 49.9107 45.7644C50.13 45.8845 50.374 45.9525 50.6238 45.9631C50.6862 45.9631 50.7477 45.9631 50.8109 45.9582C50.8427 45.9549 50.8737 45.9582 50.906 45.9499L51.0018 45.9355C51.0336 45.9322 51.0662 45.9214 51.0985 45.9152C51.1307 45.909 51.1629 45.9037 51.1955 45.8925L51.2943 45.8636L51.3434 45.8495L51.3905 45.8314C51.64 45.7462 51.8704 45.6131 52.0689 45.4397C52.1197 45.3984 52.1635 45.3497 52.2114 45.3042C52.2593 45.2588 52.3002 45.2063 52.3395 45.1514C52.3787 45.0964 52.4184 45.0423 52.4576 44.9861C52.4969 44.9299 52.5299 44.8688 52.5617 44.8064C52.696 44.5477 52.7975 44.2732 52.8637 43.9893C52.9005 43.8434 52.9257 43.6935 52.9488 43.5423C52.9608 43.4667 52.9678 43.3907 52.9761 43.3147C52.9798 43.2767 52.9835 43.2386 52.986 43.2015L52.9897 43.1461C52.9897 43.1288 52.9922 43.1073 52.9934 43.0974L53.0029 43.0337C53.0149 42.9514 53.0559 42.876 53.1186 42.8213C53.1812 42.7665 53.2614 42.736 53.3446 42.7352C53.4278 42.7344 53.5086 42.7634 53.5723 42.8169C53.636 42.8705 53.6785 42.945 53.692 43.0271L53.7048 43.1036L53.7143 43.173C53.7201 43.2188 53.7255 43.2647 53.73 43.3101C53.7379 43.401 53.7432 43.4919 53.7453 43.5828C53.7502 43.7656 53.7432 43.9486 53.7242 44.1306C53.6889 44.5068 53.5962 44.8754 53.4495 45.2237C53.4136 45.3137 53.3669 45.4009 53.3235 45.4885C53.2801 45.5761 53.2268 45.6603 53.1694 45.7425C53.112 45.8248 53.0513 45.9045 52.9893 45.9842C52.9242 46.0615 52.8553 46.1354 52.7827 46.2056C52.6364 46.3476 52.4749 46.473 52.301 46.5795L52.1697 46.6555C52.1284 46.6824 52.08 46.7014 52.035 46.7241C51.99 46.7468 51.9449 46.7691 51.8987 46.7877L51.759 46.8414L51.6892 46.8679L51.6186 46.8894L51.4773 46.9307C51.431 46.946 51.3798 46.9542 51.3315 46.9662C51.2831 46.9782 51.234 46.9893 51.1827 46.9955C50.978 47.0294 50.7702 47.0402 50.5631 47.0278C50.1432 46.9981 49.738 46.8613 49.3861 46.6303C49.0585 46.4118 48.7769 46.1311 48.5574 45.8041C48.4519 45.6502 48.3586 45.4883 48.2781 45.3199C48.2368 45.2373 48.2021 45.1518 48.1682 45.0654C48.1517 45.0241 48.1364 44.9787 48.1215 44.9341L48.0992 44.8663L48.0773 44.7907C48.0551 44.714 48.06 44.6319 48.0912 44.5583C48.1225 44.4848 48.1782 44.4243 48.2489 44.387C48.3196 44.3498 48.401 44.3381 48.4793 44.3539C48.5577 44.3697 48.6281 44.4121 48.6788 44.4739L48.7325 44.542Z" fill="#000072"/>
    <path d="M50.5999 41.6143C50.5999 42.267 51.4513 42.8437 52.2333 43.2357C52.6282 43.4378 53.0654 43.5431 53.509 43.5431C53.9526 43.5431 54.3898 43.4378 54.7847 43.2357C55.5663 42.8437 56.4182 42.267 56.4182 41.6143C56.4161 39.6449 50.5999 39.6449 50.5999 41.6143Z" fill="#000072"/>
    <g opacity="0.5">
        <path opacity="0.5" d="M52.353 41.228C52.353 41.416 52.691 41.5824 53.0008 41.6952C53.3277 41.8135 53.6856 41.8135 54.0125 41.6952C54.3224 41.5824 54.6603 41.416 54.6603 41.228C54.6603 40.66 52.353 40.66 52.353 41.228Z" fill="white"/>
    </g>
    <path d="M78.5819 77.1109C80.2756 77.2204 84.0788 76.9998 86.0593 72.8397C88.0398 68.6796 85.1578 60.5449 81.3861 59.5245C80.8395 59.3766 79.8229 59.6187 79.5176 60.4652C78.9161 62.1338 80.5132 64.8174 80.5132 64.8174C80.5132 64.8174 74.6688 66.4889 74.682 70.3143C74.6907 72.8587 75.1274 76.8887 78.5819 77.1109Z" fill="white"/>
    <g opacity="0.2">
        <path opacity="0.2" d="M86.0605 72.8393C84.0776 77.0002 80.2769 77.2212 78.5831 77.1105C75.1294 76.8878 74.6928 72.8587 74.6837 70.3143C74.6816 70.0251 74.7153 69.7368 74.7841 69.4559C75.0386 71.7425 76.2601 72.9868 78.9309 73.2979C81.068 73.5457 84.815 73.05 86.0622 70.1169C86.3344 69.4913 86.5221 68.8322 86.6203 68.157C86.8206 69.8772 86.6748 71.5495 86.0605 72.8393Z" fill="#000072"/>
    </g>
    <path d="M79.1764 77.8326C78.9454 77.8326 78.731 77.8244 78.5369 77.812C76.7505 77.6967 75.4195 76.6705 74.6883 74.8446C74.2181 73.6709 73.986 72.1899 73.9798 70.3168C73.9682 66.902 77.7974 65.0673 79.5155 64.4171C79.3916 64.1589 79.2582 63.849 79.133 63.5082C78.6443 62.1817 78.5517 61.0774 78.8591 60.2256C79.0628 59.66 79.5023 59.2143 80.0984 58.9705C80.581 58.7731 81.1312 58.726 81.5729 58.8466C83.2571 59.301 84.8778 60.9894 86.0209 63.4735C86.7319 65.0202 87.2061 66.7809 87.3561 68.4309C87.5213 70.2577 87.2941 71.8862 86.6951 73.1404C85.7569 75.111 84.337 76.4867 82.4747 77.2278C81.2775 77.705 80.0964 77.8326 79.1764 77.8326ZM78.6269 76.4111C80.4223 76.5268 83.693 76.1777 85.426 72.5385C86.389 70.5167 86.1076 67.0305 84.7419 64.0606C83.7884 61.9863 82.4652 60.5441 81.2027 60.202C80.9796 60.1417 80.3442 60.2434 80.1778 60.7032C79.7808 61.8054 80.747 63.835 81.1168 64.4588L81.5807 65.2437L80.7061 65.4945C80.6537 65.5094 75.3728 67.0676 75.3839 70.3139C75.3897 71.9829 75.5938 73.3325 75.9912 74.3244C76.5221 75.6497 77.3843 76.333 78.6269 76.4132V76.4111Z" fill="#000072"/>
    <path d="M38.3066 78.618C38.3066 78.618 44.6608 81.1347 45.3379 87.3558C46.2819 96.0267 39.0093 100.92 39.0093 100.92" fill="white"/>
    <path d="M38.436 78.2916L38.5488 78.328C38.5848 78.34 38.6203 78.3528 38.6554 78.3652C38.726 78.3904 38.7954 78.4168 38.8648 78.4432C39.0041 78.4957 39.1396 78.5544 39.278 78.6126C39.5494 78.7299 39.815 78.8605 40.0761 78.9985C40.6012 79.2753 41.1065 79.5881 41.5885 79.9346C42.5714 80.6337 43.4389 81.4822 44.1598 82.4492C44.2535 82.569 44.3374 82.6971 44.4229 82.821C44.4642 82.8842 44.5088 82.947 44.5506 83.0111L44.6695 83.2065L44.7885 83.4027L44.8183 83.4514L44.8459 83.5023L44.9005 83.6031L45.0087 83.8059C45.0447 83.8732 45.0814 83.9406 45.1124 84.0125L45.3074 84.4297L45.4797 84.8573C45.4937 84.8932 45.509 84.9283 45.521 84.9647L45.5582 85.0738L45.6321 85.2923C45.6565 85.3654 45.6821 85.4381 45.7052 85.5113L45.7664 85.7339L45.8271 85.9566L45.8577 86.0681L45.8816 86.1809L45.9771 86.6329C46.0031 86.7845 46.0237 86.9369 46.0469 87.0873C46.0572 87.1629 46.0713 87.2401 46.0787 87.3145L46.1022 87.5384C46.1634 88.1372 46.1866 88.7392 46.1716 89.3408C46.1554 89.944 46.1019 90.5455 46.0114 91.142C45.9911 91.2916 45.9618 91.4399 45.9366 91.5886C45.9114 91.7373 45.8783 91.8848 45.8469 92.0323C45.8155 92.1798 45.7812 92.3269 45.7416 92.4727L45.6846 92.6916L45.6226 92.9093C45.2866 94.0663 44.8113 95.1781 44.2073 96.2205C44.0581 96.4807 43.9003 96.7356 43.7367 96.9864C43.5731 97.2372 43.4033 97.4821 43.2274 97.7242C42.8744 98.2053 42.4967 98.6678 42.0958 99.1098C41.6965 99.5522 41.2741 99.9732 40.8305 100.371C40.7202 100.471 40.6074 100.569 40.4938 100.666C40.3802 100.763 40.2641 100.857 40.1467 100.951C40.0294 101.044 39.9104 101.136 39.789 101.227C39.7283 101.272 39.665 101.317 39.6039 101.362L39.5085 101.429L39.4023 101.501C39.2503 101.597 39.0672 101.632 38.8907 101.597C38.7141 101.562 38.5577 101.461 38.4535 101.314C38.3494 101.168 38.3056 100.986 38.3311 100.808C38.3566 100.63 38.4494 100.469 38.5905 100.357L38.6186 100.336L38.688 100.285L38.7653 100.226C38.8177 100.185 38.8702 100.143 38.9223 100.102C39.0266 100.018 39.1305 99.9315 39.2338 99.8431C39.4395 99.666 39.6418 99.4836 39.8406 99.2957C40.2376 98.9202 40.6156 98.5236 40.9763 98.1126C41.3369 97.7015 41.6753 97.2723 41.9917 96.8286C42.1508 96.6072 42.3045 96.3824 42.4507 96.1531C42.5969 95.9239 42.7399 95.6917 42.8717 95.4554C42.9398 95.3381 43.003 95.2178 43.0683 95.0989C43.1336 94.9799 43.1922 94.8588 43.253 94.737C43.3769 94.4957 43.4876 94.2491 43.5959 94.0012C44.022 93.0089 44.3262 91.9685 44.5018 90.9028C44.5889 90.3705 44.6429 89.8332 44.6634 89.2942C44.6801 88.7533 44.6664 88.212 44.622 87.6727L44.6051 87.4703C44.5997 87.4025 44.589 87.3389 44.5811 87.2728C44.5638 87.1422 44.5493 87.0109 44.5299 86.8807L44.456 86.4924L44.4378 86.3953L44.4134 86.2995L44.3655 86.1082L44.3172 85.9165C44.299 85.8533 44.2758 85.7926 44.2585 85.7277L44.199 85.5393L44.1697 85.4447C44.1593 85.4133 44.1465 85.3832 44.135 85.3522L43.9953 84.9804L43.8346 84.6181C43.8094 84.5569 43.7789 84.4983 43.7487 84.4392L43.6587 84.262L43.6145 84.1732L43.5921 84.1286L43.5674 84.0872L43.4694 83.9137L43.3711 83.7402C43.3368 83.6832 43.3005 83.6274 43.265 83.5708C43.1927 83.4589 43.1261 83.3432 43.0477 83.235C42.4495 82.3488 41.7092 81.5449 40.8809 80.8282C40.4677 80.4692 40.029 80.1337 39.5775 79.814C39.3503 79.6561 39.1189 79.5041 38.8847 79.3558L38.7074 79.2476L38.5294 79.1414C38.4699 79.1067 38.4104 79.072 38.3505 79.0385L38.1766 78.9423L38.1564 78.9311C38.0798 78.8889 38.0218 78.8196 37.9937 78.7369C37.9655 78.6541 37.9693 78.5638 38.0041 78.4837C38.039 78.4035 38.1025 78.3393 38.1822 78.3035C38.2619 78.2676 38.3521 78.2628 38.4352 78.29L38.436 78.2916Z" fill="#000072"/>
    <path d="M31.8059 98.7995C36.0523 98.3315 40.968 99.1338 41.6034 101.274C42.2127 103.326 43.5401 107.451 33.453 106.013" fill="white"/>
    <path d="M31.8059 100.554C32.1777 100.258 32.6107 100.033 33.0544 99.8472C33.5019 99.665 33.9631 99.5184 34.4337 99.4089C35.3794 99.1887 36.3472 99.0778 37.3181 99.0784C37.8094 99.0767 38.3002 99.107 38.7876 99.1689C39.2889 99.2306 39.7831 99.3413 40.2628 99.4994C40.5155 99.5845 40.7605 99.6907 40.9953 99.8171C41.2525 99.9549 41.4879 100.13 41.6939 100.337C41.8071 100.453 41.9067 100.582 41.9905 100.721C42.0345 100.794 42.0735 100.871 42.107 100.949C42.1239 100.991 42.1396 101.032 42.1537 101.073L42.1859 101.171C42.2619 101.403 42.3334 101.643 42.3924 101.891C42.456 102.144 42.5041 102.401 42.5366 102.66C42.5531 102.792 42.5639 102.927 42.5697 103.064C42.5755 103.201 42.573 103.341 42.5647 103.481C42.5553 103.625 42.5381 103.768 42.5131 103.909C42.4856 104.054 42.4492 104.198 42.404 104.339C42.3562 104.482 42.2981 104.622 42.2301 104.758C42.1607 104.894 42.0809 105.024 41.9913 105.148C41.8144 105.391 41.6039 105.608 41.3663 105.793C41.1401 105.968 40.8955 106.118 40.6367 106.239C40.3911 106.356 40.1371 106.454 39.877 106.533C39.6259 106.607 39.3712 106.668 39.1139 106.717C38.6159 106.807 38.1119 106.861 37.6061 106.879C37.1103 106.9 36.6146 106.896 36.1263 106.87C35.638 106.844 35.1526 106.805 34.6717 106.746C34.1908 106.688 33.7129 106.622 33.2382 106.54C33.0591 106.507 32.8999 106.406 32.794 106.257C32.6881 106.109 32.6439 105.926 32.6707 105.746C32.6975 105.566 32.7932 105.403 32.9376 105.292C33.082 105.181 33.2638 105.131 33.4447 105.151H33.4497C33.9099 105.209 34.3693 105.264 34.8274 105.31C35.2856 105.356 35.7433 105.392 36.1986 105.413L36.5394 105.426L36.879 105.433C37.1045 105.435 37.3297 105.435 37.5528 105.427L37.718 105.421L37.8833 105.412C37.9944 105.407 38.1035 105.396 38.2138 105.388C38.2687 105.383 38.3228 105.376 38.379 105.371C38.4352 105.365 38.4881 105.359 38.5414 105.351L38.7029 105.331L38.8619 105.305C39.2846 105.235 39.6919 105.129 40.048 104.972C40.4041 104.814 40.7032 104.605 40.9089 104.343C41.013 104.21 41.0965 104.062 41.1568 103.904C41.1879 103.821 41.2137 103.736 41.2341 103.65C41.2542 103.56 41.2696 103.469 41.2803 103.376C41.3216 102.998 41.2861 102.579 41.2043 102.153C41.163 101.939 41.1118 101.723 41.0544 101.502L41.0358 101.43C41.032 101.415 41.0275 101.401 41.0221 101.386C41.0116 101.355 40.9989 101.325 40.9841 101.296C40.95 101.23 40.9084 101.169 40.8602 101.113C40.7385 100.977 40.5975 100.861 40.4417 100.767C40.2665 100.658 40.0824 100.564 39.8914 100.486C39.4823 100.321 39.059 100.193 38.6269 100.105C38.1818 100.01 37.7318 99.9412 37.2789 99.898C36.3586 99.8081 35.4318 99.8051 34.511 99.8893C34.0477 99.931 33.5876 100.003 33.1337 100.105C32.9055 100.155 32.68 100.218 32.4582 100.291C32.2351 100.364 32.0172 100.452 31.8059 100.554Z" fill="#000072"/>
    <g opacity="0.2">
        <path opacity="0.2" d="M27.2929 101.857C28.106 102.761 28.4261 104.036 29.328 104.822C30.2298 105.609 34.8637 106.378 37.549 106.378H40.8572L41.2361 102.49C41.2361 102.49 35.1839 104.85 31.5724 102.49C29.0313 100.828 30.5454 99.1792 30.0026 98.0783C29.3032 96.6687 25.2216 98.1559 23.5712 91.1206C23.2361 94.8076 24.1648 98.3864 27.2929 101.857Z" fill="#000072"/>
    </g>
    <path d="M46.7509 36.7726C47.2352 33.0227 45.4334 29.6993 42.7265 29.3497C40.0195 29 37.4324 31.7565 36.9481 35.5064C36.4637 39.2562 38.2655 42.5796 40.9724 42.9292C43.6794 43.2789 46.2665 40.5224 46.7509 36.7726Z" fill="#000072"/>
    <path d="M45.0375 35.1164C45.18 33.8201 44.7058 32.7044 43.9785 32.6245C43.2512 32.5446 42.5461 33.5307 42.4036 34.827C42.2612 36.1234 42.7354 37.2391 43.4627 37.319C44.19 37.3989 44.8951 36.4128 45.0375 35.1164Z" fill="white"/>
    <path d="M39.925 37.7791C40.0312 37.1355 39.8247 36.5655 39.4639 36.5059C39.103 36.4464 38.7244 36.9199 38.6182 37.5635C38.512 38.2071 38.7184 38.7771 39.0793 38.8366C39.4402 38.8962 39.8188 38.4227 39.925 37.7791Z" fill="white"/>
    <path d="M66.622 42.9173C69.329 42.5676 71.1307 39.2443 70.6464 35.4944C70.162 31.7445 67.5749 28.9881 64.868 29.3377C62.161 29.6874 60.3592 33.0107 60.8436 36.7606C61.3279 40.5105 63.915 43.2669 66.622 42.9173Z" fill="#000072"/>
    <path d="M64.1236 37.3206C64.8509 37.2407 65.3251 36.125 65.1827 34.8287C65.0402 33.5323 64.3352 32.5462 63.6078 32.6261C62.8805 32.706 62.4064 33.8217 62.5488 35.1181C62.6912 36.4144 63.3963 37.4005 64.1236 37.3206Z" fill="white"/>
    <path d="M68.5081 38.8359C68.8689 38.7764 69.0754 38.2064 68.9692 37.5628C68.863 36.9192 68.4843 36.4457 68.1235 36.5052C67.7626 36.5648 67.5562 37.1348 67.6624 37.7784C67.7686 38.422 68.1472 38.8955 68.5081 38.8359Z" fill="white"/>
    <path d="M102.942 52.1025C101.918 50.4389 99.6835 50.1608 98.0198 51.1833L97.7608 51.3423L97.6014 51.0833C96.5785 49.4197 94.458 48.66 92.7943 49.6829C92.3988 49.9261 92.055 50.2449 91.7826 50.621C91.5103 50.9971 91.3147 51.4232 91.207 51.8749C91.0993 52.3266 91.0816 52.7951 91.155 53.2536C91.2284 53.7122 91.3914 54.1518 91.6347 54.5473L91.7938 54.8063L95.0099 60.0364C95.1393 60.2465 95.3469 60.3968 95.5869 60.4542C95.827 60.5115 96.08 60.4714 96.2905 60.3425L101.521 57.126L101.78 56.9669C102.176 56.7238 102.52 56.4051 102.792 56.0291C103.065 55.6531 103.261 55.227 103.368 54.7753C103.476 54.3236 103.494 53.8551 103.421 53.3965C103.348 52.9379 103.185 52.4982 102.942 52.1025V52.1025Z" fill="#FF0660"/>
    <g opacity="0.3">
        <path opacity="0.3" d="M102.942 52.1025C102.815 51.897 102.666 51.7067 102.496 51.5353C102.605 52.2251 102.508 52.9318 102.216 53.5662C101.924 54.2007 101.45 54.7345 100.855 55.1005L100.596 55.2595L95.3659 58.4756C95.1555 58.6046 94.9025 58.6449 94.6624 58.5876C94.4223 58.5303 94.2148 58.3801 94.0853 58.1699L91.2001 53.4781C91.2859 53.856 91.4331 54.2171 91.6359 54.5473L91.7954 54.8063L95.0115 60.0364C95.141 60.2465 95.3485 60.3968 95.5886 60.4541C95.8286 60.5115 96.0816 60.4714 96.2922 60.3425L101.523 57.126L101.782 56.9669C102.581 56.4756 103.152 55.6872 103.369 54.7749C103.587 53.8627 103.433 52.9014 102.942 52.1025V52.1025Z" fill="#000072"/>
    </g>
    <g opacity="0.7">
        <path opacity="0.7" d="M93.098 50.7148C94.7616 49.6919 96.8822 50.4521 97.9055 52.1157L98.0645 52.3743L98.3235 52.2153C99.9872 51.1924 102.223 51.4717 103.245 53.1345C103.315 53.2489 103.379 53.3673 103.436 53.4889C103.371 52.9972 103.203 52.5248 102.943 52.1025V52.1025C101.92 50.4389 99.6848 50.1608 98.0211 51.1833L97.7621 51.3423L97.6026 51.0833C96.5798 49.4197 94.4592 48.66 92.7956 49.6829C92.0562 50.1378 91.51 50.8488 91.2609 51.6805C91.0119 52.5122 91.0775 53.4064 91.4451 54.1929C91.3552 53.5154 91.4635 52.8264 91.7568 52.2092C92.0501 51.592 92.516 51.0729 93.098 50.7148Z" fill="white"/>
    </g>
    <path d="M95.8077 60.9965C95.5598 60.9969 95.316 60.9337 95.0995 60.813C94.883 60.6923 94.7011 60.518 94.5712 60.307L91.196 54.8179C90.6342 53.902 90.4586 52.8007 90.7078 51.7556C90.9569 50.7104 91.6105 49.8068 92.525 49.2429C93.4417 48.6794 94.5311 48.5513 95.5933 48.8826C96.5484 49.1864 97.3722 49.8055 97.9298 50.6384C98.8033 50.1468 99.8177 49.9662 100.807 50.1261C101.904 50.3095 102.819 50.9156 103.383 51.8319C103.945 52.7479 104.121 53.8497 103.872 54.8953C103.623 55.941 102.969 56.845 102.054 57.409L96.5641 60.7841C96.3366 60.9238 96.0746 60.9973 95.8077 60.9965V60.9965ZM94.4353 49.7361C93.9518 49.7352 93.4777 49.8691 93.0662 50.1228C92.384 50.5423 91.8963 51.2155 91.7104 51.9945C91.5245 52.7734 91.6555 53.5943 92.0747 54.2767L95.4503 59.7662C95.5083 59.8599 95.601 59.9269 95.7083 59.9525C95.8155 59.978 95.9285 59.9601 96.0225 59.9025L101.512 56.5269C102.193 56.107 102.68 55.4337 102.866 54.655C103.052 53.8763 102.921 53.0556 102.503 52.373C102.098 51.7145 101.436 51.2783 100.637 51.1444C99.8541 51.0135 98.999 51.1858 98.2913 51.6228L98.0327 51.7823C97.916 51.854 97.7756 51.8764 97.6424 51.8447C97.5091 51.8129 97.394 51.7295 97.3221 51.6129L97.1631 51.3539C96.7277 50.6462 96.0435 50.105 95.2859 49.8667C95.0106 49.7803 94.7238 49.7363 94.4353 49.7361V49.7361Z" fill="#000072"/>
</svg>
