<?xml version="1.0" standalone="no"?>
<!DOCTYPE svg PUBLIC "-//W3C//DTD SVG 20010904//EN"
 "http://www.w3.org/TR/2001/REC-SVG-20010904/DTD/svg10.dtd">
<svg version="1.0" xmlns="http://www.w3.org/2000/svg"
 width="8334.000000pt" height="8334.000000pt" viewBox="0 0 8334.000000 8334.000000"
 preserveAspectRatio="xMidYMid meet">

<g transform="translate(0.000000,8334.000000) scale(0.100000,-0.100000)"
fill="#000000" stroke="none">
<path d="M33205 67083 c-556 -45 -1049 -240 -1470 -580 -113 -91 -322 -301
-409 -411 -176 -222 -323 -494 -422 -777 -48 -136 -135 -485 -188 -756 -95
-478 -149 -914 -177 -1424 -13 -241 -7 -984 10 -1195 54 -656 142 -1204 287
-1778 29 -118 54 -218 54 -222 0 -3 -51 -46 -112 -95 -737 -582 -1525 -1325
-2219 -2093 -418 -462 -902 -1059 -1203 -1484 -43 -62 -64 -78 -264 -211 -862
-574 -1734 -1375 -2391 -2197 -46 -58 -89 -111 -96 -118 -10 -11 -50 7 -216
98 -871 474 -1838 894 -2804 1216 -498 165 -1116 344 -1192 344 -74 0 -132
-45 -154 -120 -17 -56 -4 -106 39 -151 34 -35 52 -42 242 -99 1084 -325 2220
-799 3225 -1348 183 -100 486 -271 555 -314 16 -10 12 -19 -40 -92 -426 -600
-847 -1391 -1129 -2124 -116 -301 -258 -741 -326 -1012 -9 -36 -20 -81 -25
-100 l-10 -36 -107 -18 c-657 -110 -1483 -311 -2163 -526 -549 -174 -1282
-452 -1322 -501 -72 -86 -24 -214 87 -235 22 -4 91 17 265 79 952 343 2002
608 2975 752 61 8 123 18 139 22 34 6 37 43 -23 -307 -96 -566 -149 -1286
-134 -1825 l5 -180 -124 -69 c-287 -160 -775 -477 -1113 -721 -765 -554 -1471
-1192 -2095 -1893 -170 -192 -189 -217 -197 -265 -13 -80 32 -163 104 -193 43
-18 117 -18 153 1 16 8 82 74 147 147 709 795 1465 1457 2363 2070 263 179
768 490 782 482 4 -3 8 -25 8 -50 0 -76 39 -438 76 -699 93 -662 229 -1268
436 -1942 l71 -233 -31 -157 c-104 -528 -122 -1066 -51 -1588 212 -1576 1224
-2965 2719 -3733 91 -46 166 -86 168 -87 1 -1 -23 -64 -54 -141 -124 -309
-246 -728 -308 -1054 -303 -1608 63 -3207 1033 -4510 316 -424 761 -869 1186
-1185 66 -49 122 -90 124 -92 2 -1 -15 -98 -37 -215 -244 -1245 -262 -2444
-56 -3748 216 -1371 713 -2838 1436 -4240 300 -581 723 -1309 1010 -1737 26
-40 48 -76 48 -82 0 -5 -25 -67 -56 -138 -371 -850 -516 -1485 -475 -2085 25
-374 95 -655 241 -954 80 -167 146 -272 254 -409 405 -510 995 -817 1931
-1004 376 -75 1339 -212 1935 -275 1452 -154 2525 -76 3513 255 555 185 1047
449 1464 784 267 214 486 433 653 653 38 51 72 93 75 95 3 1 24 -38 48 -88
161 -341 323 -572 587 -835 313 -313 650 -543 1116 -762 544 -254 1234 -432
1974 -507 871 -90 2116 -120 2870 -71 1152 75 2072 286 2820 647 241 116 367
187 565 318 881 585 1432 1405 1654 2460 63 301 98 602 108 950 l6 219 125
145 c839 982 1621 2179 2199 3368 58 120 107 219 108 221 1 1 64 -29 141 -67
429 -212 954 -367 1510 -445 396 -56 489 -61 1069 -61 550 0 652 4 1055 46
1300 133 2360 522 3290 1207 496 366 969 826 1394 1357 1195 1494 1961 3442
2150 5465 36 380 41 504 41 1030 -1 572 -8 723 -61 1190 -100 895 -310 1767
-618 2568 -601 1560 -1367 2509 -2438 3021 -589 282 -1208 414 -1863 398 -418
-10 -775 -72 -1160 -201 -88 -30 -162 -52 -164 -50 -2 2 3 46 12 97 21 118 21
124 -3 130 -19 5 -20 0 -20 -117 l0 -121 -102 -44 c-1237 -526 -2160 -1700
-2377 -3021 -41 -251 -54 -422 -54 -730 0 -529 48 -907 243 -1895 197 -999
249 -1367 280 -1994 70 -1407 -258 -2650 -919 -3479 -45 -56 -83 -102 -85
-102 -1 0 1 24 5 53 109 679 158 1121 201 1817 17 275 17 1404 0 1680 -94
1521 -339 2831 -779 4175 -267 817 -666 1746 -1058 2469 -47 87 -85 160 -83
161 2 2 81 42 176 89 1754 877 3251 2399 4132 4201 78 161 187 398 211 463 9
23 12 22 212 -81 564 -292 1086 -625 1566 -1000 123 -96 149 -110 187 -101 50
13 80 85 54 133 -16 31 -314 276 -555 457 -376 283 -822 571 -1215 784 -74 41
-136 74 -138 75 -1 1 15 49 37 106 370 990 549 2062 527 3144 -4 182 -11 375
-15 430 -5 55 -7 102 -5 104 5 5 508 -160 719 -236 890 -322 1732 -714 2525
-1177 176 -102 201 -110 256 -77 66 40 70 128 8 179 -43 35 -429 267 -659 395
-608 338 -1263 646 -1920 902 -227 88 -660 243 -842 300 -68 21 -123 44 -123
49 0 27 -62 437 -85 562 -294 1601 -1047 3112 -2093 4195 l-92 96 72 7 c175
15 514 36 772 47 314 13 1316 7 1561 -10 274 -19 282 -19 306 6 31 31 30 80
-3 108 -20 18 -47 23 -149 33 -182 17 -475 40 -714 54 -417 26 -1908 13 -2053
-18 -18 -3 -36 8 -81 51 l-58 55 -36 157 c-553 2419 -739 3196 -1002 4178
-813 3038 -1683 5206 -2710 6755 -887 1336 -1876 2171 -2970 2504 -407 124
-783 153 -1197 91 -1093 -164 -2285 -979 -3493 -2390 -334 -390 -729 -912
-1034 -1369 l-73 -109 -62 7 c-33 3 -124 13 -201 21 -676 69 -1342 98 -2187
93 l-596 -3 -234 230 c-524 517 -966 898 -1538 1326 -1323 991 -2870 1772
-4440 2239 -380 113 -548 150 -780 170 -108 9 -284 11 -375 3z m464 -958 c188
-37 745 -208 1126 -345 1550 -559 3049 -1450 4299 -2554 88 -78 173 -153 190
-167 l31 -27 -75 -6 c-1088 -100 -2260 -306 -3284 -577 -126 -33 -232 -57
-237 -52 -4 4 -45 67 -89 138 -467 742 -1074 1439 -1737 1992 -187 156 -415
326 -630 470 -196 132 -426 272 -496 303 -146 65 -337 8 -425 -126 -44 -66
-155 -406 -231 -710 -138 -548 -206 -1077 -218 -1684 -12 -621 37 -1166 160
-1778 l43 -214 -190 -125 c-104 -68 -192 -120 -196 -116 -10 11 -73 311 -109
523 -177 1023 -183 2017 -20 3010 54 326 143 729 204 915 39 120 156 348 232
455 87 122 262 296 383 383 115 81 341 196 467 237 97 31 203 54 313 70 98 13
391 5 489 -15z m15112 -175 c200 -21 389 -72 628 -170 965 -397 1859 -1344
2672 -2830 131 -240 464 -908 457 -916 -3 -2 -18 15 -34 38 -351 517 -860
1179 -1249 1623 -102 117 -407 444 -460 495 -35 33 -37 33 -30 10 4 -14 19
-50 32 -80 14 -30 31 -72 39 -93 7 -20 20 -52 28 -70 38 -84 166 -416 201
-522 8 -22 37 -105 65 -185 269 -757 513 -1624 756 -2675 30 -132 73 -325 95
-430 21 -104 44 -208 49 -230 12 -51 78 -377 130 -650 138 -711 328 -1838 460
-2725 16 -113 35 -232 40 -265 5 -33 30 -195 55 -360 146 -965 227 -1384 306
-1583 124 -314 368 -592 714 -814 336 -215 828 -402 1325 -504 140 -28 179
-43 119 -45 -65 -2 -249 -30 -669 -100 -755 -127 -1582 -323 -2256 -534 -77
-25 -149 -46 -160 -48 -10 -2 -26 -7 -34 -10 -61 -26 -575 -195 -581 -191 -4
2 -9 0 -11 -5 -1 -5 -102 -46 -223 -91 -236 -88 -426 -162 -490 -190 -22 -10
-123 -53 -225 -95 -102 -43 -225 -97 -275 -120 -49 -23 -94 -43 -100 -45 -5
-2 -57 -26 -115 -53 -58 -27 -109 -50 -115 -51 -5 -1 -61 -28 -123 -59 -62
-32 -118 -55 -124 -51 -6 4 -8 3 -5 -3 6 -10 -43 -37 -59 -33 -4 1 -10 -3 -13
-8 -11 -17 -71 -43 -83 -36 -6 4 -8 3 -5 -3 6 -10 -43 -37 -59 -33 -4 1 -10
-3 -13 -8 -3 -5 -46 -30 -96 -55 -49 -24 -132 -68 -184 -96 -52 -28 -96 -49
-98 -47 -3 2 -14 -5 -25 -16 -11 -11 -26 -17 -34 -14 -10 4 -12 2 -8 -6 5 -8
1 -9 -12 -4 -10 4 -15 4 -11 0 8 -8 -19 -25 -278 -175 -474 -274 -1093 -667
-1152 -730 -60 -65 -83 -199 -48 -282 21 -50 80 -114 129 -139 49 -25 137 -34
192 -19 25 7 119 66 235 148 396 278 856 575 1221 788 129 74 172 95 190 90
15 -4 19 -3 10 3 -17 11 332 207 349 196 7 -4 9 -3 6 3 -3 5 35 32 86 58 139
73 161 84 169 78 5 -2 8 1 8 6 0 15 139 83 152 75 6 -4 8 -3 5 3 -8 13 41 36
55 27 6 -4 8 -3 5 3 -3 5 40 31 96 58 56 26 156 74 222 106 763 365 1735 729
2640 988 289 82 686 184 693 176 3 -2 10 -1 16 4 17 13 327 83 343 77 8 -3 11
-1 8 4 -3 6 2 10 12 10 10 0 80 14 155 30 76 17 141 29 145 29 4 -1 15 1 23 4
17 7 286 56 470 87 69 11 136 23 148 26 14 3 21 1 18 -5 -3 -5 -3 -11 2 -13 4
-1 18 -18 31 -36 12 -18 59 -65 104 -104 173 -151 266 -242 260 -252 -3 -6 -2
-8 2 -3 11 10 56 -33 48 -46 -3 -6 -1 -7 4 -4 10 6 36 -15 30 -24 -1 -2 0 -3
2 -1 9 5 50 -42 44 -51 -3 -6 -1 -7 4 -4 13 8 36 -17 25 -28 -4 -5 -2 -5 4 -2
7 4 30 -14 53 -39 35 -40 39 -49 29 -63 -11 -14 -11 -14 3 -3 14 10 27 1 91
-70 184 -205 457 -556 573 -739 156 -245 195 -311 190 -320 -4 -5 -1 -8 5 -7
16 4 68 -81 185 -301 279 -521 506 -1119 660 -1740 44 -178 99 -437 111 -529
l6 -49 -208 48 c-973 227 -1987 365 -3014 409 -438 19 -1277 11 -1650 -15
-440 -31 -645 -50 -1015 -96 -971 -120 -1951 -338 -2860 -636 -174 -57 -204
-72 -248 -124 -97 -113 -62 -292 72 -361 89 -47 121 -42 444 67 641 215 1196
363 1853 495 632 126 1330 220 1939 260 88 5 189 12 225 15 428 30 1569 24
1895 -10 22 -2 85 -7 140 -10 656 -40 1632 -186 2360 -353 l120 -27 17 -170
c53 -541 50 -1126 -8 -1650 -46 -419 -133 -860 -253 -1277 -51 -175 -168 -527
-180 -540 -3 -3 -78 23 -166 58 -1026 413 -2179 671 -3260 730 -66 3 -140 7
-165 9 -25 2 -135 4 -245 5 -207 1 -225 -1 -288 -44 -36 -24 -74 -90 -83 -142
-9 -61 17 -142 62 -187 66 -65 67 -66 589 -71 259 -2 484 -7 500 -9 17 -3 75
-8 130 -12 643 -38 1458 -192 2179 -410 207 -63 613 -201 628 -214 10 -9 -153
-367 -274 -602 -524 -1014 -1241 -1901 -2141 -2648 -235 -195 -646 -487 -929
-659 -398 -243 -927 -500 -1253 -610 -217 -74 -718 -232 -722 -229 -2 2 52 60
119 128 757 767 1193 1679 1324 2769 25 211 30 684 10 905 -66 710 -247 1313
-561 1866 -350 615 -876 1135 -1500 1484 -1290 720 -3006 767 -4525 123 -459
-195 -1041 -549 -1462 -890 -263 -213 -608 -539 -835 -789 -1350 -1492 -2236
-3681 -2417 -5974 -39 -494 -41 -1072 -5 -1528 6 -76 9 -140 7 -141 -1 -2
-133 -24 -293 -50 -349 -57 -622 -110 -712 -137 -165 -51 -241 -231 -162 -388
48 -96 112 -136 253 -156 217 -32 737 -75 912 -75 69 0 105 -4 112 -12 5 -7
15 -44 21 -83 46 -272 159 -711 270 -1045 309 -931 757 -1737 1356 -2436 534
-624 1163 -1145 1830 -1513 605 -335 1287 -568 1935 -660 239 -34 333 -42 585
-48 840 -20 1684 158 2415 511 224 107 610 348 780 485 417 337 710 665 957
1071 118 194 233 443 233 504 0 70 -43 141 -105 174 -45 23 -135 20 -178 -7
-19 -12 -78 -74 -130 -139 -243 -301 -573 -621 -874 -844 -1012 -751 -2304
-1104 -3473 -948 -717 96 -1436 373 -2079 803 -697 465 -1318 1112 -1778 1852
-525 845 -854 1788 -992 2850 -52 395 -71 701 -71 1140 0 359 7 518 41 885
203 2230 1117 4324 2460 5635 425 414 764 671 1269 960 954 546 2142 748 3182
540 1062 -212 1884 -810 2326 -1691 267 -532 392 -1076 392 -1698 0 -325 -26
-574 -90 -861 -179 -804 -587 -1480 -1245 -2063 -653 -577 -1525 -985 -2430
-1136 -243 -41 -318 -48 -556 -51 -249 -4 -437 -18 -515 -40 -112 -32 -218
-130 -265 -245 -31 -76 -31 -211 0 -290 44 -114 143 -208 261 -247 49 -16 87
-18 330 -16 151 1 318 6 370 11 207 19 598 -52 950 -173 683 -235 1278 -666
1777 -1290 192 -239 366 -517 521 -832 80 -163 113 -207 178 -238 126 -61 282
-9 346 114 36 68 37 131 3 296 -82 404 -270 826 -539 1205 -217 306 -527 620
-856 865 -67 51 -107 87 -99 89 8 3 133 43 279 90 521 167 1048 350 1501 521
174 65 227 82 235 72 35 -36 356 -662 497 -967 716 -1550 1158 -3218 1312
-4950 65 -739 73 -1669 19 -2425 -204 -2895 -1269 -5737 -3026 -8079 -235
-313 -455 -583 -785 -964 -125 -144 -130 -168 -136 -592 -5 -342 -18 -503 -57
-735 -158 -926 -622 -1619 -1398 -2087 -480 -290 -1126 -509 -1853 -630 l-26
-5 -6 206 c-11 395 -77 741 -212 1116 -73 204 -145 345 -208 407 -101 101
-218 144 -368 136 -170 -10 -306 -103 -385 -263 -39 -79 -39 -79 -39 -199 l0
-121 56 -131 c150 -347 208 -615 216 -1011 l5 -241 -58 -6 c-33 -3 -315 -8
-629 -12 -687 -8 -1124 7 -1805 62 -201 16 -499 50 -507 58 -12 11 -14 275 -4
386 23 236 69 426 157 640 52 128 66 231 46 327 -39 179 -192 329 -371 363
-153 29 -309 -19 -416 -128 -63 -64 -99 -128 -159 -283 -114 -298 -181 -620
-201 -971 l-7 -117 -86 31 c-437 153 -852 393 -1137 657 -292 270 -494 630
-604 1073 -68 275 -113 627 -115 903 -1 157 0 162 36 282 49 160 100 295 157
414 l46 98 95 -71 c546 -406 1147 -648 1825 -735 175 -22 708 -25 880 -5 173
20 367 53 402 67 90 38 99 189 14 237 -20 12 -78 17 -251 21 -258 7 -386 19
-588 53 -607 102 -1150 352 -1587 732 -190 166 -446 449 -477 527 -22 55 -46
92 -144 220 -279 365 -530 831 -697 1295 -189 525 -288 992 -331 1565 -55 727
62 1544 364 2545 48 159 52 212 18 272 -32 58 -86 88 -161 88 -71 0 -119 -21
-154 -66 -14 -19 -30 -31 -36 -27 -6 3 -7 1 -3 -5 4 -6 -10 -35 -31 -64 -46
-63 -98 -142 -145 -220 -19 -32 -38 -55 -43 -50 -5 4 -5 2 -1 -5 6 -10 -11
-47 -53 -113 -8 -14 -16 -27 -17 -30 -4 -19 -68 -146 -76 -151 -5 -3 -9 -9 -8
-13 4 -14 -83 -215 -91 -210 -5 3 -6 -1 -4 -8 3 -8 -6 -45 -21 -84 -86 -229
-174 -567 -219 -848 -56 -351 -75 -566 -82 -946 -4 -229 -10 -328 -18 -336
-13 -13 -141 -121 -202 -170 -160 -128 -451 -308 -658 -406 -186 -87 -201 -94
-340 -146 -516 -194 -1046 -282 -1615 -269 -390 10 -742 57 -1115 152 -144 36
-447 130 -520 160 -16 7 -64 25 -105 40 -170 62 -456 190 -657 292 -431 220
-878 508 -1257 810 -126 100 -186 169 -170 195 4 6 3 8 -4 4 -10 -6 -154 231
-149 245 1 4 -5 15 -14 25 -31 36 -139 245 -133 257 4 7 3 9 -1 4 -11 -9 -186
323 -180 341 3 7 1 11 -3 8 -8 -5 -208 367 -203 380 2 4 -4 11 -13 16 -9 5
-16 13 -16 18 0 5 -16 36 -36 69 -31 53 -35 63 -23 79 11 14 11 15 -1 5 -11
-10 -16 -9 -24 7 -28 50 -123 198 -145 227 -14 17 -42 39 -63 49 -21 9 -38 20
-38 23 0 4 -36 8 -80 10 -63 2 -89 -2 -127 -19 -99 -44 -154 -110 -173 -209
-10 -56 14 -226 66 -456 137 -609 482 -1348 989 -2115 302 -458 584 -800 1004
-1221 333 -333 562 -532 901 -783 1176 -872 2715 -1449 4285 -1606 361 -36
465 -41 868 -47 l397 -6 0 -31 c0 -18 -9 -105 -20 -193 -72 -581 -206 -977
-443 -1308 -209 -293 -587 -619 -977 -842 -465 -267 -1032 -451 -1675 -542
-161 -23 -461 -51 -552 -51 l-63 0 0 98 c0 201 46 453 121 656 18 50 65 154
105 233 86 170 104 243 85 355 -39 235 -228 398 -460 398 -201 0 -334 -90
-451 -306 -205 -378 -321 -807 -337 -1252 l-6 -172 -31 0 c-40 0 -338 26 -536
45 -327 34 -1174 147 -1579 212 l-164 26 6 121 c14 302 123 643 299 934 84
139 109 244 88 362 -32 177 -162 325 -329 374 -76 22 -194 21 -274 -4 -162
-50 -255 -156 -407 -460 -150 -298 -244 -596 -291 -915 -11 -77 -22 -142 -25
-145 -8 -8 -187 88 -283 152 -324 214 -508 503 -582 914 -26 144 -31 462 -10
614 53 386 179 777 434 1345 153 342 151 336 151 450 0 136 -13 165 -198 447
-779 1190 -1357 2305 -1771 3413 -413 1107 -639 2109 -727 3215 -18 223 -18
1099 0 1315 102 1250 402 2345 943 3435 551 1113 1275 2071 2239 2966 30 28
109 96 175 153 111 95 122 102 152 96 104 -19 550 -80 808 -110 881 -101 1694
-148 2560 -148 806 0 1293 30 1955 118 439 59 481 71 535 153 79 121 43 274
-81 344 -55 30 -55 30 -629 68 -1378 90 -2744 220 -3990 381 -756 97 -1468
199 -1480 211 -2 2 23 111 56 243 245 1000 393 1919 440 2739 11 191 8 1117
-4 1176 -3 14 -8 70 -12 125 -19 304 -93 793 -170 1141 -266 1186 -781 2175
-1535 2948 -1114 1141 -2590 1658 -4000 1400 -212 -39 -467 -108 -668 -181
-861 -311 -1628 -898 -2130 -1631 -59 -87 -71 -99 -75 -80 -24 95 -93 459
-126 659 -67 408 -113 825 -126 1144 -3 77 -8 152 -10 166 -5 30 -10 27 286
159 748 335 1575 607 2400 790 78 17 104 28 137 55 52 45 73 93 73 162 0 79
-37 138 -111 176 -72 38 -96 35 -430 -48 -769 -191 -1530 -454 -2240 -774 -61
-28 -114 -51 -117 -51 -14 0 13 543 42 855 23 248 98 709 158 975 l24 105 69
7 c350 34 1058 52 1544 38 217 -5 413 -12 435 -15 22 -2 90 -7 150 -10 136 -7
421 -31 622 -51 189 -19 236 -10 314 63 59 55 84 115 83 198 -2 102 -53 184
-145 230 -51 26 -152 38 -444 50 -82 4 -161 9 -175 11 -14 2 -212 7 -440 10
-568 9 -1064 -9 -1633 -57 -136 -12 -251 -19 -254 -15 -3 3 33 124 81 268 256
777 620 1512 1090 2203 151 221 160 234 169 235 17 0 474 -320 732 -514 373
-280 906 -719 1152 -948 73 -68 128 -90 216 -89 82 1 140 25 194 79 81 80 101
210 49 315 -24 50 -49 75 -199 200 -542 452 -1126 882 -1719 1265 -71 45 -128
84 -128 87 0 7 205 250 328 390 167 189 690 707 884 877 390 341 788 641 1138
858 189 118 200 127 297 263 862 1206 2065 2474 3253 3426 1031 826 2067 1456
3137 1907 1020 430 2499 813 3913 1013 378 54 919 115 1210 136 47 3 101 8
120 10 36 5 443 30 635 40 199 10 756 24 985 25 219 0 834 -15 975 -25 39 -2
124 -7 190 -10 342 -17 985 -77 1222 -115 148 -24 191 -25 268 -5 84 22 164
68 222 128 28 29 92 120 143 202 265 427 634 935 1008 1384 1255 1507 2491
2297 3443 2201z m-15910 -1541 c27 -19 29 -24 29 -92 0 -124 35 -460 71 -672
83 -503 216 -944 424 -1412 60 -135 70 -163 56 -167 -24 -8 -243 -43 -346 -56
-98 -13 -440 -29 -466 -22 -20 5 -27 79 -38 410 -23 654 54 1367 208 1942 11
41 21 78 21 83 0 12 10 8 41 -14z m-5251 -18095 c597 -65 1224 -323 1765 -727
234 -175 553 -474 727 -682 723 -866 1139 -2014 1232 -3405 20 -297 15 -1040
-9 -1192 -2 -12 -6 -63 -9 -113 -36 -520 -170 -1329 -341 -2065 -137 -591
-489 -1900 -518 -1926 -7 -6 -77 -67 -157 -135 -437 -373 -870 -870 -1221
-1402 -65 -99 -121 -173 -123 -166 -2 8 -21 70 -41 139 -53 180 -154 430 -252
622 -81 158 -90 172 -182 266 -119 121 -213 244 -282 371 -40 71 -73 115 -129
169 -302 294 -688 512 -1074 607 -148 36 -352 65 -458 65 -107 0 -118 4 -113
38 45 269 111 547 180 762 35 110 166 452 183 477 6 10 31 9 117 -2 399 -53
840 -15 1265 110 421 123 810 351 1082 632 43 45 87 100 98 124 64 141 -42
309 -195 309 -17 0 -132 -20 -256 -45 -286 -58 -634 -117 -864 -147 -160 -20
-221 -23 -550 -23 -322 1 -396 4 -570 24 -212 24 -225 28 -405 98 -325 127
-667 319 -975 548 -717 531 -1255 1294 -1484 2103 -261 922 -171 1904 249
2732 428 842 1207 1478 2124 1735 401 112 778 143 1186 99z m32380 -7235 c603
-47 1163 -254 1635 -604 591 -438 1078 -1181 1488 -2270 94 -251 216 -625 203
-625 -2 0 -37 53 -77 118 -358 576 -680 994 -1053 1368 -263 262 -461 423
-736 598 -134 85 -456 254 -465 244 -3 -3 27 -48 67 -99 169 -218 365 -512
496 -744 100 -178 113 -202 183 -345 235 -478 395 -931 509 -1443 73 -328 128
-718 145 -1027 4 -63 8 -133 10 -155 2 -22 4 -95 4 -162 l1 -122 73 -42 c447
-258 772 -473 1141 -758 l96 -73 0 -223 c0 -722 -109 -1560 -299 -2308 -52
-204 -184 -657 -197 -679 -3 -5 -60 38 -127 95 -243 204 -438 352 -702 528
-270 181 -563 356 -574 342 -4 -4 -25 -51 -46 -103 -83 -206 -272 -580 -418
-825 -131 -219 -430 -641 -530 -747 -6 -7 -58 -65 -113 -128 -128 -145 -344
-355 -497 -484 -64 -55 -117 -102 -117 -105 0 -3 17 -18 38 -33 225 -160 716
-631 983 -944 141 -165 343 -420 411 -517 l39 -58 -34 -42 c-19 -23 -104 -116
-189 -207 -332 -354 -690 -658 -1063 -905 -173 -114 -421 -257 -438 -253 -7 2
-61 58 -120 124 -297 338 -727 728 -1117 1012 -153 112 -202 146 -355 247
-595 390 -1382 788 -2140 1080 -55 22 -101 40 -103 41 -2 1 34 49 81 106 395
485 668 1004 903 1718 86 262 177 695 223 1065 61 487 74 880 46 1395 -36 686
-93 1101 -279 2045 -46 237 -92 473 -101 525 -9 52 -25 142 -36 200 -28 152
-66 430 -85 620 -23 227 -23 675 -1 864 41 341 128 642 272 944 283 591 746
1086 1311 1401 490 273 1069 396 1654 350z"/>
<path d="M47950 64603 c-128 -22 -231 -65 -399 -171 -58 -36 -110 -65 -117
-65 -7 0 -10 -5 -7 -10 4 -6 -1 -8 -11 -4 -10 4 -15 3 -11 -3 3 -5 -23 -28
-57 -51 -35 -23 -89 -62 -120 -86 -31 -24 -59 -43 -62 -43 -3 0 -22 -16 -43
-35 -21 -19 -44 -33 -51 -30 -7 3 -11 1 -8 -4 3 -5 -16 -26 -42 -47 -26 -21
-67 -56 -92 -78 -107 -96 -120 -106 -132 -104 -7 2 -12 -2 -11 -8 3 -17 -85
-96 -99 -88 -7 4 -8 3 -4 -5 9 -15 -32 -53 -47 -44 -5 3 -7 2 -4 -4 7 -11
-149 -179 -163 -175 -6 1 -9 -1 -8 -5 5 -14 -54 -83 -65 -76 -5 3 -8 2 -4 -3
3 -5 -11 -27 -30 -49 -20 -22 -76 -91 -126 -152 -49 -62 -94 -110 -100 -106
-5 3 -7 1 -4 -5 4 -5 -30 -61 -74 -124 -45 -62 -84 -119 -86 -125 -3 -7 -10
-10 -16 -6 -5 3 -7 1 -4 -4 4 -6 -6 -28 -21 -49 -15 -22 -45 -67 -66 -102 -21
-34 -42 -60 -47 -57 -5 4 -6 -2 -2 -11 5 -13 3 -15 -7 -9 -8 5 -11 4 -6 -3 8
-13 -28 -75 -38 -65 -4 4 -4 0 -1 -8 3 -9 -1 -22 -10 -29 -8 -7 -15 -19 -15
-27 0 -8 -5 -11 -12 -7 -6 4 -8 3 -5 -3 8 -12 -35 -95 -67 -132 -12 -13 -16
-22 -11 -18 6 3 -17 -49 -50 -116 -69 -139 -88 -182 -180 -402 -46 -111 -162
-463 -201 -607 -15 -59 -32 -104 -36 -102 -4 3 -5 -2 -2 -10 6 -15 -12 -109
-24 -130 -3 -5 -6 -21 -8 -35 -1 -14 -14 -87 -28 -161 -37 -190 -67 -428 -69
-540 -1 -88 1 -100 30 -160 18 -36 40 -74 50 -85 53 -58 241 -196 435 -317 75
-47 134 -89 130 -93 -4 -5 -2 -5 4 -2 10 5 249 -114 264 -132 3 -3 14 -8 25
-9 11 -2 40 -14 65 -27 25 -13 90 -42 145 -64 54 -23 105 -46 112 -52 7 -7 13
-9 13 -6 0 4 28 -4 63 -17 764 -287 1626 -396 2532 -321 332 28 917 141 1163
226 64 22 76 23 66 7 -5 -7 -3 -8 5 -4 7 5 10 10 7 13 -7 7 86 69 97 65 5 -1
6 1 3 6 -3 5 9 24 26 43 17 19 30 35 29 37 -1 1 7 28 19 60 20 52 21 70 16
200 -3 78 -7 146 -9 150 -3 4 -8 48 -12 97 -11 142 -53 462 -90 683 -19 112
-34 207 -33 210 1 4 -2 14 -5 22 -4 8 -21 83 -37 165 -47 227 -140 582 -224
855 -66 214 -222 649 -285 794 -12 27 -19 56 -17 63 3 8 2 12 -3 9 -11 -7 -73
142 -65 156 4 6 3 8 -3 5 -6 -4 -17 8 -24 26 -7 17 -48 106 -91 196 -43 90
-75 168 -71 174 3 5 2 7 -4 4 -5 -3 -28 33 -52 81 -24 48 -65 127 -92 175 -27
48 -47 93 -43 99 4 6 3 8 -3 5 -5 -3 -18 11 -28 31 -11 20 -37 65 -58 99 -22
36 -36 67 -31 74 4 7 3 9 -3 6 -11 -7 -56 58 -56 80 0 7 -3 10 -7 8 -10 -6
-32 44 -24 56 3 5 2 8 -3 7 -4 -2 -8 0 -8 4 0 4 -7 13 -16 20 -19 16 -149 215
-149 228 0 6 -4 10 -10 10 -5 0 -9 3 -8 8 7 20 -212 240 -248 249 -5 2 -36 17
-69 35 -33 18 -62 33 -65 33 -33 6 -70 18 -70 24 0 4 -8 7 -17 7 -10 1 -47 6
-83 13 -62 10 -227 13 -280 4z m190 -718 c50 -26 283 -392 464 -727 l46 -87
-62 -48 c-437 -335 -808 -773 -1084 -1278 -27 -49 -51 -94 -53 -100 -2 -5 -23
-50 -46 -100 -222 -471 -357 -1049 -366 -1572 l-3 -132 -25 6 c-71 16 -398
129 -505 174 -184 77 -400 188 -553 284 -76 47 -148 94 -159 103 l-22 17 29
170 c220 1296 972 2462 2052 3184 186 124 224 138 287 106z"/>
<path d="M45730 53156 c0 -2 8 -10 18 -17 15 -13 16 -12 3 4 -13 16 -21 21
-21 13z"/>
<path d="M31807 52499 c-191 -20 -393 -67 -567 -131 -207 -76 -478 -236 -535
-317 -28 -40 -30 -49 -30 -130 0 -79 3 -92 28 -129 15 -23 46 -54 69 -69 41
-28 43 -28 267 -35 421 -13 675 -40 941 -99 850 -188 1503 -639 2118 -1462 57
-76 83 -102 122 -122 139 -70 307 7 339 155 12 57 0 264 -23 384 -160 827
-827 1562 -1669 1837 -185 61 -380 101 -572 119 -126 12 -374 11 -488 -1z"/>
<path d="M46856 52112 c-3 -5 1 -9 9 -9 8 0 12 4 9 9 -3 4 -7 8 -9 8 -2 0 -6
-4 -9 -8z"/>
<path d="M43985 52099 c-432 -41 -821 -155 -1216 -355 -704 -357 -1275 -1007
-1503 -1711 -65 -203 -88 -335 -71 -414 29 -135 162 -229 307 -216 94 8 148
46 251 173 865 1070 1766 1599 2911 1709 306 29 760 16 1085 -30 116 -17 163
-10 217 31 87 65 97 211 22 292 -35 36 -200 139 -342 212 -290 150 -609 247
-971 296 -138 19 -551 27 -690 13z"/>
<path d="M30251 50450 c-86 -18 -157 -75 -204 -164 -33 -63 -31 -183 5 -251
35 -67 61 -89 208 -181 351 -219 659 -445 950 -698 152 -132 501 -482 623
-625 507 -594 856 -1215 1090 -1936 181 -557 271 -1103 292 -1765 6 -182 10
-211 29 -255 32 -71 69 -110 134 -142 139 -68 311 -11 381 125 21 41 62 235
85 407 24 171 35 295 42 488 6 157 9 177 23 171 239 -97 477 -164 714 -199
754 -111 1538 89 2146 549 l101 76 82 -86 c156 -163 433 -393 639 -532 490
-329 1041 -541 1624 -626 392 -57 901 -44 1295 34 239 48 488 120 707 206 61
24 113 44 115 44 1 0 3 -127 4 -283 0 -367 25 -610 95 -943 36 -172 62 -228
122 -267 33 -22 53 -27 104 -27 70 0 104 13 145 57 39 41 55 87 62 183 85
1056 361 2036 809 2875 312 585 744 1157 1233 1635 321 313 466 429 1059 845
654 459 666 468 680 560 18 123 -74 225 -202 225 -300 -1 -825 -159 -1203
-363 -822 -441 -1512 -1058 -1994 -1782 -148 -222 -235 -373 -361 -630 -176
-358 -301 -698 -390 -1060 -34 -136 -53 -195 -67 -207 -34 -30 -267 -143 -413
-201 -303 -121 -628 -198 -955 -226 -151 -14 -513 -6 -655 13 -844 115 -1603
549 -2124 1216 -105 134 -159 188 -220 217 -50 25 -67 28 -161 28 -141 0 -169
-15 -330 -170 -187 -180 -329 -282 -540 -389 -203 -103 -390 -166 -618 -208
-171 -32 -514 -31 -687 0 -237 44 -427 107 -628 210 -85 43 -240 138 -299 182
-4 3 -21 70 -38 148 -173 790 -558 1569 -1091 2207 -115 138 -378 405 -529
538 -482 424 -1060 757 -1613 931 -158 50 -211 59 -276 46z"/>
<path d="M36570 48889 c-444 -51 -739 -195 -847 -414 -71 -143 -50 -351 53
-519 170 -277 443 -540 733 -705 319 -181 494 -192 961 -61 402 113 673 304
803 565 50 101 68 167 74 281 21 370 -214 612 -741 763 -260 75 -459 102 -751
100 -115 -1 -244 -5 -285 -10z"/>
</g>
</svg>
