<svg width="90" height="108" viewBox="0 0 90 108" fill="none" xmlns="http://www.w3.org/2000/svg">
    <g opacity="0.2">
        <path opacity="0.2" d="M38.3346 107.272C59.5062 107.272 76.6691 105.194 76.6691 102.63C76.6691 100.066 59.5062 97.9872 38.3346 97.9872C17.163 97.9872 0 100.066 0 102.63C0 105.194 17.163 107.272 38.3346 107.272Z" fill="#000072"/>
    </g>
    <path d="M56.8945 83.2111C56.8945 83.2111 67.5381 82.7655 67.1042 76.8538C66.5258 68.9741 58.0916 64.6948 58.3703 55.2641C58.8471 39.1376 88.6744 38.4176 89.1263 58.1065C89.2521 63.6023 86.5839 65.4265 84.1436 65.5149C80.3293 65.6528 78.3313 62.7092 77.838 58.8741C76.9361 51.8621 67.1189 52.1951 66.5013 58.8902C65.9999 64.3237 78.7508 72.9068 74.0795 82.5785C70.8546 89.2534 63.1682 90.6261 58.3586 90.2953C57.3929 90.2304 56.8945 83.2111 56.8945 83.2111Z" fill="#F7CD9D"/>
    <g opacity="0.5">
        <path opacity="0.5" d="M89.0955 59.4862C87.9662 40.7612 59.5538 41.4052 58.4022 56.7722C58.3654 56.271 58.3548 55.7682 58.3707 55.2659C58.8474 39.1383 88.6752 38.4191 89.1266 58.1079C89.1373 58.5968 89.1266 59.0552 89.0955 59.4862Z" fill="white"/>
    </g>
    <g opacity="0.3">
        <path opacity="0.3" d="M57.1197 85.5987C57.3551 87.6408 57.7718 90.2583 58.3597 90.2979C63.1689 90.628 70.8539 89.2559 74.0795 82.5796C75.7985 79.022 75.1588 75.6134 73.69 72.4524C73.8565 74.2088 74.5335 76.1984 73.2458 78.846C70.0342 85.4534 61.9352 85.8946 57.1197 85.5987Z" fill="#000072"/>
    </g>
    <g opacity="0.3">
        <path opacity="0.3" d="M77.8387 58.8766C78.3323 62.7107 80.3286 65.655 84.1439 65.5149C85.8383 65.4544 87.645 64.554 88.5472 62.1683C87.667 62.8651 86.6364 63.1724 85.6425 63.208C81.6185 63.3547 80.4371 60.4882 80.0121 56.4308C78.7618 44.4981 58.378 51.616 67.9092 63.1567C68.2268 63.5414 67.029 61.5796 66.6256 60.2762C66.5067 59.7946 66.4609 59.3322 66.5005 58.8906C67.1214 52.1959 76.9365 51.8625 77.8387 58.8766Z" fill="#000072"/>
    </g>
    <path d="M59.713 91.0373C59.172 91.0373 58.6993 91.0167 58.3116 90.9903C57.5554 90.9383 57.0547 90.2594 56.5769 86.8258C56.3311 85.0599 56.2072 83.3343 56.202 83.2617L56.1514 82.5488L56.8659 82.5183C56.9282 82.5158 63.1216 82.2212 65.5213 79.5267C66.195 78.7697 66.4869 77.913 66.4128 76.9059C66.1616 73.4822 64.3275 70.7444 62.3855 67.8471C59.9932 64.276 57.5198 60.5831 57.6775 55.2469C57.9247 46.8794 65.6419 42.5271 73.1512 42.5513C77.4239 42.5653 81.4208 43.9175 84.4058 46.3586C87.8379 49.1661 89.7109 53.2239 89.8227 58.0947C89.9562 63.9261 86.9903 66.1116 84.1703 66.2132C80.3781 66.3555 77.7521 63.6415 77.1506 58.9669C76.7414 55.7849 74.309 54.4063 72.0682 54.4411C69.8464 54.4811 67.4779 55.8931 67.1948 58.9584C67.0279 60.7698 68.7399 63.2773 70.5528 65.9323C73.7736 70.6491 77.7822 76.5197 74.707 82.8851C73.182 86.0414 70.6114 88.3398 67.0668 89.7162C64.2882 90.7919 61.5911 91.0373 59.713 91.0373ZM58.6101 89.6161C60.8723 89.7404 69.8541 89.7309 73.4545 82.2777C76.1798 76.6367 72.5798 71.3646 69.4037 66.7134C67.3609 63.7218 65.5968 61.1388 65.8095 58.8282C66.1693 54.9282 69.2937 53.0984 72.0418 53.0493C74.8922 53.0031 78.0085 54.7525 78.5278 58.7875C78.7677 60.6539 79.7953 64.9769 84.1186 64.8221C85.4606 64.7737 88.567 64.024 88.4316 58.1241C88.2079 48.3596 80.5926 43.9644 73.145 43.9395H73.0859C66.2749 43.9395 59.2857 47.8271 59.0653 55.2869C58.9208 60.1783 61.2684 63.6829 63.5397 67.0721C65.4967 69.9937 67.5204 73.0135 67.7988 76.8047C67.9 78.1873 67.4827 79.4148 66.5573 80.4531C64.2747 83.0149 59.4713 83.689 57.6452 83.8559C57.851 86.3117 58.2522 88.9519 58.6094 89.6161H58.6101Z" fill="#000072"/>
    <path d="M65.3878 92.2208H11.3283C12.0354 88.3552 13.0671 84.4045 14.2432 80.5859C16.0275 74.7937 18.1506 69.3159 19.9976 64.9361C20.039 64.8404 20.079 64.7451 20.1172 64.6512C20.2008 64.4531 20.2877 64.2551 20.3691 64.0622C20.5525 63.6349 20.7307 63.2186 20.9079 62.8152C21.1524 62.2506 21.3898 61.7127 21.6201 61.2015C21.7903 60.8226 21.9553 60.4559 22.1152 60.1053C22.3165 59.6605 22.5088 59.2423 22.6921 58.8506C23.7763 56.507 24.4746 55.1365 24.4746 55.1365H52.2404C52.2404 55.1365 52.2492 55.1537 52.2664 55.19C52.3255 55.3048 52.4784 55.6089 52.7065 56.0779V56.0798C53.1045 56.8929 53.7334 58.2069 54.5099 59.9069C54.5396 59.9732 54.5693 60.0392 54.6005 60.1067C54.7446 60.4265 54.8957 60.7584 55.0505 61.1039C55.283 61.6269 55.5272 62.1778 55.7799 62.7543C55.9511 63.1455 56.126 63.5503 56.3048 63.9686C56.3414 64.0519 56.3759 64.1337 56.4126 64.2169C56.4592 64.3317 56.5098 64.4498 56.5593 64.5679C58.1924 68.4188 60.0599 73.1624 61.7243 78.239C61.9781 79.0156 62.2271 79.798 62.4713 80.5863C63.6505 84.4045 64.6807 88.3552 65.3878 92.2208Z" fill="#F7CD9D"/>
    <path d="M37.2746 89.3381C43.5799 89.3381 48.6913 84.5145 48.6913 78.5643C48.6913 72.6142 43.5799 67.7906 37.2746 67.7906C30.9694 67.7906 25.858 72.6142 25.858 78.5643C25.858 84.5145 30.9694 89.3381 37.2746 89.3381Z" fill="white"/>
    <path d="M65.3889 92.2358H11.3294C11.2276 92.2355 11.1271 92.2129 11.035 92.1696C10.9429 92.1262 10.8614 92.0633 10.7962 91.9851C10.731 91.9069 10.6838 91.8153 10.6578 91.7169C10.6318 91.6185 10.6277 91.5156 10.6458 91.4154C13.86 73.8875 23.7579 54.334 23.8577 54.1385C23.9425 53.9763 24.0879 53.854 24.2622 53.7984C24.4366 53.7427 24.626 53.758 24.7891 53.8411C24.9522 53.9242 25.076 54.0683 25.1335 54.2421C25.191 54.4159 25.1776 54.6054 25.0962 54.7694C24.999 54.9601 15.4964 73.7349 12.1678 90.8458H64.5505C61.2222 73.7349 51.7196 54.9601 51.6224 54.7694C51.581 54.6881 51.556 54.5994 51.5488 54.5084C51.5417 54.4175 51.5525 54.326 51.5807 54.2392C51.6089 54.1524 51.6539 54.0721 51.7132 54.0027C51.7724 53.9333 51.8448 53.8763 51.9261 53.8349C52.0074 53.7934 52.096 53.7684 52.187 53.7613C52.278 53.7541 52.3694 53.765 52.4562 53.7932C52.543 53.8214 52.6234 53.8664 52.6927 53.9256C52.7621 53.9849 52.8191 54.0572 52.8606 54.1385C52.9603 54.334 62.8586 73.8875 66.0725 91.4154C66.0906 91.5156 66.0865 91.6185 66.0605 91.7169C66.0345 91.8153 65.9872 91.9069 65.9221 91.9851C65.8569 92.0633 65.7754 92.1262 65.6833 92.1696C65.5912 92.2129 65.4907 92.2355 65.3889 92.2358Z" fill="#000072"/>
    <path d="M21.1811 86.6358C18.8629 80.0677 8.90294 78.3292 6.29495 89.0021C4.29651 97.1807 10.6414 99.0633 10.6414 99.0633H63.9076C63.9076 99.0633 70.2524 97.1807 68.254 89.0021C65.646 78.3296 55.686 80.0677 53.3678 86.6358" fill="#F7CD9D"/>
    <g opacity="0.5">
        <path opacity="0.5" d="M21.1815 86.6355H21.1991V88.0156H21.1815C18.8621 81.4485 8.90222 79.7093 6.2946 90.3815C6.10562 91.135 5.98291 91.9036 5.92784 92.6785C5.85449 91.6237 5.95058 90.4046 6.2946 89.0003C8.90222 78.3293 18.8621 80.0684 21.1815 86.6355Z" fill="white"/>
    </g>
    <g opacity="0.5">
        <path opacity="0.5" d="M68.6192 92.6796C68.5647 91.9048 68.4428 91.1362 68.2547 90.3826C65.8213 80.423 56.9836 81.2724 53.9297 86.7683C53.7797 87.0382 53.3707 86.9355 53.3707 86.6267C55.6952 80.0666 65.6485 78.3344 68.2547 89.0014C68.5969 90.4053 68.6941 91.6248 68.6192 92.6796Z" fill="white"/>
    </g>
    <path d="M20.8536 86.7514C18.6795 82.577 13.747 80.3064 9.89941 83.7807C8.0363 85.5869 7.11207 88.2162 6.75632 90.7629C6.30595 94.0171 7.61269 97.0949 10.7539 98.365L10.8394 98.3969L10.6417 98.3679C10.5511 98.3617 64.6843 98.3764 63.7961 98.3654C64.9222 97.9123 65.9007 97.1559 66.623 96.1803C68.1634 94.0993 68.0948 91.2419 67.4093 88.8279C66.7433 86.3597 65.4707 83.8947 63.1319 82.7057C59.4929 80.8576 55.32 83.2852 53.696 86.751C53.6594 86.8297 53.5948 86.8919 53.5148 86.9255C53.4348 86.9591 53.3451 86.9617 53.2633 86.9328C53.1815 86.9039 53.1133 86.8456 53.0722 86.7692C53.031 86.6928 53.0198 86.6038 53.0406 86.5196C53.3991 85.0706 54.175 83.7587 55.272 82.7464C58.985 79.3452 64.4291 80.1725 67.1434 84.3943C68.3695 86.2801 69.0245 88.3878 69.3186 90.581C69.7433 93.6196 68.7718 96.8411 66.1704 98.6679C65.5875 99.0934 64.9467 99.433 64.2673 99.6765C64.1672 99.7099 64.0312 99.7616 63.916 99.7579C63.92 99.7612 10.6417 99.7557 10.6421 99.7579C10.517 99.7631 10.3876 99.711 10.2823 99.6765C9.60314 99.4327 8.96221 99.0934 8.37885 98.6687C5.04469 96.2921 4.58991 92.1129 5.6535 88.4285C6.2117 86.3149 7.2122 84.1889 8.86112 82.6624C11.1599 80.4854 14.6276 80.0178 17.434 81.4448C18.1138 81.7789 18.7434 82.2067 19.3044 82.7156C20.4271 83.7238 21.2094 85.0885 21.5083 86.52C21.59 86.9234 21.0355 87.1068 20.8532 86.7514H20.8536Z" fill="#000072"/>
    <path d="M73.9617 91.6633C73.2319 96.9343 70.4123 101.156 67.0451 102.191C66.7133 102.294 66.3764 102.38 66.0358 102.448C63.4509 102.976 61.2376 102.441 60.0805 102.146C57.7802 101.559 56.1313 101.152 53.7268 100.885C50.7041 100.546 46.4805 100.424 38.2528 100.424C30.025 100.424 25.803 100.546 22.7802 100.885L22.5576 100.911C22.4842 100.918 22.4108 100.926 22.3375 100.937C21.7588 101.008 21.2218 101.088 20.7043 101.178C20.6398 101.189 20.5756 101.199 20.5133 101.211C20.2565 101.258 20.0042 101.305 19.7523 101.358C19.6895 101.37 19.6272 101.382 19.5645 101.394C19.5018 101.406 19.4394 101.421 19.3771 101.434C18.9392 101.528 18.5031 101.629 18.0512 101.738C17.9871 101.754 17.9229 101.77 17.8569 101.785C17.4017 101.895 16.9308 102.016 16.4265 102.145C15.2973 102.433 13.1569 102.952 10.6498 102.484C10.6102 102.475 10.5702 102.468 10.5284 102.459C10.1684 102.388 9.81232 102.298 9.46151 102.19C8.35685 101.85 7.31087 101.167 6.37784 100.219C5.26768 99.0875 4.31742 97.5758 3.62242 95.8124C3.50946 95.531 3.40469 95.2426 3.30812 94.9472C3.25934 94.8005 3.21239 94.652 3.16545 94.5027C3.07523 94.202 2.99014 93.8961 2.91349 93.5858C2.75804 92.9517 2.63562 92.3098 2.54674 91.663C2.40774 90.6551 2.35566 89.3972 2.59368 88.2488C2.62669 88.0858 2.66667 87.926 2.71361 87.7695C2.73635 87.6914 2.76055 87.6114 2.78696 87.5348C2.83832 87.3822 2.89807 87.2326 2.96593 87.0866C3.03216 86.9425 3.10636 86.8022 3.18819 86.6663C3.26972 86.5317 3.35963 86.4023 3.45739 86.279C3.53017 86.1879 3.60792 86.1008 3.69027 86.0182C4.65814 85.0229 5.69532 85.1688 5.69532 85.1688L5.72979 85.0992C5.74226 85.0783 5.7562 85.0504 5.77344 85.0192C5.83432 84.9114 5.92967 84.7518 6.05657 84.5692C6.2 84.363 6.35942 84.1684 6.53335 83.9872C6.55939 83.9597 6.58689 83.9318 6.6166 83.9039C6.92761 83.6017 7.31343 83.3255 7.76307 83.1917C9.63095 82.6375 10.7462 83.5009 11.0851 83.8276C11.0954 83.8379 11.106 83.8467 11.1145 83.857L11.1596 83.9021C11.1702 83.9142 11.179 83.9248 11.186 83.9318C11.1886 83.9354 11.1914 83.9388 11.1944 83.9421C11.1944 83.9421 12.4594 82.9746 14.0159 83.2991C14.0646 83.3098 14.1116 83.32 14.1585 83.3321C14.192 83.3392 14.225 83.348 14.2575 83.3585C14.2676 83.3605 14.2774 83.3633 14.2869 83.367C14.3357 83.3791 14.3826 83.393 14.4296 83.4088C14.4831 83.426 14.537 83.4455 14.5891 83.4645C14.5961 83.4678 14.603 83.4697 14.61 83.473C14.6366 83.4819 14.6627 83.4923 14.6881 83.5041C14.805 83.5503 14.9193 83.6026 15.0307 83.6608C15.0897 83.6919 15.1488 83.7231 15.206 83.7579C15.2632 83.7928 15.3208 83.8258 15.3761 83.8621C15.3901 83.8709 15.4022 83.8797 15.4128 83.8867C15.4598 83.9178 15.5067 83.9509 15.5518 83.9839C15.6648 84.0657 15.7759 84.1522 15.8819 84.2461C15.9046 84.2637 15.9255 84.2828 15.9461 84.3018C15.9897 84.3385 16.0315 84.38 16.073 84.4199C16.1669 84.512 16.2608 84.6073 16.3491 84.7082C16.3752 84.7361 16.3998 84.7639 16.4225 84.7933C16.4958 84.8784 16.5692 84.969 16.6396 85.061C16.6866 85.1219 16.7317 85.1824 16.7771 85.247C16.8586 85.3614 16.9385 85.4813 17.0148 85.6049C17.0672 85.6882 17.1175 85.7714 17.1663 85.8583C17.2115 85.9383 17.2566 86.02 17.3016 86.1033C17.3081 86.114 17.3138 86.125 17.3188 86.1363C17.4094 86.3116 17.4978 86.4943 17.5829 86.6817V86.6835C17.6682 86.8791 17.7499 87.0801 17.8279 87.2865C17.8646 87.3906 17.9045 87.4966 17.9409 87.6045C17.9772 87.7123 18.012 87.8183 18.0468 87.9257C18.0472 87.9265 18.0474 87.9274 18.0474 87.9283C18.0474 87.9292 18.0472 87.9301 18.0468 87.9309C18.1755 88.3465 18.2895 88.7832 18.389 89.2409C18.389 89.2479 18.3927 89.2567 18.3942 89.2651C18.4066 89.3176 18.4169 89.3696 18.4272 89.4217C18.4374 89.4738 18.4462 89.5226 18.4569 89.5728C18.563 90.1107 18.647 90.6748 18.7088 91.265H57.7905C57.8533 90.6724 57.9389 90.1036 58.0472 89.5589C58.7176 86.1294 60.2378 83.7682 62.493 83.2991C64.0495 82.9746 65.3144 83.9421 65.3144 83.9421C65.3144 83.9421 66.473 82.5176 68.7454 83.1917C70.0555 83.5808 70.8146 85.1688 70.8146 85.1688C70.8146 85.1688 72.0249 84.9983 73.0518 86.279C74.1858 87.695 74.1891 90.0126 73.9617 91.6633Z" fill="#F7CD9D"/>
    <path d="M73.9618 91.6633C73.2319 96.9343 70.4123 101.156 67.0451 102.191C66.7133 102.294 66.3765 102.38 66.0358 102.448C63.451 102.976 61.2376 102.441 60.0805 102.146C57.7802 101.559 56.1313 101.152 53.7268 100.885C50.7041 100.546 46.4805 100.424 38.2528 100.424C30.025 100.424 25.803 100.546 22.7802 100.885L22.5576 100.911L22.3375 100.937C21.7588 101.008 21.2218 101.088 20.7043 101.178C20.6398 101.189 20.5774 101.199 20.5133 101.211C20.2565 101.258 20.0042 101.305 19.7523 101.358C19.6895 101.37 19.6272 101.382 19.5645 101.394C19.5018 101.406 19.4394 101.421 19.3771 101.434C18.9392 101.528 18.5031 101.629 18.0512 101.738C17.9871 101.754 17.9229 101.77 17.8569 101.785C17.4017 101.895 16.9308 102.016 16.4265 102.145C15.2973 102.433 13.1569 102.952 10.6498 102.484V102.482C10.6102 102.475 10.5702 102.468 10.5284 102.459C10.1684 102.388 9.81232 102.298 9.46151 102.19C8.35685 101.85 7.31087 101.167 6.37785 100.219C5.26768 99.0857 4.31926 97.5757 3.62242 95.8124C3.51142 95.531 3.40665 95.2426 3.30812 94.9472C3.25934 94.8005 3.21239 94.652 3.16545 94.5027C3.07523 94.202 2.99014 93.8961 2.91349 93.5858C2.75804 92.9516 2.63562 92.3098 2.54674 91.6629C2.40774 90.6551 2.35566 89.3971 2.59368 88.2488C2.62669 88.0857 2.66667 87.926 2.71361 87.7695C2.73635 87.6914 2.76055 87.6114 2.78696 87.5348C2.84087 87.3804 2.89992 87.2307 2.96593 87.0866C3.03216 86.9425 3.10636 86.8021 3.18819 86.6663C3.27035 86.5316 3.36087 86.4023 3.45922 86.279C3.5314 86.1879 3.60853 86.1009 3.69027 86.0182C4.65814 85.0229 5.69532 85.1688 5.69532 85.1688L5.72979 85.0991C5.74226 85.0782 5.7562 85.0504 5.77344 85.0192C5.83432 84.9114 5.92967 84.7518 6.05657 84.5692C6.20057 84.3634 6.35995 84.1688 6.53335 83.9871C6.55939 83.9596 6.58689 83.9318 6.6166 83.9039C6.92761 83.6017 7.31343 83.3255 7.76307 83.1917C9.63095 82.6375 10.7462 83.5008 11.0851 83.8276C11.0954 83.8379 11.106 83.8467 11.1145 83.857L11.1596 83.9021C11.1702 83.9142 11.179 83.9248 11.186 83.9318C11.1886 83.9354 11.1914 83.9388 11.1944 83.942C11.1944 83.942 12.4594 82.9745 14.0159 83.2991C14.0646 83.3098 14.1116 83.32 14.1585 83.3321C14.192 83.3392 14.225 83.348 14.2575 83.3585C14.2676 83.3605 14.2774 83.3633 14.2869 83.367C14.3357 83.3791 14.3826 83.393 14.4296 83.4088C14.4831 83.426 14.537 83.4455 14.5891 83.4645C14.5961 83.4678 14.603 83.4697 14.61 83.473C14.6366 83.4819 14.6627 83.4923 14.6881 83.5041C14.805 83.5503 14.9193 83.6026 15.0307 83.6607C15.0897 83.6919 15.1488 83.7231 15.206 83.7579C15.2632 83.7928 15.3208 83.8258 15.3761 83.8621C15.3901 83.8709 15.4022 83.8797 15.4128 83.8867C15.4598 83.9178 15.5067 83.9508 15.5518 83.9839C15.6648 84.0656 15.7759 84.1522 15.8819 84.2461C15.9046 84.2637 15.9255 84.2828 15.9461 84.3018C15.9897 84.3385 16.0315 84.3799 16.073 84.4199C16.1669 84.512 16.2608 84.6073 16.3491 84.7082C16.3752 84.7361 16.3998 84.7639 16.4225 84.7933C16.4958 84.8784 16.5692 84.9689 16.6396 85.061C16.6866 85.1219 16.7317 85.1824 16.7771 85.247C16.8604 85.3614 16.9385 85.4813 17.0148 85.6049C17.0687 85.6882 17.1193 85.7714 17.1663 85.8583C17.2115 85.9383 17.2566 86.0199 17.3016 86.1033C17.3081 86.1139 17.3138 86.125 17.3188 86.1363C17.4127 86.3116 17.4997 86.4943 17.5829 86.6817V86.6835C17.6698 86.8783 17.7516 87.0782 17.8279 87.2865C17.8646 87.3906 17.9045 87.4966 17.9409 87.6044C17.9772 87.7123 18.012 87.8183 18.0468 87.9257C18.0472 87.9265 18.0474 87.9274 18.0474 87.9283C18.0474 87.9292 18.0472 87.93 18.0468 87.9309C18.1772 88.3465 18.2912 88.7832 18.389 89.2409C18.389 89.2479 18.3927 89.2567 18.3942 89.2651C18.4066 89.3176 18.4169 89.3696 18.4272 89.4217C18.4378 89.4668 18.4462 89.5138 18.455 89.5589C18.4542 89.5635 18.4542 89.5682 18.455 89.5728C18.5211 90.358 18.5731 91.2093 18.6113 92.1335C18.6113 92.1735 18.6149 92.2134 18.6164 92.2534C18.7294 94.6373 21.0348 96.2928 23.3351 95.6536L23.3717 95.6433C25.0287 95.1827 25.8814 93.3537 25.1494 91.7972C24.2942 89.9764 23.8622 87.9857 23.8856 85.9742C23.9567 78.8104 29.7606 72.9123 36.9222 72.7318C44.4707 72.5419 50.6501 78.605 50.6501 86.1103C50.6529 87.9186 50.2876 89.7086 49.5767 91.3714C48.8971 92.9594 49.7967 94.7774 51.4786 95.1709C52.0537 95.3057 52.6184 95.4486 53.1727 95.5997C55.4711 96.2268 57.7751 94.5709 57.8792 92.1911C57.8792 92.172 57.8792 92.1526 57.8792 92.1335C57.9159 91.2041 57.9695 90.3478 58.0373 89.5589C58.7077 86.1294 60.2279 83.7682 62.4831 83.2991C64.0396 82.9745 65.3045 83.942 65.3045 83.942C65.3045 83.942 66.4631 82.5176 68.7355 83.1917C70.0456 83.5808 70.8047 85.1688 70.8047 85.1688C70.8047 85.1688 72.015 84.9983 73.0419 86.279C74.1858 87.695 74.1891 90.0125 73.9618 91.6633Z" fill="white"/>
    <g opacity="0.3">
        <path opacity="0.3" d="M73.9614 91.664C73.233 96.9343 70.413 101.155 67.0451 102.193C64.0359 103.117 61.3854 102.48 60.0801 102.146C54.8858 100.819 53.0234 100.425 38.2531 100.425C23.4829 100.425 21.6209 100.819 16.4265 102.146C15.1213 102.48 12.4682 103.117 9.46114 102.193C6.09361 101.155 3.27364 96.9343 2.54527 91.664C2.42277 90.771 2.36703 89.6817 2.5229 88.6482C2.5295 88.7106 2.5361 88.7729 2.54527 88.8316C3.27364 94.1018 6.09361 98.325 9.46114 99.3607C12.4685 100.287 15.1213 99.6479 16.4265 99.3138C21.6209 97.9861 23.4832 96.8331 38.2531 96.8331C53.0231 96.8331 54.8858 97.9861 60.0801 99.3138C61.3854 99.6479 64.0359 100.287 67.0451 99.3607C70.413 98.325 73.233 94.1018 73.9614 88.8316C73.9702 88.7714 73.9772 88.7091 73.9838 88.6482C74.1396 89.6817 74.0839 90.771 73.9614 91.664Z" fill="#000072"/>
    </g>
    <path d="M57.4457 91.2287C57.4457 88.2397 58.2915 84.6638 61.1202 83.0651C61.8805 82.6588 62.7809 82.4464 63.6387 82.5627C64.349 82.6528 65.029 82.9054 65.6258 83.301C65.6225 83.301 65.694 83.3424 65.5891 83.2797C65.4787 83.2226 65.3538 83.1997 65.2303 83.2139C65.1068 83.2281 64.9903 83.2787 64.8956 83.3593C65.8459 82.3588 67.6426 82.0144 69.1331 82.574C70.16 82.9624 70.9126 83.8474 71.4198 84.779C71.3263 84.5776 71.0314 84.4203 70.833 84.4489C72.245 84.3994 73.4072 85.3207 74.0344 86.4613C75.3474 88.9977 74.7653 92.1397 74.0325 94.7587C73.057 97.8457 71.3079 100.951 68.2958 102.49C66.352 103.42 64.0972 103.57 61.9876 103.296C59.8051 102.966 57.7179 102.226 55.5661 101.895C49.895 101.033 44.0075 101.239 38.2553 101.167C32.5017 101.23 26.615 101.02 20.9409 101.875C18.7888 102.205 16.7012 102.939 14.5194 103.269C12.605 103.522 10.6003 103.398 8.78229 102.704C4.96108 101.12 2.90323 96.9189 2.08427 93.0999C1.59172 90.6888 1.34489 87.6873 3.05213 85.6735C3.65691 84.9664 4.64201 84.414 5.67515 84.4632C5.60635 84.4608 5.53758 84.469 5.47124 84.4874C5.39339 84.5104 5.32088 84.5486 5.25792 84.5999C5.19497 84.6511 5.14281 84.7144 5.10448 84.7859C5.65461 83.7645 6.52822 82.7805 7.7044 82.4864C9.03755 82.1028 10.6065 82.354 11.625 83.382C11.6158 83.3739 11.6928 83.448 11.6067 83.3662C11.5471 83.3147 11.4781 83.2754 11.4035 83.2503C11.3256 83.2243 11.2433 83.2142 11.1614 83.2205C11.0795 83.2268 10.9997 83.2494 10.9267 83.287C10.8222 83.3486 10.893 83.3072 10.89 83.3076L10.9267 83.2837C12.2441 82.4226 13.8358 82.2663 15.2625 82.965C18.1774 84.4797 18.9839 88.2239 19.0661 91.2269C19.0829 91.6534 18.4514 91.722 18.3751 91.3002C18.085 89.893 17.7186 88.5129 17.1556 87.2557C16.1973 85.0262 14.0441 82.9577 11.691 84.4471L11.6697 84.4614C11.6394 84.4821 11.6079 84.5012 11.5755 84.5186C11.4822 84.5671 11.3801 84.5964 11.2752 84.6046C11.1704 84.6129 11.0649 84.6 10.9652 84.5666C10.8185 84.5204 10.7063 84.428 10.6043 84.322C9.90309 83.6545 8.77789 83.5683 7.87201 83.894C7.25879 84.1313 6.80842 84.6807 6.46 85.2396C6.33274 85.489 6.16917 85.7564 5.8732 85.8305C5.78501 85.8554 5.69333 85.8657 5.6018 85.8609C5.31647 85.8525 5.03187 85.9342 4.76083 86.0769C2.67034 87.3239 3.04553 90.7406 3.4772 92.8076C4.18283 96.064 5.82222 99.5823 8.86848 101.17C11.2212 102.258 13.9256 102.077 16.3869 101.409C23.4891 99.3849 30.9595 99.7884 38.2531 99.6835C45.5475 99.7755 53.0201 99.3692 60.134 101.388C62.4483 102.021 64.9257 102.191 67.1915 101.338C70.4827 99.9626 72.2916 96.1458 73.013 92.8046C73.332 91.327 73.5033 89.7239 73.1703 88.2503C72.9238 87.0983 72.1515 85.9012 70.9144 85.8796C70.8209 85.8844 70.7272 85.8739 70.6371 85.8484C70.5352 85.8184 70.4402 85.7684 70.3577 85.7015C70.2751 85.6345 70.2067 85.5518 70.1563 85.4582C70.1138 85.376 70.083 85.321 70.0397 85.2503C69.6795 84.6667 69.2035 84.0964 68.5496 83.8779C67.6947 83.6046 66.6674 83.6798 65.9893 84.2677C65.9563 84.2963 65.9159 84.3312 65.8851 84.3631C65.6522 84.622 65.2407 84.6983 64.9338 84.5299C64.256 84.0737 63.4194 83.8144 62.6148 83.9905C59.7086 84.6818 58.7789 88.7583 58.1367 91.3024C58.0347 91.7059 57.4549 91.6354 57.4457 91.2291V91.2287Z" fill="#000072"/>
    <path d="M10.7086 98.2209C12.565 98.1181 13.9739 96.3023 13.8556 94.1652C13.7372 92.0281 12.1364 90.379 10.28 90.4818C8.42361 90.5846 7.01467 92.4004 7.13303 94.5375C7.25139 96.6746 8.85223 98.3238 10.7086 98.2209Z" fill="#FFA1A8"/>
    <path d="M5.75946 92.2487C6.4615 92.1494 6.93672 91.4049 6.82088 90.5857C6.70504 89.7666 6.04201 89.183 5.33997 89.2823C4.63792 89.3816 4.16271 90.1261 4.27855 90.9453C4.39439 91.7644 5.05741 92.348 5.75946 92.2487Z" fill="#FFA1A8"/>
    <path d="M9.4243 89.365C10.1262 89.2639 10.5995 88.518 10.4815 87.699C10.3635 86.8801 9.69882 86.2981 8.99693 86.3993C8.29505 86.5004 7.82173 87.2463 7.93974 88.0653C8.05776 88.8843 8.72242 89.4662 9.4243 89.365Z" fill="#FFA1A8"/>
    <path d="M13.6086 90.0046C14.3105 89.9035 14.7838 89.1576 14.6658 88.3386C14.5478 87.5196 13.8831 86.9377 13.1812 87.0389C12.4793 87.14 12.006 87.8859 12.124 88.7049C12.242 89.5238 12.9067 90.1058 13.6086 90.0046Z" fill="#FFA1A8"/>
    <path d="M69.1935 94.5251C69.3119 92.388 67.903 90.5722 66.0466 90.4694C64.1902 90.3666 62.5894 92.0157 62.471 94.1528C62.3526 96.2899 63.7616 98.1057 65.618 98.2085C67.4743 98.3113 69.0752 96.6622 69.1935 94.5251Z" fill="#FFA1A8"/>
    <path d="M71.764 90.8199C71.8821 90.001 71.4087 89.2551 70.7069 89.1539C70.005 89.0528 69.3403 89.6347 69.2223 90.4536C69.1043 91.2726 69.5776 92.0185 70.2795 92.1197C70.9814 92.2208 71.646 91.6389 71.764 90.8199Z" fill="#FFA1A8"/>
    <path d="M68.3966 88.0599C68.5146 87.241 68.0413 86.4951 67.3394 86.3939C66.6375 86.2928 65.9728 86.8747 65.8548 87.6937C65.7368 88.5126 66.2101 89.2585 66.912 89.3597C67.6139 89.4608 68.2786 88.8789 68.3966 88.0599Z" fill="#FFA1A8"/>
    <path d="M63.9906 88.3793C64.1065 87.5601 63.6313 86.8156 62.9292 86.7163C62.2272 86.617 61.5641 87.2006 61.4483 88.0198C61.3325 88.8389 61.8077 89.5834 62.5097 89.6827C63.2118 89.782 63.8748 89.1984 63.9906 88.3793Z" fill="#FFA1A8"/>
    <g opacity="0.3">
        <path opacity="0.3" d="M9.23634 51.6626C9.2433 51.6765 9.25174 51.6886 9.25871 51.7022L9.22937 51.6542C9.23222 51.6565 9.23459 51.6594 9.23634 51.6626Z" fill="#6B184E"/>
        <path opacity="0.3" d="M9.2587 51.7022L10.1059 53.0617C9.81396 52.6216 9.52863 52.1716 9.2587 51.7022Z" fill="#6B184E"/>
    </g>
    <g opacity="0.3">
        <path opacity="0.3" d="M9.23486 51.2254L9.2488 51.2405C9.25577 51.2496 9.26237 51.2592 9.26934 51.2687L9.23486 51.2254Z" fill="#6B184E"/>
        <path opacity="0.3" d="M10.0912 52.2754C9.80771 51.9505 9.53265 51.6153 9.26968 51.2687L10.0912 52.2754Z" fill="#6B184E"/>
        <path opacity="0.3" d="M66.4547 52.2754L67.2747 51.2742C67.0132 51.6197 66.74 51.9523 66.4547 52.2754Z" fill="#6B184E"/>
    </g>
    <path d="M10.1066 52.6238C9.82179 52.2962 9.54514 51.9581 9.27667 51.6094L10.1066 52.6238Z" fill="white"/>
    <path d="M66.4 52.6238L67.2267 51.6112C66.9626 51.9611 66.685 52.2974 66.4 52.6238Z" fill="white"/>
    <g opacity="0.25">
        <path opacity="0.25" d="M67.2421 50.8319C67.2366 50.8422 67.2315 50.8528 67.226 50.8634C67.2309 50.8544 67.235 50.8449 67.2384 50.8352C67.2384 50.8352 67.2421 50.8334 67.2421 50.8319Z" fill="#6B184E"/>
    </g>
    <g opacity="0.3">
        <path opacity="0.3" d="M55.7821 62.7525C44.3629 66.53 32.304 66.5414 20.909 62.8148C21.1535 62.2503 21.3909 61.7124 21.6212 61.2011C21.7914 60.8223 21.9564 60.4555 22.1164 60.1049C22.3176 59.6601 22.5099 59.2419 22.6933 58.8502C23.7774 56.5067 24.4757 55.1361 24.4757 55.1361H52.2415C52.2415 55.1361 52.2503 55.1533 52.2675 55.1897C52.3266 55.3044 52.4795 55.6085 52.7076 56.0776V56.0794C53.1056 56.8925 53.7346 58.2066 54.511 59.9065C54.5407 59.9729 54.5704 60.0389 54.6016 60.1064C54.7457 60.4262 54.8968 60.7581 55.0516 61.1036C55.2852 61.6247 55.532 62.1756 55.7821 62.7525Z" fill="#000072"/>
    </g>
    <path d="M74.1422 45.7109C73.9841 47.0972 71.1557 45.7842 70.5392 45.4817C70.4904 45.4571 70.4365 45.5077 70.4504 45.5682C70.5198 45.8417 70.6045 46.1111 70.7042 46.3751C70.7912 46.608 70.9005 46.8823 71.0446 47.204C71.5243 48.2653 71.9134 49.0887 71.6963 49.6465C71.4652 50.2374 70.5044 50.4666 69.3054 50.3309C68.8419 50.2788 68.3519 50.5429 67.8843 50.9459C67.6698 51.1346 67.4669 51.3359 67.2766 51.5489L67.2747 51.5507L67.2678 51.5558L67.226 51.6116C67.2366 51.5958 67.2487 51.5801 67.259 51.5647C67.0906 51.7521 66.927 51.9486 66.7708 52.143C66.6388 52.3099 66.5104 52.4731 66.392 52.6312C66.3417 52.6902 66.2896 52.7478 66.2339 52.805C65.1967 53.9619 64.0382 55.0039 62.7783 55.9132C61.0707 57.1136 59.1874 58.0606 57.2015 58.8022V58.7882C57.2015 58.7882 54.4776 59.7924 50.4488 60.7152C50.4488 60.7152 46.8487 61.4853 43.5582 61.9104C41.8025 62.1021 40.038 62.2019 38.2718 62.2093C35.5058 62.2093 32.9451 61.9104 32.9451 61.9104C29.6564 61.4846 26.0549 60.7152 26.0549 60.7152C22.0276 59.7924 19.3019 58.7882 19.3019 58.7882V58.8022C17.3163 58.0606 15.433 57.1151 13.725 55.9132C12.5155 55.0383 11.3985 54.0422 10.3912 52.9403C10.2955 52.838 10.2034 52.7357 10.1132 52.6312C9.97423 52.4478 9.82459 52.256 9.66835 52.0631C9.52935 51.8911 9.38522 51.7209 9.23742 51.5558L9.27409 51.6098L9.22715 51.5489C9.22926 51.5507 9.23146 51.5524 9.23375 51.554C9.0707 51.3724 8.8986 51.199 8.7181 51.0347C8.21931 50.5829 7.69485 50.2737 7.1979 50.3309C6.00082 50.4666 5.03845 50.2374 4.8074 49.6465C4.58991 49.0887 4.98087 48.2653 5.45692 47.204C5.55472 46.9839 5.63871 46.7859 5.70888 46.6098C5.84858 46.271 5.96355 45.9225 6.0529 45.5671C6.065 45.5066 6.01622 45.4571 5.96414 45.4806C5.34946 45.7828 2.52106 47.0943 2.36115 45.7098C2.33328 45.4718 2.4323 45.0863 2.59734 44.5945C2.96409 43.4997 3.65176 41.8842 3.95066 40.2408C4.15384 39.1306 4.33282 38.1627 4.49089 37.3218C4.71094 36.1581 4.89065 35.2371 5.03479 34.511C5.43455 32.5026 5.57355 31.9866 5.57355 31.9866C5.58198 31.9397 6.80181 26.9988 8.62421 23.3609C6.80327 18.5066 5.60986 4.35281 8.66088 1.39751C11.1068 -0.975753 20.3042 4.00513 23.7565 7.48856C24.7588 7.06972 25.8671 6.71837 27.014 6.42497C28.4733 6.05308 29.9916 5.77362 31.4268 5.56493C33.1901 5.30821 34.8266 5.1615 36.0688 5.07678C37.1547 5.00563 37.9418 4.9829 38.2528 4.9829C38.5638 4.9829 39.3384 5.0038 40.4137 5.07495C40.7562 5.09952 41.1314 5.12703 41.5293 5.16004C42.5768 5.24879 43.7948 5.38009 45.0784 5.56677C46.5135 5.77362 48.0319 6.05308 49.4916 6.4268C50.638 6.72021 51.7464 7.06936 52.7487 7.48819C56.1991 4.00403 65.3984 -0.97612 67.8461 1.39714C70.8935 4.35244 69.7001 18.5062 67.8791 23.3606C69.0311 25.659 69.9432 28.4786 70.4574 30.2555C70.7581 31.2912 70.9265 31.9705 70.9302 31.9877C70.9302 31.9877 71.0688 32.507 71.4704 34.5278C71.6127 35.2382 71.7865 36.1383 72 37.2657C72.1599 38.1187 72.344 39.1057 72.5501 40.2419C72.8402 41.8295 73.4919 43.3934 73.8671 44.4859V44.4878C74.0531 45.0298 74.1719 45.4556 74.1422 45.7109Z" fill="#F7CD9D"/>
    <g opacity="0.5">
        <path opacity="0.5" d="M69.7034 11.1242C69.63 7.57144 69.0935 4.48594 67.8461 3.27822C65.3984 0.905328 56.1991 5.88621 52.7487 9.36964C51.7464 8.9508 50.6381 8.59945 49.4916 8.30605C48.0319 7.9327 46.5135 7.65286 45.0784 7.44601C43.7948 7.2586 42.5768 7.12841 41.5294 7.03965C41.1314 7.00664 40.7562 6.97877 40.4137 6.95456C39.3384 6.88341 38.5601 6.86251 38.2528 6.86251C37.9454 6.86251 37.1547 6.88488 36.0688 6.9564C34.8266 7.03965 33.1901 7.18745 31.4268 7.44455C29.9917 7.65286 28.4733 7.9327 27.014 8.30422C25.8671 8.59762 24.7588 8.94897 23.7565 9.3678C20.3042 5.88364 11.1068 0.903492 8.66089 3.27639C7.41393 4.48668 6.8748 7.56741 6.80182 11.1249C6.7116 6.81446 7.19791 2.81501 8.66089 1.39751C11.1068 -0.975753 20.3042 4.00513 23.7565 7.48856C24.7588 7.06972 25.8671 6.71837 27.014 6.42497C28.4733 6.05308 29.9917 5.77362 31.4268 5.56493C33.1901 5.30821 34.8266 5.1615 36.0688 5.07678C37.1547 5.00563 37.9418 4.9829 38.2528 4.9829C38.5638 4.9829 39.3384 5.0038 40.4137 5.07495C40.7562 5.09952 41.1314 5.12703 41.5294 5.16004C42.5768 5.24879 43.7948 5.38009 45.0784 5.56677C46.5135 5.77362 48.0319 6.05308 49.4916 6.4268C50.6381 6.72021 51.7464 7.06936 52.7487 7.48819C56.1991 4.00403 65.3984 -0.97612 67.8461 1.39714C69.3091 2.81611 69.7936 6.81373 69.7034 11.1242Z" fill="white"/>
    </g>
    <path d="M5.71072 46.6109C5.85042 46.2721 5.9654 45.9236 6.05474 45.5682C6.06684 45.5077 6.01807 45.4582 5.96599 45.4817C5.35131 45.7839 2.5229 47.0954 2.363 45.7109C2.33512 45.4729 2.43415 45.0874 2.59919 44.5956C5.35461 43.3897 9.06395 42.0885 13.1569 41.5222C13.1569 41.5222 9.50002 43.6728 5.71072 46.6109Z" fill="white"/>
    <path d="M14.7857 47.1251C14.716 47.2069 12.6365 49.6704 10.392 52.9415C10.2962 52.8391 10.2042 52.7368 10.114 52.6323C9.97497 52.4489 9.82534 52.2571 9.6691 52.0642C9.5301 51.8922 9.38597 51.722 9.23817 51.557L9.27484 51.6109L9.2279 51.55C9.23001 51.5518 9.23221 51.5535 9.2345 51.5551C9.07145 51.3735 8.89935 51.2001 8.71884 51.0358C10.4675 49.6685 12.5118 48.2873 14.7857 47.1251Z" fill="white"/>
    <path d="M12.6497 35.7473C12.6497 35.7473 8.85014 36.2336 4.49274 37.3244C4.71279 36.1606 4.8925 35.2397 5.03663 34.5135C7.38019 34.6632 10.0003 35.023 12.6497 35.7473Z" fill="white"/>
    <path d="M74.1422 45.7109C73.9841 47.0972 71.1557 45.7842 70.5392 45.4817C70.4904 45.4571 70.4365 45.5077 70.4504 45.5682C70.5198 45.8417 70.6045 46.1111 70.7042 46.3751C67.0261 43.5584 63.5639 41.5222 63.5639 41.5222C67.5336 42.0723 71.1421 43.3134 73.8697 44.4859V44.4878C74.0531 45.0298 74.1719 45.4556 74.1422 45.7109Z" fill="white"/>
    <path d="M67.8843 50.9471C67.6698 51.1357 67.4669 51.337 67.2766 51.55L67.2747 51.5518L67.2678 51.557L67.226 51.6127C67.2366 51.5969 67.2487 51.5812 67.259 51.5658C67.0906 51.7532 66.9271 51.9498 66.7708 52.1441C66.6388 52.311 66.5104 52.4742 66.392 52.6323C66.3417 52.6913 66.2896 52.7489 66.2339 52.8061C64.026 49.6007 62.0019 47.2051 61.9341 47.1251C64.1595 48.2613 66.1609 49.6077 67.8843 50.9471Z" fill="white"/>
    <path d="M71.9993 37.2657C67.7361 36.2182 64.0686 35.7473 64.0686 35.7473C66.638 35.0435 69.1815 34.6859 71.4697 34.5278C71.6127 35.2397 71.7865 36.1383 71.9993 37.2657Z" fill="white"/>
    <g opacity="0.3">
        <path opacity="0.3" d="M71.0457 47.2051C71.5254 48.2665 71.9145 49.0898 71.6974 49.6476C71.4663 50.2385 70.5055 50.4677 69.3065 50.332C68.843 50.2799 68.353 50.544 67.8854 50.9471C67.6709 51.1357 67.468 51.337 67.2777 51.55L67.2758 51.5518L67.2689 51.557L67.227 51.6127C67.2377 51.5969 67.2498 51.5812 67.2601 51.5658C67.0917 51.7532 66.9281 51.9498 66.7719 52.1441C66.6399 52.311 66.5115 52.4742 66.393 52.6323C66.3428 52.6913 66.2907 52.7489 66.235 52.8061C65.1978 53.963 64.0393 55.0051 62.7794 55.9144C61.0718 57.1148 59.1885 58.0617 57.2026 58.8033V58.7894C57.2026 58.7894 54.4787 59.7935 50.4499 60.7163C50.4499 60.7163 46.8498 61.4865 43.5593 61.9115C41.8036 62.1033 40.0391 62.203 38.2729 62.2104C35.5069 62.2104 32.9462 61.9115 32.9462 61.9115C29.6575 61.4857 26.056 60.7163 26.056 60.7163C22.0287 59.7935 19.303 58.7894 19.303 58.7894V58.8033C17.3174 58.0617 15.4341 57.1162 13.7261 55.9144C12.5166 55.0394 11.3995 54.0433 10.3923 52.9415C10.2966 52.8391 10.2045 52.7368 10.1143 52.6323C9.97532 52.4489 9.82569 52.2571 9.66945 52.0642C9.53045 51.8922 9.38632 51.722 9.23851 51.557L9.27519 51.6109L9.22824 51.55C9.23035 51.5518 9.23256 51.5535 9.23485 51.5551C9.0718 51.3735 8.89969 51.2001 8.71919 51.0358C8.2204 50.584 7.69595 50.2748 7.199 50.332C6.00191 50.4677 5.03955 50.2385 4.8085 49.6476C4.59101 49.0898 4.98197 48.2665 5.45802 47.2051C5.55582 46.985 5.6398 46.787 5.70998 46.6109C5.72721 46.5691 5.74298 46.5291 5.75875 46.4892C6.15815 46.5794 6.65327 46.5919 7.199 46.531C7.69595 46.4734 8.2204 46.7829 8.71919 47.2344C8.89969 47.3989 9.0718 47.5723 9.23485 47.7541C9.23485 47.7541 9.22971 47.7504 9.22824 47.7486L9.27519 47.8095C9.26272 47.7922 9.24878 47.7728 9.23851 47.7556C9.38522 47.9206 9.53192 48.0911 9.66945 48.2632C9.82569 48.4557 9.97532 48.6471 10.1143 48.8313C10.2045 48.9354 10.2977 49.0377 10.3923 49.1404C11.3996 50.2421 12.5166 51.2381 13.7261 52.113C15.4341 53.3134 17.3174 54.2603 19.303 55.0023V54.9883C19.303 54.9883 22.0287 55.9925 26.056 56.9149C26.056 56.9149 29.6575 57.6851 32.9462 58.1101C32.9462 58.1101 35.5069 58.409 38.2729 58.409C40.0391 58.4016 41.8036 58.3019 43.5593 58.1101C46.8487 57.6851 50.4488 56.9149 50.4488 56.9149C54.4776 55.9925 57.2015 54.9883 57.2015 54.9883V55.0023C59.1874 54.2603 61.0707 53.3152 62.7783 52.113C64.0383 51.2038 65.1968 50.1617 66.2339 49.0047C66.2896 48.9475 66.3417 48.8903 66.3919 48.8313C66.5104 48.6732 66.6388 48.5096 66.7708 48.3431C66.927 48.1484 67.0906 47.9521 67.2589 47.7644C67.2487 47.7801 67.2366 47.7955 67.2259 47.8113L67.2677 47.7556L67.2747 47.7504H67.2766C67.4669 47.5376 67.6698 47.3363 67.8843 47.1479C68.3537 46.7444 68.8419 46.4807 69.3054 46.5328C69.8512 46.5937 70.3463 46.5812 70.7457 46.491C70.8256 46.696 70.9232 46.934 71.0457 47.2051Z" fill="#000072"/>
    </g>
    <path d="M37.8684 16.5228C37.3018 13.2319 36.2727 7.16142 36.0944 5.47436C36.089 5.4232 36.094 5.37149 36.1092 5.32234C36.1243 5.27318 36.1493 5.2276 36.1825 5.18835C36.2158 5.14911 36.2566 5.11701 36.3026 5.09399C36.3486 5.07097 36.3988 5.05751 36.4502 5.05443C37.3384 5.00198 37.9792 4.98438 38.2528 4.98438C38.5264 4.98438 39.155 5.00051 40.0326 5.05259C40.0839 5.05568 40.134 5.06913 40.18 5.09213C40.226 5.11513 40.2668 5.1472 40.3 5.18641C40.3332 5.22563 40.3581 5.27116 40.3733 5.32027C40.3884 5.36938 40.3934 5.42105 40.388 5.47216C40.2101 7.15922 39.1817 13.2316 38.6155 16.5228C38.5432 16.9427 37.9407 16.9427 37.8684 16.5228Z" fill="white"/>
    <path d="M49.2825 6.86949L45.7225 14.3916C45.5486 14.7584 44.9967 14.6326 45.0003 14.2258L45.0737 6.02449C45.0742 5.96881 45.0869 5.91392 45.111 5.86371C45.1351 5.81351 45.1699 5.76922 45.213 5.734C45.2562 5.69878 45.3065 5.67349 45.3605 5.65993C45.4145 5.64637 45.4709 5.64487 45.5255 5.65553L49.0115 6.33476C49.0683 6.34577 49.1218 6.3696 49.168 6.40444C49.2141 6.43929 49.2517 6.48422 49.2779 6.53581C49.304 6.58739 49.318 6.64428 49.3188 6.70211C49.3196 6.75994 49.3072 6.81719 49.2825 6.86949Z" fill="white"/>
    <path d="M30.7828 14.3912L27.2227 6.86766C27.198 6.81541 27.1855 6.75821 27.1863 6.70042C27.1871 6.64264 27.201 6.58579 27.2271 6.53421C27.2532 6.48264 27.2907 6.4377 27.3368 6.40281C27.3828 6.36793 27.4363 6.34403 27.493 6.33293L30.9771 5.6537C31.0318 5.64304 31.0881 5.64454 31.1421 5.6581C31.1961 5.67166 31.2465 5.69695 31.2896 5.73217C31.3328 5.76739 31.3676 5.81167 31.3917 5.86188C31.4158 5.91208 31.4285 5.96698 31.429 6.02266L31.5023 14.2255C31.5097 14.6322 30.9566 14.7587 30.7828 14.3912Z" fill="white"/>
    <g opacity="0.3">
        <path opacity="0.3" d="M9.28436 51.6167L10.1081 52.6238C9.82166 52.2989 9.54622 51.9637 9.28436 51.6167Z" fill="#6B184E"/>
        <path opacity="0.3" d="M66.4 52.6238L67.2238 51.6167C66.9601 51.9637 66.6832 52.2989 66.4 52.6238Z" fill="#6B184E"/>
    </g>
    <g opacity="0.3">
        <path opacity="0.3" d="M9.23667 48.3182C9.25208 48.3391 9.26748 48.3603 9.28252 48.3794L9.22897 48.3123C9.23117 48.3145 9.23484 48.3163 9.23667 48.3182Z" fill="#6B184E"/>
        <path opacity="0.3" d="M67.2681 48.3181C67.2709 48.3164 67.2734 48.3144 67.2758 48.3123L67.2223 48.3794C67.2392 48.3603 67.2546 48.3391 67.2681 48.3181Z" fill="#6B184E"/>
    </g>
    <path d="M15.4667 13.7366C13.0531 16.1865 11.5355 19.6112 11.3198 19.2119C11.2958 19.1675 11.2747 19.1215 11.2568 19.0743C10.7961 17.9546 10.0296 13.5129 10.0314 9.55523C10.0336 8.91671 10.0509 8.35301 10.085 7.85606C10.177 6.51447 10.3784 5.65553 10.6241 5.1054C10.93 4.43278 11.618 4.2252 12.2276 4.45185C13.8482 5.05406 18.4521 7.92061 19.9521 9.75914C20.2199 10.0845 17.8825 11.2867 15.4667 13.7366Z" fill="#FFA1A8"/>
    <path d="M15.4667 13.7366C13.0531 16.1865 11.5355 19.6112 11.3199 19.2119C11.2958 19.1675 11.2747 19.1215 11.2568 19.0743C11.7937 16.997 13.2739 14.1264 14.4109 12.051C15.9626 9.21671 13.824 6.96558 11.9664 6.29295C11.3301 6.06153 10.575 7.0536 10.0857 7.85606C10.1778 6.51447 10.3791 5.65553 10.6249 5.1054C10.9307 4.43278 11.6188 4.2252 12.2283 4.45185C13.849 5.05406 18.4528 7.92061 19.9529 9.75914C20.2199 10.0845 17.8825 11.2867 15.4667 13.7366Z" fill="#FF8392"/>
    <path d="M11.3771 19.9388H11.3404C11.2093 19.9344 11.0816 19.8955 10.9704 19.8258C10.8592 19.7562 10.7685 19.6584 10.7074 19.5423C10.1638 18.537 9.3335 13.6629 9.3368 9.55559C9.3368 7.3426 9.55208 5.79343 9.99035 4.8197C10.4264 3.8577 11.4687 3.43007 12.4678 3.80012C14.1288 4.4159 18.8907 7.35763 20.4905 9.31793C20.558 9.40018 20.6081 9.4953 20.6376 9.59751C20.6672 9.69971 20.6757 9.80686 20.6625 9.91244C20.6057 10.3892 20.2037 10.6944 19.2322 11.4312C18.3663 12.0884 17.1806 12.9884 15.9618 14.2251C14.6214 15.5854 13.5548 17.2794 12.8488 18.4006C12.1142 19.568 11.8806 19.9388 11.3771 19.9388ZM10.7272 9.55632C10.725 12.6594 11.2102 16.031 11.6022 17.7716L11.6734 17.6586C12.4113 16.485 13.5262 14.7158 14.9742 13.2481C16.2629 11.9399 17.5455 10.9669 18.3942 10.3225C18.6259 10.1468 18.875 9.95792 19.0638 9.80498C17.3614 8.06803 13.3465 5.60602 11.9855 5.1021C11.7387 5.01041 11.4174 5.03791 11.2575 5.39037C10.9076 6.16862 10.729 7.57072 10.7272 9.55522V9.55632Z" fill="#000072"/>
    <path d="M60.8499 13.7366C63.2639 16.1865 64.7812 19.6112 64.9972 19.2119C65.021 19.1673 65.042 19.1214 65.0603 19.0743C65.5209 17.9546 66.2871 13.5129 66.2852 9.55523C66.2834 8.91671 66.2661 8.35301 66.2317 7.85606C66.14 6.51447 65.9383 5.65553 65.6929 5.1054C65.387 4.43278 64.699 4.2252 64.0895 4.45185C62.4688 5.05406 57.8649 7.92061 56.3645 9.75914C56.0968 10.0845 58.4341 11.2867 60.8499 13.7366Z" fill="#FFA1A8"/>
    <path d="M60.8499 13.7366C63.2639 16.1865 64.7812 19.6112 64.9972 19.2119C65.021 19.1673 65.0421 19.1214 65.0603 19.0743C64.5233 16.997 63.0431 14.1264 61.9062 12.051C60.3545 9.21671 62.4948 6.96558 64.3506 6.29295C64.9869 6.06153 65.7417 7.0536 66.231 7.85606C66.1393 6.51447 65.9376 5.65553 65.6922 5.1054C65.3863 4.43278 64.6983 4.2252 64.0887 4.45185C62.4681 5.05406 57.8642 7.92061 56.3638 9.75914C56.0968 10.0845 58.4341 11.2867 60.8499 13.7366Z" fill="#FF8392"/>
    <path d="M64.9396 19.9388C64.4357 19.9388 64.2021 19.568 63.4667 18.3984C62.7611 17.2776 61.6942 15.5836 60.3537 14.2233C59.1354 12.9866 57.9497 12.0866 57.0838 11.4297C56.1122 10.6925 55.7099 10.3874 55.6534 9.91062C55.6405 9.80527 55.649 9.69839 55.6786 9.59645C55.7082 9.49451 55.7581 9.39964 55.8254 9.31758C57.4256 7.35838 62.1875 4.41555 63.8482 3.79977C64.8483 3.42934 65.8895 3.85735 66.3249 4.81751C66.765 5.79307 66.9777 7.34224 66.9795 9.55523C66.9824 13.6629 66.1525 18.5367 65.6089 19.5419C65.5477 19.658 65.4569 19.7558 65.3457 19.8255C65.2344 19.8951 65.1067 19.9341 64.9756 19.9384L64.9396 19.9388ZM57.2558 9.80609C57.4446 9.95903 57.6937 10.1483 57.9251 10.3239C58.7741 10.968 60.0567 11.9413 61.3454 13.2492C62.7915 14.7162 63.9068 16.488 64.6462 17.6594L64.7177 17.7727C65.1098 16.031 65.595 12.6594 65.5924 9.55743C65.5924 7.57256 65.4124 6.17083 65.0614 5.39074C64.9026 5.04013 64.5813 5.01262 64.3341 5.10431C62.9716 5.60603 58.9568 8.06915 57.2558 9.80609Z" fill="#000072"/>
    <path d="M32.9011 62.2563C28.185 61.9324 23.5283 61.0196 19.0624 59.4425L20.0002 58.789V58.8025V59.806C17.8862 59.0516 15.8049 58.1431 13.9176 56.8936C12.3189 55.8406 10.8735 54.5555 9.60198 53.1237L9.58694 53.1068L9.5796 53.0984C9.6296 53.1542 9.68831 53.2015 9.75345 53.2385L9.57007 53.09L8.66675 51.9835L8.69903 52.0231L8.69206 52.0172L9.77618 51.1003L10.6612 52.1812L9.54549 53.0614C9.01664 52.3913 8.51638 51.715 7.84265 51.2514C7.63177 51.1099 7.4506 51.0376 7.3061 51.0428C7.20194 51.0402 7.09668 51.0629 6.99179 51.0666C5.79874 51.1876 4.02402 50.8297 4.02695 49.3099C4.02035 48.7318 4.25287 48.1913 4.44432 47.713C4.76083 46.9637 5.12318 46.261 5.32856 45.482L5.3403 45.4358L5.3458 45.4135L5.34837 45.4021L5.3403 45.4417C5.25558 45.9445 5.80828 46.3718 6.28249 46.1272L6.25498 46.1407L6.20033 46.1671L6.09031 46.2192C4.77329 46.8167 2.07472 47.9624 1.63792 45.7997C1.58364 45.1549 1.82129 44.6829 1.979 44.1493C2.42754 42.8693 2.91936 41.6462 3.18342 40.335C3.49663 38.703 3.78306 37.0438 4.1047 35.4139C4.36803 34.087 4.68564 32.3856 4.99775 31.2392C5.76793 28.4207 6.66024 25.6645 7.95195 23.0239L7.92041 23.6235C6.15229 18.7274 4.91303 6.16605 7.47737 1.67185C7.66028 1.37105 7.8763 1.09168 8.12139 0.838955L8.20611 0.767805L8.37775 0.628439C9.85137 -0.40544 11.8487 0.0493329 13.4074 0.488704C17.2415 1.70926 21.4048 4.14451 24.3139 6.9333L23.4477 6.76019C24.6389 6.26984 25.8554 5.90309 27.0785 5.59502C29.5171 4.98914 31.9952 4.63779 34.4869 4.39867C35.75 4.28864 36.9673 4.19512 38.2487 4.17861C39.5298 4.19255 40.7474 4.28864 42.0102 4.39867C45.7635 4.77276 49.5217 5.34196 53.0517 6.75873L52.1806 6.93293C53.4125 5.71494 54.7798 4.72104 56.2186 3.79132C58.8816 2.10792 65.2326 -1.42098 68.1241 0.625137C70.0936 2.171 70.3507 6.35016 70.4556 8.65998C70.5594 12.0216 70.3045 15.3591 69.7804 18.676C69.4995 20.3602 69.1756 22.0017 68.5877 23.6301L68.5554 23.0213C69.8482 25.6641 70.742 28.4203 71.5118 31.2395C71.6563 31.7772 71.7389 32.1377 71.8639 32.7194C72.3462 35.0666 72.8215 37.5506 73.2447 39.9034C73.3914 40.7682 73.6335 41.5937 73.9218 42.434C74.1132 42.9969 74.3252 43.5559 74.5328 44.1485C74.8031 44.8901 75.1742 45.9753 74.4701 46.6531C73.4113 47.6309 71.3868 46.6773 70.2913 46.1844L70.2366 46.1576L70.2091 46.1444C70.3515 46.214 70.5137 46.2316 70.6677 46.1943C70.8217 46.1571 70.9579 46.0671 71.0527 45.9401C71.1917 45.7876 71.192 45.5334 71.1675 45.4124L71.173 45.4347L71.1843 45.4806L71.2382 45.6713C71.7205 47.3914 73.8396 50.0467 71.1227 50.9489C70.4626 51.1385 69.8673 51.1227 69.2193 51.0589C69.1976 51.0615 69.1757 51.0615 69.154 51.0589C69.0439 51.067 68.8569 51.1381 68.6647 51.2676C67.991 51.7293 67.494 52.4045 66.9663 53.0735L65.8224 52.1702L66.7074 51.089L67.819 52.0286C67.7952 52.051 67.8476 51.9919 67.8454 51.9919L66.9469 53.1006L66.7609 53.2532C66.8282 53.2159 66.8886 53.1671 66.9391 53.1091L66.9318 53.1175C64.4089 56.0328 61.0538 58.1633 57.4531 59.473L56.4845 59.8339V58.8011V58.7875L57.4501 59.4601C54.0896 60.64 50.6516 61.4993 47.1205 61.9306C45.9553 62.0857 44.7825 62.2012 43.6041 62.2548C43.175 62.2618 43.1064 61.6625 43.5131 61.566L46.9239 60.8167C48.9121 60.3803 51.735 59.7378 53.6641 59.155C55.0992 58.756 56.5325 58.2748 57.9185 57.7694V58.7875V58.8011L56.951 58.1292C58.8669 57.4122 60.697 56.4931 62.3602 55.3242C63.6153 54.4133 64.7672 53.368 65.7952 52.2068C65.8626 52.1212 65.9445 52.0482 66.0373 51.9912L65.8514 52.1438L66.6872 51.1168L66.7206 51.0758L66.7272 51.0699L67.8388 52.0095L66.9557 53.0922L65.8114 52.1889C66.6465 51.1579 67.5758 49.7848 69.0535 49.5978C69.3682 49.5838 69.6913 49.6462 70.0045 49.6344C70.259 49.6293 70.5113 49.6033 70.7053 49.542C70.9082 49.4877 71.016 49.385 71.0094 49.3806C71.0618 49.03 70.8561 48.6589 70.716 48.2804C70.3742 47.4944 69.9806 46.6938 69.7595 45.8514C69.5028 45.1127 70.2476 44.4628 70.9353 44.8531L71.0321 44.8989L71.2272 44.9884C71.9127 45.2715 72.6847 45.6287 73.4149 45.5822C73.4758 45.5715 73.4725 45.5569 73.4369 45.5902C73.4013 45.6236 73.3959 45.6684 73.4039 45.6269C73.3672 45.3438 73.2539 44.9668 73.1314 44.6345C72.6686 43.3395 72.1467 42.0056 71.868 40.6321C71.3519 38.038 70.7937 34.6907 70.1882 32.1271C69.4309 29.2558 68.5012 26.3602 67.1966 23.7013L67.0499 23.4057L67.1647 23.0928C68.7902 18.5664 69.9447 6.61973 67.6903 2.46697C67.5945 2.33824 67.5139 2.18054 67.4086 2.08262L67.3352 1.99826L67.2986 1.95609C67.2315 1.91941 67.1918 1.85523 67.1203 1.82406C67.0613 1.79765 67.0158 1.75731 66.9494 1.73457L66.7514 1.66122C64.0264 1.07771 59.4024 3.64902 57.0746 5.11897C55.5625 6.09087 54.1475 7.16692 52.9336 8.42379C50.575 7.41265 48.0282 6.83208 45.483 6.43928C43.1024 6.07473 40.6546 5.84111 38.2509 5.78793C37.0682 5.80517 35.8263 5.89025 34.6351 5.99478C31.0541 6.34319 27.4068 6.88489 24.059 8.2184L23.5691 8.41902C21.2365 6.04612 18.2299 4.19952 15.1909 2.81869C13.7052 2.17577 10.6736 0.984922 9.30454 1.87173C9.28253 1.89117 9.25943 1.90841 9.23596 1.92711L9.19928 1.95315L9.16261 1.99533L9.08925 2.08005C8.69536 2.53519 8.46357 3.14364 8.27616 3.71834C6.85719 8.58589 7.67542 18.6063 9.44097 23.4071C8.38289 25.491 7.58153 27.7444 6.899 29.9944C6.67895 30.6967 6.4765 31.4662 6.29019 32.1795C6.16549 32.6622 6.01732 33.4265 5.9106 33.9179C5.55375 35.6347 4.99371 38.6656 4.66914 40.3944C4.3695 42.1229 3.59125 43.7664 3.11777 45.419C3.10222 45.4891 3.09095 45.5602 3.08403 45.6317C3.0921 45.6757 3.08843 45.6379 3.05542 45.6045C3.02241 45.5712 3.02278 45.5899 3.08549 45.6005C3.41337 45.6394 3.73905 45.5536 4.09554 45.4538C4.5688 45.3081 5.03079 45.128 5.47783 44.915C5.6502 44.834 5.79214 44.7478 6.00522 44.7537C6.53628 44.7537 6.89717 45.31 6.7446 45.7846C6.48053 46.9032 5.82368 47.9485 5.5057 49.0223C5.48175 49.1123 5.46821 49.2047 5.46536 49.2978C5.46395 49.3295 5.46894 49.3612 5.48003 49.3909C5.4771 49.4012 5.59006 49.505 5.79397 49.56C6.1853 49.6744 6.69178 49.67 7.11942 49.6227C7.22944 49.6165 7.33947 49.6128 7.4495 49.6172C8.91651 49.8046 9.84917 51.1737 10.6769 52.2017L9.5609 53.0819L8.67996 52.0004L9.76371 51.0835L9.77068 51.0893L9.80296 51.1289L10.6414 52.1581L10.458 52.0095C10.6193 52.1008 10.7367 52.2784 10.8636 52.4104C13.2083 55.0418 16.2443 56.9361 19.5465 58.1497L18.6061 58.8025V58.789V57.7965C19.9833 58.3012 21.4173 58.7809 22.8304 59.1858C25.0595 59.8459 27.2945 60.3726 29.5724 60.8523C30.7094 61.0999 31.8496 61.3328 32.9906 61.5675C33.4072 61.6537 33.3276 62.2779 32.8996 62.2563H32.9011Z" fill="#000072"/>
    <path d="M56.2747 49.106C58.1177 49.106 59.6118 48.3887 59.6118 47.504C59.6118 46.6192 58.1177 45.902 56.2747 45.902C54.4317 45.902 52.9376 46.6192 52.9376 47.504C52.9376 48.3887 54.4317 49.106 56.2747 49.106Z" fill="#FF7687"/>
    <path d="M20.2081 49.106C22.0511 49.106 23.5452 48.3887 23.5452 47.504C23.5452 46.6192 22.0511 45.902 20.2081 45.902C18.3651 45.902 16.871 46.6192 16.871 47.504C16.871 48.3887 18.3651 49.106 20.2081 49.106Z" fill="#FF7687"/>
    <path d="M33.2506 45.0148C33.2506 45.0148 34.1268 47.3125 36.1773 46.7822C38.5113 46.1785 38.2311 43.3949 38.2311 43.3949" fill="white"/>
    <path d="M43.2975 45.0148C43.2975 45.0148 42.4217 47.3125 40.3712 46.7822C38.0368 46.1785 38.3173 43.3949 38.3173 43.3949" fill="white"/>
    <path d="M25.9563 43.9934C28.2121 43.9934 30.0408 41.0678 30.0408 37.4589C30.0408 33.8501 28.2121 30.9245 25.9563 30.9245C23.7004 30.9245 21.8717 33.8501 21.8717 37.4589C21.8717 41.0678 23.7004 43.9934 25.9563 43.9934Z" fill="#000072"/>
    <path d="M28.4543 36.0668C28.5756 34.9205 28.0865 33.9291 27.362 33.8524C26.6375 33.7757 25.9518 34.6429 25.8305 35.7892C25.7092 36.9355 26.1982 37.927 26.9228 38.0036C27.6473 38.0803 28.333 37.2131 28.4543 36.0668Z" fill="white"/>
    <g opacity="0.35">
        <path opacity="0.35" d="M25.0427 42.4346C25.4282 42.2469 25.4761 41.5513 25.1496 40.881C24.8231 40.2106 24.2459 39.8195 23.8604 40.0072C23.4749 40.195 23.427 40.8906 23.7535 41.5609C24.08 42.2313 24.6572 42.6224 25.0427 42.4346Z" fill="white"/>
    </g>
    <path d="M50.4804 43.9934C52.7362 43.9934 54.5649 41.0678 54.5649 37.4589C54.5649 33.8501 52.7362 30.9245 50.4804 30.9245C48.2245 30.9245 46.3958 33.8501 46.3958 37.4589C46.3958 41.0678 48.2245 43.9934 50.4804 43.9934Z" fill="#000072"/>
    <path d="M49.5086 38.0113C50.2331 37.9347 50.7221 36.9432 50.6009 35.7969C50.4796 34.6506 49.7939 33.7834 49.0693 33.8601C48.3448 33.9368 47.8558 34.9282 47.9771 36.0745C48.0984 37.2209 48.784 38.088 49.5086 38.0113Z" fill="white"/>
    <g opacity="0.35">
        <path opacity="0.35" d="M52.6875 41.57C53.014 40.8997 52.9662 40.2041 52.5806 40.0163C52.1951 39.8286 51.618 40.2197 51.2915 40.89C50.965 41.5603 51.0128 42.2559 51.3983 42.4437C51.7838 42.6315 52.361 42.2403 52.6875 41.57Z" fill="white"/>
    </g>
    <g opacity="0.3">
        <path opacity="0.3" d="M33.0643 91.5089C31.0024 93.1402 25.9049 92.8362 22.4215 88.7293C21.0249 87.084 19.8887 83.0901 19.3099 80.1018L27.1038 73.0344C27.5604 76.3073 29.2251 78.8335 30.9397 80.9651C34.2735 85.1087 37.8057 87.7618 33.0643 91.5089Z" fill="#000072"/>
    </g>
    <g opacity="0.3">
        <path opacity="0.3" d="M41.4883 91.5089C43.5505 93.1402 48.6477 92.8362 52.1311 88.7293C53.5281 87.084 54.6643 83.0901 55.2426 80.1018L47.4491 73.0344C46.9921 76.3073 45.3278 78.8335 43.6129 80.9651C40.2791 85.1087 36.7472 87.7618 41.4883 91.5089Z" fill="#000072"/>
    </g>
    <path d="M33.0643 88.5555C31.0024 90.1868 25.9049 89.8831 22.4215 85.7758C21.0249 84.1306 19.8887 81.8739 19.3099 78.8856L27.1038 70.0813C27.5604 73.3542 29.2251 75.8804 30.9397 78.012C34.2735 82.1552 37.8057 84.8083 33.0643 88.5555Z" fill="#F7CD9D"/>
    <path d="M33.0643 88.5554C31.0024 90.1867 25.9049 89.8831 22.4215 85.7758C22.9349 82.427 27.2601 78.4077 30.9397 78.0116C34.2735 82.1552 37.8057 84.8083 33.0643 88.5554Z" fill="white"/>
    <g opacity="0.3">
        <path opacity="0.3" d="M33.065 88.5551C31.0028 90.1864 25.9053 89.8824 22.4222 85.7755C21.2563 84.4012 20.2712 82.6012 19.6422 80.3064C20.1223 81.3424 20.7381 82.3098 21.4734 83.1832C24.9576 87.2909 30.0554 87.5942 32.1162 85.9629C33.7791 84.6495 34.4235 83.4689 34.4165 82.3129C35.7698 84.3785 35.9664 86.2618 33.065 88.5551Z" fill="#000072"/>
    </g>
    <path d="M27.6191 70.008C28.2885 73.3234 30.1703 76.1041 32.3847 78.6322C35.2953 81.9828 38.2796 85.1204 33.8782 88.873C32.5945 90.043 30.7516 90.3569 29.0799 90.1933C23.5174 89.6667 19.1831 84.3642 18.9689 78.9494C18.9568 78.5592 19.4992 78.4437 19.6455 78.8027C19.969 79.6044 20.2294 80.4054 20.5654 81.1716C21.7426 84.1845 23.8185 86.9839 26.9216 88.1333C28.656 88.7905 30.8092 89.0681 32.4467 88.0574C32.7247 87.8641 33.0728 87.5601 33.3328 87.3107C34.4826 86.235 35.0158 85.0027 34.2666 83.5331C33.5517 82.094 32.3367 80.8261 31.2925 79.556C29.03 76.9154 26.8204 73.7646 26.5867 70.151C26.5501 69.5136 27.4761 69.3716 27.6191 70.0069V70.008Z" fill="#000072"/>
    <path d="M41.4883 88.5555C43.5505 90.1868 48.6477 89.8831 52.1311 85.7758C53.5281 84.1306 54.6643 81.8739 55.2426 78.8856L47.4491 70.0813C46.9921 73.3542 45.3278 75.8804 43.6129 78.012C40.2791 82.1552 36.7472 84.8083 41.4883 88.5555Z" fill="#F7CD9D"/>
    <path d="M41.4883 88.5554C43.5505 90.1867 48.6477 89.8831 52.1311 85.7758C51.6176 82.427 47.2925 78.4077 43.6129 78.0116C40.2791 82.1552 36.7472 84.8083 41.4883 88.5554Z" fill="white"/>
    <path d="M47.9659 70.1547C47.675 74.7149 44.3717 78.2163 41.6188 81.5285C39.7179 83.9124 39.0611 85.5499 41.661 87.713C43.2685 89.139 45.7503 88.8478 47.631 88.1366C50.7341 86.9868 52.8103 84.1881 53.9872 81.1749C54.3213 80.4132 54.5803 79.6177 54.9015 78.8196C54.9299 78.7406 54.9856 78.6743 55.0586 78.6327C55.1315 78.5912 55.217 78.5771 55.2994 78.593C55.3819 78.609 55.4559 78.6539 55.5081 78.7197C55.5603 78.7854 55.5872 78.8677 55.5841 78.9516C55.514 80.722 55.0138 82.489 54.142 84.0767C52.4183 87.292 49.2099 89.8589 45.4727 90.1956C42.7334 90.4464 40.8376 89.5413 39.2272 87.3078C37.5438 84.9118 38.8715 82.5605 40.4848 80.6193C42.1048 78.6509 43.9077 76.7772 45.1532 74.5887C45.9887 73.1672 46.5899 71.6205 46.9338 70.008C47.0739 69.3845 48.0025 69.5048 47.9659 70.1547Z" fill="#000072"/>
    <path d="M42.1088 45.1289C42.1088 45.1289 42.0325 46.8732 41.3984 48.6383C41.2722 48.9955 41.0871 49.3291 40.8509 49.6253C39.5672 51.2185 37.048 51.2185 35.764 49.6253C35.528 49.329 35.3431 48.9954 35.2168 48.6383C34.5845 46.8732 34.5064 45.1289 34.5064 45.1289H42.1088Z" fill="#000072"/>
    <path d="M40.8498 49.6253C39.5661 51.2184 37.0469 51.2184 35.7629 49.6253C37.045 48.0302 39.5676 48.0302 40.8498 49.6253Z" fill="#F27E80"/>
    <path d="M38.3067 51.5331C36.5987 51.5331 35.1215 50.4912 34.5435 48.8789C33.8833 47.0338 33.7949 45.2356 33.7916 45.16C33.7831 44.9708 33.8502 44.7859 33.978 44.6462C34.1059 44.5064 34.284 44.4231 34.4732 44.4146C34.6625 44.4061 34.8473 44.4732 34.9871 44.601C35.1269 44.7289 35.2102 44.907 35.2186 45.0962C35.2186 45.1124 35.3015 46.7616 35.888 48.397C36.3391 49.6564 37.4335 50.105 38.3067 50.105C39.18 50.105 40.2743 49.6564 40.7273 48.397C41.3141 46.7616 41.3959 45.1124 41.3966 45.0962C41.4062 44.9078 41.4899 44.7308 41.6296 44.6039C41.7692 44.4771 41.9534 44.4106 42.1419 44.4191C42.3303 44.4276 42.5078 44.5103 42.6355 44.6492C42.7631 44.7881 42.8307 44.9719 42.8233 45.1604C42.82 45.236 42.7331 47.0341 42.0718 48.8793C41.492 50.4912 40.0151 51.5331 38.3067 51.5331Z" fill="#000072"/>
    <g opacity="0.25">
        <path opacity="0.25" d="M43.2975 45.957C43.2975 45.957 42.4217 48.2551 40.3711 47.7244C38.0368 47.1207 38.354 45.9973 38.2528 45.9973C38.1516 45.9973 38.5113 47.1207 36.1773 47.7244C34.1268 48.2551 33.2506 45.957 33.2506 45.957C33.2506 45.957 33.2088 40.2643 38.2531 40.2643C43.2975 40.2643 43.2975 45.957 43.2975 45.957Z" fill="#6B184E"/>
    </g>
    <path d="M43.2975 45.0148C43.2975 45.0148 42.4217 47.3125 40.3711 46.7822C38.0368 46.1785 38.3173 43.3949 38.3173 43.3949H38.2311C38.2311 43.3949 38.5113 46.1785 36.1773 46.7822C34.1268 47.3125 33.2506 45.0148 33.2506 45.0148C33.2506 45.0148 30.2693 39.3202 38.2531 39.3202C46.237 39.3202 43.2975 45.0148 43.2975 45.0148Z" fill="white"/>
    <g opacity="0.25">
        <path opacity="0.25" d="M43.2652 45.0889C43.0961 45.4762 42.2016 47.2553 40.3715 46.7825C38.036 46.1785 38.3177 43.3952 38.3177 43.3952H38.2322C38.2322 43.3952 38.5113 46.1785 36.1784 46.7825C34.3479 47.2553 33.4534 45.4762 33.2847 45.0889C33.862 45.478 34.6175 45.7021 35.567 45.4556C38.5821 44.6752 38.2194 41.081 38.2194 41.081H38.3294C38.3294 41.081 37.9671 44.6752 40.9822 45.4556C41.932 45.7021 42.6879 45.478 43.2652 45.0889Z" fill="#000072"/>
    </g>
    <path d="M33.5756 44.8912C34.1543 45.8627 35.0954 46.6612 36.2635 46.1936C37.41 45.8341 37.8406 44.5006 37.8868 43.3993C37.8891 43.3535 37.9004 43.3086 37.9201 43.2672C37.9398 43.2258 37.9675 43.1887 38.0015 43.158C38.0356 43.1273 38.0754 43.1037 38.1187 43.0884C38.1619 43.0732 38.2077 43.0667 38.2535 43.0692C38.668 43.1033 38.6027 43.6285 38.6298 43.9171C38.6379 44.4812 38.5605 45.0346 38.3283 45.5675C37.9667 46.4884 37.041 47.2025 36.0479 47.3452C34.8159 47.6019 33.6148 46.7584 33.1307 45.6684C33.0038 45.3874 32.7137 44.8564 33.1626 44.706C33.2421 44.6834 33.3271 44.6893 33.4026 44.7228C33.4782 44.7563 33.5397 44.8153 33.5763 44.8894L33.5756 44.8912Z" fill="#000072"/>
    <path d="M43.6221 45.1388C43.1618 46.7595 41.5822 47.8627 39.9201 47.1897C38.3584 46.6674 37.7045 44.8721 37.9715 43.36C38.0448 42.9566 38.6382 42.9933 38.6614 43.3993C38.7068 44.4995 39.1381 45.8345 40.285 46.1936C41.4703 46.6678 42.4154 45.8404 42.9946 44.8564C43.2069 44.5182 43.7347 44.7592 43.6221 45.1388Z" fill="#000072"/>
    <path d="M41.086 41.5816C41.086 42.2418 40.227 43.1759 39.4385 43.5713C39.0402 43.7751 38.5992 43.8815 38.1517 43.8815C37.7043 43.8815 37.2633 43.7751 36.865 43.5713C36.0765 43.1759 35.2175 42.2403 35.2175 41.5816C35.2175 40.3919 41.086 40.3919 41.086 41.5816Z" fill="#000072"/>
    <g opacity="0.5">
        <path opacity="0.5" d="M39.3152 41.5479C39.3152 41.7379 38.9745 41.9055 38.6621 42.0195C38.3323 42.1387 37.9712 42.1387 37.6414 42.0195C37.3289 41.9055 36.9882 41.7379 36.9882 41.5479C36.9882 40.9736 39.3152 40.9736 39.3152 41.5479Z" fill="white"/>
    </g>
    <path d="M23.4411 24.7792C24.7203 23.5135 26.8922 23.2337 28.3779 24.3002C28.5863 24.4359 28.7612 24.6127 28.9449 24.777C29.0432 24.8693 29.1051 24.9937 29.1193 25.1278C29.1336 25.2618 29.0994 25.3965 29.0229 25.5075C28.9463 25.6184 28.8325 25.6982 28.7021 25.7324C28.5718 25.7666 28.4334 25.7529 28.3123 25.6939C28.2023 25.6389 28.0845 25.5816 27.9782 25.5226C27.5908 25.3046 27.1677 25.1571 26.7286 25.0873C25.8048 24.9552 24.8747 25.293 24.0513 25.6979C23.4807 25.9334 23.0068 25.2057 23.4425 24.7784L23.4411 24.7792Z" fill="#000072"/>
    <path d="M52.3453 25.652C50.9465 24.9288 49.6452 24.8188 48.2743 25.6546C47.986 25.838 47.5922 25.7533 47.4396 25.4371C47.1928 24.9152 47.7818 24.5749 48.128 24.3002C48.7617 23.8627 49.5429 23.6147 50.319 23.6378C51.3452 23.6596 52.3255 24.0671 53.0649 24.7792C53.5416 25.2882 52.9383 25.9946 52.3453 25.652Z" fill="#000072"/>
    <path d="M28.869 87.4592C29.5138 87.9576 30.3294 88.3369 31.1403 88.4495C31.4128 88.4953 31.682 88.4861 31.9472 88.4755C32.9554 88.481 32.8831 89.9605 31.8775 89.8659C30.844 89.7437 29.8823 89.2882 29.0879 88.638C28.829 88.4275 28.5889 88.195 28.3702 87.943C28.3125 87.8755 28.2828 87.7886 28.287 87.7C28.2913 87.6114 28.3292 87.5277 28.3931 87.4661C28.457 87.4045 28.542 87.3697 28.6307 87.3687C28.7194 87.3677 28.8052 87.4006 28.8705 87.4607L28.869 87.4592Z" fill="#000072"/>
    <path d="M30.8964 84.8982C31.9175 85.6133 33.1703 86.2445 34.4404 86.1924C35.4434 86.1829 35.3983 87.6547 34.396 87.5817C33.2117 87.4456 32.1694 86.8684 31.2573 86.1514C30.9656 85.9221 30.6887 85.6746 30.4284 85.4101C30.3669 85.3465 30.3319 85.2618 30.3306 85.1733C30.3293 85.0848 30.3617 84.9991 30.4213 84.9337C30.481 84.8683 30.5633 84.828 30.6516 84.8212C30.7398 84.8143 30.8274 84.8413 30.8964 84.8967V84.8982Z" fill="#000072"/>
    <path d="M46.339 87.9422C45.4335 88.9713 44.2052 89.6972 42.8317 89.8651C41.9148 89.9671 41.7237 88.6398 42.6351 88.4814C42.9447 88.4649 43.2502 88.5096 43.5674 88.4487C44.3783 88.3387 45.194 87.9584 45.8387 87.4585C46.1622 87.1691 46.6181 87.6107 46.339 87.9408V87.9422Z" fill="#000072"/>
    <path d="M44.2789 85.4116C43.1885 86.487 41.8723 87.3899 40.3114 87.5817C39.3945 87.6635 39.232 86.3347 40.1449 86.1965C40.803 86.2207 41.4588 86.1044 42.0685 85.8554C42.6917 85.6061 43.2819 85.2809 43.8256 84.8872C44.1681 84.6411 44.5716 85.1102 44.2789 85.4116Z" fill="#000072"/>
    <g opacity="0.3">
        <path opacity="0.3" d="M41.4887 88.5551C43.5509 90.1864 48.6481 89.8824 52.1315 85.7755C53.297 84.4012 54.2821 82.6012 54.9111 80.3064C54.4312 81.3424 53.8154 82.3099 53.0799 83.1832C49.5957 87.2909 44.4979 87.5942 42.4371 85.9629C40.7746 84.6495 40.1298 83.4689 40.1368 82.3129C38.7835 84.3785 38.588 86.2618 41.4887 88.5551Z" fill="#000072"/>
    </g>
    <path d="M76.5584 25.75C75.424 24.5798 74.7068 23.0685 74.5174 21.4498C74.0332 17.3631 76.9541 13.6577 81.0408 13.174C85.1276 12.6902 88.8329 15.6103 89.3166 19.6971C89.8004 23.7838 86.8803 27.4891 82.7932 27.9732C81.6948 28.1047 80.5809 27.9889 79.5331 27.6344L76.3368 29.1421L76.5584 25.75Z" fill="white"/>
    <g opacity="0.5">
        <path opacity="0.5" d="M81.2092 14.5974C77.3917 15.0496 74.5926 18.3126 74.6348 22.0718C74.5754 21.813 74.5298 21.5513 74.4983 21.2877C74.0142 17.2009 76.9347 13.4956 81.0214 13.0119C85.1081 12.5281 88.8135 15.4486 89.2976 19.5353C89.3287 19.8001 89.3457 20.0664 89.3486 20.333C88.5131 16.6662 85.0282 14.1451 81.2092 14.5974Z" fill="white"/>
    </g>
    <path d="M75.6378 30.1701L75.9107 25.9814C74.7885 24.7425 74.0822 23.1836 73.8906 21.5231C73.3665 17.0975 76.5407 13.0706 80.9664 12.5465C85.392 12.0224 89.4193 15.1966 89.9434 19.6222C90.4675 24.0479 87.2929 28.0759 82.8676 28.6015C81.7628 28.7349 80.6422 28.6366 79.5775 28.3128L75.6378 30.1701ZM81.9218 13.7531C81.6521 13.7532 81.3827 13.7691 81.1149 13.8008C77.3802 14.2431 74.7018 17.6414 75.1438 21.3761C75.3151 22.858 75.9719 24.2416 77.0117 25.3113L77.206 25.5123L77.0366 28.1163L79.4939 26.9566L79.7352 27.0384C80.6939 27.3639 81.7135 27.4698 82.7187 27.3483C86.4534 26.906 89.1321 23.508 88.6898 19.7733C88.2798 16.3083 85.3271 13.7531 81.9218 13.7531Z" fill="#000072"/>
    <g opacity="0.3">
        <path opacity="0.3" d="M76.5019 25.6894C77.7764 26.3578 79.1982 26.696 80.6372 26.673C82.0762 26.65 83.4865 26.2666 84.739 25.5577C85.9915 24.8489 87.0463 23.8374 87.8069 22.6156C88.5675 21.3939 89.0097 20.0009 89.0929 18.5642C89.1965 18.9356 89.2713 19.3145 89.3166 19.6974C89.8007 23.7842 86.8799 27.4895 82.7932 27.9736C81.6948 28.105 80.581 27.9892 79.5331 27.6347L76.3369 29.1424L76.5569 25.75C76.5389 25.7302 76.5206 25.7093 76.5019 25.6894Z" fill="#000072"/>
    </g>
    <path d="M79.5606 18.4813C80.2054 17.8365 81.251 17.952 81.8957 18.5968L81.9962 18.6973L82.0963 18.5968C82.7415 17.952 83.7867 17.8365 84.4318 18.4813C84.5853 18.6345 84.707 18.8166 84.79 19.0169C84.873 19.2172 84.9158 19.432 84.9158 19.6488C84.9158 19.8657 84.873 20.0804 84.79 20.2808C84.707 20.4811 84.5853 20.6631 84.4318 20.8164L84.3313 20.9169L82.305 22.9443C82.2233 23.0259 82.1126 23.0717 81.9971 23.0717C81.8817 23.0717 81.7709 23.0259 81.6892 22.9443L79.6618 20.9169L79.5617 20.8164C79.4082 20.6632 79.2864 20.4812 79.2033 20.2809C79.1202 20.0806 79.0773 19.8659 79.0772 19.6491C79.0771 19.4322 79.1198 19.2174 79.2027 19.0171C79.2856 18.8167 79.4073 18.6346 79.5606 18.4813Z" fill="#FF0068"/>
</svg>
