<svg width="292" height="201" viewBox="0 0 292 201" fill="none" xmlns="http://www.w3.org/2000/svg">
<path d="M130.237 193.168C201.295 193.168 258.898 185.925 258.898 176.989C258.898 168.054 201.295 160.81 130.237 160.81C59.1794 160.81 1.57581 168.054 1.57581 176.989C1.57581 185.925 59.1794 193.168 130.237 193.168Z" fill="#6B184E"/>
<path d="M130.237 193.168C201.295 193.168 258.898 185.925 258.898 176.989C258.898 168.054 201.295 160.81 130.237 160.81C59.1794 160.81 1.57581 168.054 1.57581 176.989C1.57581 185.925 59.1794 193.168 130.237 193.168Z" fill="#000072"/>
<path d="M130.237 194.742C95.8044 194.742 63.4281 193.055 39.0608 189.991C27.1596 188.498 17.7978 186.746 11.2354 184.795C3.57063 182.512 0 180.035 0 176.989C0 173.943 3.57063 171.462 11.2354 169.184C17.7978 167.233 27.1596 165.485 39.0608 163.988C63.4254 160.924 95.8044 159.237 130.237 159.237C164.67 159.237 197.047 160.924 221.413 163.988C233.314 165.481 242.677 167.233 249.239 169.184C256.904 171.462 260.475 173.943 260.475 176.989C260.475 180.035 256.904 182.516 249.239 184.795C242.677 186.746 233.314 188.494 221.413 189.991C197.046 193.055 164.67 194.742 130.237 194.742ZM130.237 162.384C95.9344 162.384 63.6942 164.063 39.4561 167.11C10.733 170.722 3.14988 175.152 3.14988 176.989C3.14988 178.827 10.7374 183.257 39.4561 186.867C63.6942 189.915 95.9362 191.593 130.237 191.593C164.538 191.593 196.78 189.915 221.018 186.867C249.737 183.256 257.325 178.826 257.325 176.987C257.325 175.149 249.737 170.72 221.018 167.108C196.78 164.063 164.541 162.384 130.237 162.384Z" fill="#000072"/>
<path d="M205.634 154.154C202.208 188.362 161.521 192.723 142.339 196.534H118.136C105.739 194.075 84.3565 191.379 69.8579 180.548C66.3566 177.932 63.2568 174.838 60.7789 171.165C58.9526 168.449 57.5187 165.488 56.5196 162.37C55.7831 160.056 55.2626 157.678 54.9649 155.268C54.8431 154.306 54.752 153.32 54.6917 152.309C54.516 149.347 54.6091 146.168 55.0079 142.762C55.3531 139.811 57.6132 129.714 60.6937 119.818C61.7407 116.448 62.8844 113.101 64.0798 110.068C59.7055 90.6414 57.9233 66.1749 64.498 57.7451C68.7739 52.2631 80.3502 57.7653 97.8959 72.7962C110.427 67.2791 127.603 66.9558 130.239 66.9655C132.874 66.9558 150.05 67.2791 162.578 72.7962C180.123 57.7653 191.699 52.2631 195.975 57.7451C202.551 66.1776 200.769 90.6414 196.393 110.068C201.098 122.002 205.002 138.803 205.466 142.759C205.954 146.887 205.986 150.677 205.634 154.154Z" fill="#8E8FB3"/>
<g opacity="0.5">
<path opacity="0.5" d="M200.274 80.4645C200.057 72.7005 198.772 66.2101 195.975 62.6263C191.699 57.1443 180.123 62.6465 162.578 77.6774C150.05 72.1603 132.874 71.837 130.239 71.8467C127.604 71.837 110.427 72.1603 97.8959 77.6774C80.3501 62.6465 68.7739 57.1443 64.498 62.6263C61.7012 66.2101 60.417 72.7005 60.1991 80.4645C59.9558 70.5757 61.132 62.0597 64.498 57.7442C68.7739 52.2622 80.3501 57.7644 97.8959 72.7953C110.427 67.2782 127.603 66.955 130.239 66.9646C132.874 66.955 150.05 67.2782 162.578 72.7953C180.123 57.7644 191.699 52.2622 195.975 57.7442C199.342 62.0597 200.518 70.5757 200.274 80.4645Z" fill="white"/>
</g>
<path d="M205.634 154.154C202.208 188.362 161.521 192.723 142.339 196.534H118.136C105.739 194.075 84.3564 191.379 69.8578 180.548C66.3566 177.932 63.2568 174.838 60.7789 171.165C58.9526 168.449 57.5187 165.488 56.5196 162.37C55.783 160.056 55.2626 157.678 54.9648 155.268C84.5962 180.715 105.983 169.301 115.546 149.861C119.235 142.357 126.509 141.636 129.665 141.636C132.821 141.636 140.092 142.357 143.781 149.861C153.479 169.574 175.346 181.039 205.634 154.154Z" fill="white"/>
<g opacity="0.15">
<path opacity="0.15" d="M202.284 166.596C191.472 189.544 158.892 193.244 142.339 196.534H118.136C105.739 194.075 84.3564 191.379 69.8578 180.548C66.3566 177.932 63.2567 174.838 60.7788 171.166C59.8041 169.716 58.9397 168.195 58.1929 166.616C59.7623 168.171 61.4389 169.613 63.2102 170.932C74.248 179.181 112.634 183.325 130.231 183.325C147.828 183.325 190.984 177.851 202.284 166.596Z" fill="#000072"/>
</g>
<path d="M86.014 106.986C85.1242 105.6 91.0208 93.2036 102.128 96.8639C106.13 98.1814 106.507 102.085 103.404 102.918C100.448 103.708 99.1177 103.071 94.5325 104.683C91.9448 105.596 86.9038 108.372 86.014 106.986Z" fill="#000072"/>
<path d="M174.46 106.986C175.35 105.6 169.453 93.2036 158.346 96.8639C154.344 98.1814 153.967 102.085 157.07 102.918C160.026 103.708 161.356 103.071 165.937 104.683C168.529 105.596 173.57 108.372 174.46 106.986Z" fill="#000072"/>
<path d="M79.8178 87.4529C74.4236 93.2063 71.0234 101.257 70.5438 100.316C70.4906 100.211 70.4439 100.103 70.4041 99.9919C69.3817 97.3567 67.6935 86.9039 67.7163 77.5931C67.7233 76.0919 67.7646 74.7656 67.8437 73.5964C68.0545 70.4404 68.506 68.414 69.0585 67.1245C69.7436 65.5434 71.279 65.0612 72.637 65.5944C76.2489 67.0173 86.5023 73.7818 89.8401 78.114C90.4313 78.8825 85.2137 81.6995 79.8178 87.4529Z" fill="#F27E80"/>
<path d="M79.8179 87.4528C74.4237 93.2063 71.0235 101.257 70.5439 100.316C70.4907 100.211 70.444 100.103 70.4042 99.9918C71.6111 95.1071 74.9279 88.3602 77.4691 83.4782C80.9431 76.8174 76.1805 71.5119 72.0451 69.9212C70.6265 69.374 68.9382 71.7043 67.8438 73.5902C68.0546 70.4342 68.506 68.4077 69.0586 67.1183C69.7437 65.5372 71.2791 65.0549 72.6371 65.5881C76.249 67.0111 86.5024 73.7755 89.8402 78.1077C90.4314 78.8825 85.2138 81.6994 79.8179 87.4528Z" fill="#FF5C64"/>
<path d="M70.6694 102.178H70.5816C70.2404 102.164 69.9092 102.059 69.6225 101.874C69.3358 101.688 69.104 101.429 68.9513 101.124C67.74 98.7524 65.9051 87.2587 65.9306 77.5833C65.9455 72.3675 66.4312 68.7116 67.4177 66.4156C68.4454 64.0369 70.9145 62.9899 73.2905 63.9271C77.1106 65.4291 87.6082 72.2858 91.257 77.015C91.6962 77.5833 92.189 78.7718 90.5806 80.316C90.0694 80.8079 89.336 81.3929 88.4075 82.1334C86.4751 83.6714 83.8399 85.7769 81.1231 88.6712C78.1366 91.8518 75.7579 95.8247 74.1838 98.4528C72.5272 101.209 71.9484 102.178 70.6694 102.178ZM69.5012 77.5956C69.4819 84.5621 70.4507 92.0995 71.2896 96.3263C72.9427 93.5708 75.3811 89.5697 78.5125 86.2249C81.4033 83.1426 84.2756 80.8535 86.1764 79.3383C86.6551 78.9562 87.169 78.5478 87.5739 78.2061C83.7688 74.1401 74.9709 68.4279 71.9791 67.2509C71.6488 67.1209 71.0436 67.0234 70.6967 67.8262C70.1609 69.0753 69.517 71.7877 69.5012 77.5912V77.5956Z" fill="#000072"/>
<path d="M180.847 87.4529C186.242 93.2063 189.641 101.257 190.122 100.316C190.175 100.211 190.222 100.103 190.261 99.9919C191.283 97.3567 192.971 86.9039 192.949 77.5931C192.941 76.0919 192.901 74.7656 192.822 73.5964C192.611 70.4404 192.16 68.414 191.607 67.1245C190.922 65.5434 189.386 65.0612 188.028 65.5944C184.417 67.0173 174.162 73.7818 170.825 78.114C170.23 78.8825 175.448 81.6995 180.847 87.4529Z" fill="#F27E80"/>
<path d="M180.847 87.4528C186.242 93.2063 189.641 101.257 190.122 100.316C190.175 100.211 190.222 100.103 190.261 99.9918C189.054 95.1071 185.738 88.3602 183.196 83.4782C179.722 76.8174 184.485 71.5119 188.621 69.9212C190.038 69.374 191.726 71.7043 192.822 73.5902C192.611 70.4342 192.16 68.4077 191.607 67.1183C190.922 65.5372 189.386 65.0549 188.028 65.5881C184.417 67.0111 174.162 73.7755 170.825 78.1077C170.23 78.8825 175.448 81.6994 180.847 87.4528Z" fill="#FF5C64"/>
<path d="M189.992 102.178C188.714 102.178 188.133 101.212 186.483 98.4582C184.902 95.83 182.525 91.8571 179.544 88.6765C176.831 85.7778 174.186 83.6767 172.26 82.1387C171.331 81.3982 170.599 80.8132 170.088 80.3213C168.479 78.7727 168.973 77.5886 169.41 77.0203C173.057 72.2902 183.558 65.4336 187.378 63.9324C189.749 62.9978 192.222 64.0422 193.248 66.4156C194.236 68.7196 194.723 72.3737 194.737 77.5887C194.763 87.2614 192.928 98.7515 191.717 101.129C191.564 101.435 191.332 101.693 191.045 101.879C190.758 102.064 190.427 102.169 190.086 102.183L189.992 102.178ZM173.088 78.2105C173.493 78.5514 174.006 78.9607 174.486 79.3428C176.386 80.858 179.258 83.1471 182.149 86.2293C185.281 89.5672 187.718 93.5708 189.372 96.3307C190.211 92.1039 191.179 84.5657 191.161 77.6001C191.145 71.7966 190.501 69.0797 189.963 67.8307C189.618 67.0322 189.012 67.128 188.683 67.2597C185.691 68.4341 176.893 74.1463 173.088 78.2105Z" fill="#000072"/>
<path d="M142.189 195.784C147.377 194.379 152.602 193.352 157.752 192.111C162.903 190.888 168.016 189.572 172.968 187.832C174.197 187.387 175.435 186.946 176.64 186.439C177.863 185.97 179.041 185.41 180.233 184.88C180.827 184.61 181.399 184.301 181.984 184.014C182.568 183.726 183.15 183.436 183.709 183.105L185.403 182.148C185.958 181.814 186.497 181.456 187.044 181.111L187.863 180.59C188.126 180.407 188.39 180.214 188.649 180.026L190.215 178.891L191.702 177.661C191.947 177.454 192.205 177.261 192.439 177.041L193.135 176.379C195.045 174.661 196.671 172.675 198.149 170.605L199.188 169.002C199.275 168.868 199.363 168.739 199.445 168.6L199.669 168.178L200.116 167.336L200.565 166.493C200.639 166.352 200.718 166.214 200.787 166.071L200.972 165.632L201.718 163.875L201.905 163.436L202.055 162.982L202.349 162.071C202.534 161.461 202.768 160.866 202.916 160.245L203.347 158.374L203.564 157.441L203.7 156.488L203.975 154.583C203.996 154.424 204.025 154.266 204.041 154.106L204.07 153.624L204.129 152.658L204.251 150.731C204.256 150.085 204.237 149.438 204.231 148.791L204.202 146.853L204.038 144.912L203.875 142.973L203.742 142.054L203.574 141.102C203.088 138.54 202.489 135.951 201.86 133.384C201.232 130.816 200.554 128.249 199.829 125.702C198.384 120.607 196.779 115.557 194.868 110.667L194.684 110.197L194.794 109.705C196.453 102.248 197.647 94.6679 198.257 87.0664C198.55 83.2674 198.703 79.4587 198.594 75.679C198.485 71.8994 198.138 68.1328 197.228 64.5947C196.774 62.8318 196.133 61.1453 195.263 59.7065C195.16 59.5264 195.045 59.3532 194.919 59.1883L194.744 58.937C194.692 58.8569 194.633 58.7817 194.568 58.7122C194.464 58.5838 194.35 58.4639 194.227 58.3538L194.052 58.1904C193.988 58.1404 193.919 58.1026 193.855 58.0534C193.289 57.6752 192.634 57.4503 191.955 57.4008C191.154 57.3387 190.349 57.3934 189.564 57.5633C188.706 57.7372 187.862 57.9769 187.04 58.28C185.353 58.8949 183.688 59.7188 182.057 60.6227C178.795 62.4471 175.671 64.6246 172.624 66.9049C169.578 69.1852 166.622 71.6244 163.713 74.1164L162.89 74.8191L161.88 74.3852C159.423 73.3467 156.897 72.4803 154.32 71.7922C151.728 71.0895 149.075 70.5625 146.408 70.1233C143.741 69.6841 141.044 69.3556 138.34 69.1263C135.636 68.897 132.912 68.7512 130.24 68.7389C127.568 68.76 124.838 68.8988 122.139 69.1316C119.441 69.3643 116.742 69.6893 114.072 70.1294C111.403 70.5695 108.754 71.1009 106.167 71.8045C103.59 72.4926 101.064 73.359 98.6073 74.3975L97.5919 74.8367L96.7645 74.1278C93.8553 71.6376 90.896 69.2089 87.8524 66.9189C84.8088 64.629 81.6817 62.462 78.4194 60.6394C76.79 59.7355 75.1246 58.9107 73.4381 58.2985C72.6172 57.9961 71.7744 57.7568 70.9171 57.5826C70.1336 57.414 69.3297 57.3595 68.5306 57.421C67.8541 57.4702 67.2021 57.6945 66.6385 58.0718C66.5744 58.1184 66.505 58.1597 66.4427 58.2071L66.267 58.3705C66.1443 58.4801 66.0309 58.5997 65.9279 58.728C65.8627 58.7972 65.8039 58.8722 65.7522 58.952L65.5766 59.2023C65.451 59.367 65.3366 59.5398 65.234 59.7197C64.3644 61.1567 63.7258 62.8415 63.2717 64.6035C62.3626 68.1399 62.0156 71.9134 61.9084 75.6843C61.8013 79.4552 61.9541 83.27 62.2466 87.069C62.8615 94.6688 64.0543 102.248 65.7145 109.704L65.826 110.206L65.6389 110.682C63.7197 115.566 62.1254 120.624 60.6796 125.715C59.9581 128.263 59.2815 130.824 58.6496 133.397C58.0207 135.964 57.4199 138.553 56.9403 141.114C56.8182 141.755 56.7172 142.385 56.639 142.983C56.5635 143.628 56.4982 144.273 56.4431 144.921C56.3333 146.213 56.2675 147.507 56.2499 148.799C56.2072 151.374 56.3876 153.947 56.7892 156.49C57.5938 161.549 59.4446 166.41 62.3503 170.594C65.2375 174.792 69.1059 178.293 73.4478 181.09C77.7896 183.888 82.5917 186.038 87.53 187.785C92.4683 189.531 97.591 190.839 102.749 192.024L104.681 192.48L106.623 192.92L110.51 193.815C113.107 194.418 115.709 195.04 118.292 195.791C118.476 195.845 118.633 195.966 118.732 196.13C118.832 196.293 118.867 196.489 118.83 196.677C118.793 196.865 118.687 197.032 118.533 197.146C118.379 197.26 118.187 197.313 117.997 197.293C112.697 196.734 107.389 196.036 102.113 194.99C96.8102 193.955 91.5874 192.546 86.4839 190.774C81.3699 188.974 76.3526 186.744 71.7174 183.775C67.0821 180.806 62.8791 177.03 59.7028 172.427C56.5037 167.844 54.4615 162.485 53.5849 157.015C53.1483 154.286 52.9488 151.525 52.9885 148.762C53.0043 147.387 53.0763 146.016 53.1861 144.65C53.2447 143.967 53.3126 143.286 53.3899 142.607C53.4777 141.882 53.5937 141.194 53.7193 140.525C54.2182 137.842 54.8199 135.231 55.455 132.619C56.09 130.008 56.7725 127.411 57.4998 124.825C58.9615 119.654 60.5645 114.517 62.5391 109.464L62.4636 110.442C60.7569 102.836 59.5263 95.1317 58.885 87.3449C58.5776 83.4501 58.4107 79.5351 58.517 75.5974C58.6233 71.6596 58.965 67.6919 59.9699 63.7453C60.4784 61.7751 61.1926 59.8005 62.3186 57.9295C62.4569 57.6913 62.6085 57.4611 62.7728 57.24L63.0134 56.901C63.0952 56.778 63.185 56.6607 63.2822 56.5496C63.4826 56.3027 63.7014 56.0713 63.9366 55.8574L64.2959 55.5359C64.4215 55.4358 64.5594 55.3462 64.6894 55.2522C65.7549 54.5065 67.0189 54.1103 68.1959 54.0041C69.3235 53.9067 70.4592 53.9744 71.5671 54.2052C72.6021 54.4113 73.6196 54.6968 74.6107 55.059C76.5546 55.7617 78.3579 56.6576 80.1033 57.6204C83.5843 59.5598 86.8089 61.8041 89.9412 64.1406C93.0735 66.4771 96.0837 68.9515 99.0412 71.4742L97.1966 71.2019C99.8138 70.0867 102.506 69.1563 105.253 68.4174C107.976 67.6726 110.739 67.1218 113.505 66.6545C116.271 66.1872 119.051 65.8499 121.837 65.6075C124.623 65.3651 127.405 65.2069 130.243 65.1947C133.081 65.2149 135.858 65.3703 138.649 65.6128C141.441 65.8552 144.214 66.1986 146.981 66.6607C149.748 67.1227 152.505 67.6796 155.231 68.4253C157.978 69.1644 160.669 70.0951 163.285 71.2107L161.453 71.4812C164.411 68.9594 167.426 66.4947 170.554 64.1503C173.682 61.8059 176.913 59.5712 180.392 57.6326C182.137 56.6664 183.94 55.7757 185.883 55.073C186.873 54.7111 187.89 54.426 188.924 54.2201C190.03 53.9902 191.164 53.9227 192.29 54.0199C193.466 54.1297 194.726 54.5214 195.789 55.2654C195.921 55.3594 196.053 55.449 196.182 55.5491L196.54 55.8697C196.775 56.0833 196.993 56.3141 197.193 56.5601C197.29 56.6708 197.38 56.7882 197.461 56.9115L197.701 57.2514C197.866 57.4721 198.017 57.7021 198.155 57.9401C199.28 59.8084 199.993 61.7821 200.501 63.7506C201.504 67.7033 201.843 71.6648 201.951 75.5991C202.059 79.5334 201.889 83.4501 201.58 87.344C200.938 95.1291 199.706 102.833 197.998 110.438L197.924 109.471C199.886 114.525 201.501 119.661 202.957 124.828C203.687 127.414 204.362 130.011 205.002 132.622C205.641 135.233 206.236 137.848 206.737 140.527L206.913 141.546L207.064 142.607L207.234 144.654L207.401 146.702L207.429 148.762C207.434 149.449 207.451 150.136 207.444 150.824L207.312 152.888L207.244 153.92L207.21 154.437C207.192 154.612 207.162 154.779 207.14 154.951L206.839 157.005L206.688 158.032L206.453 159.046L205.979 161.075C205.815 161.748 205.563 162.401 205.358 163.066L205.033 164.058L204.868 164.552L204.664 165.033L203.843 166.956L203.637 167.437C203.562 167.594 203.475 167.746 203.395 167.901L202.902 168.823L202.409 169.745L202.161 170.205C202.073 170.356 201.973 170.499 201.88 170.645L200.738 172.397C199.121 174.66 197.333 176.817 195.272 178.67L194.516 179.383C194.262 179.618 193.989 179.822 193.726 180.049L192.124 181.367L190.448 182.577C190.168 182.776 189.892 182.982 189.608 183.176L188.738 183.728C188.157 184.093 187.582 184.472 186.994 184.823L185.204 185.831C184.613 186.182 183.999 186.477 183.387 186.782C182.776 187.088 182.171 187.406 181.55 187.686C180.305 188.239 179.07 188.819 177.801 189.304C176.545 189.831 175.267 190.283 173.99 190.74C171.426 191.619 168.845 192.438 166.231 193.106C164.928 193.462 163.615 193.76 162.305 194.08C160.987 194.363 159.675 194.653 158.352 194.903C153.076 195.932 147.772 196.649 142.489 197.292H142.483C142.29 197.315 142.096 197.264 141.94 197.15C141.784 197.036 141.676 196.866 141.639 196.676C141.602 196.486 141.638 196.289 141.741 196.125C141.843 195.96 142.003 195.84 142.19 195.789L142.189 195.784Z" fill="#000072"/>
<g opacity="0.15">
<path opacity="0.15" d="M143.353 155.287C143.353 155.287 143.353 163.28 136.204 162.86C131.137 162.564 130.087 158.394 130.011 158.057C129.932 158.394 128.881 162.564 123.814 162.86C116.66 163.282 116.662 155.287 116.662 155.287L129.949 144.926H130.07L143.353 155.287Z" fill="#000072"/>
</g>
<path d="M143.281 155.341C143.281 155.341 140.948 161.423 135.519 160.007C129.338 158.396 130.095 151.022 130.095 151.022H129.866C129.866 151.022 130.595 158.401 124.407 159.982C118.972 161.377 116.663 155.284 116.663 155.284C116.663 155.284 115.14 141.63 129.947 141.63C144.754 141.63 143.281 155.341 143.281 155.341Z" fill="white"/>
<g opacity="0.15">
<path opacity="0.15" d="M142.584 156.698C141.534 158.4 139.261 160.984 135.52 160.007C129.336 158.395 130.093 151.021 130.093 151.021H129.867C129.867 151.021 130.596 158.399 124.406 159.987C120.666 160.946 118.403 158.357 117.358 156.649C118.507 156.747 119.663 156.645 120.777 156.348C130.994 153.725 129.791 143.713 129.791 143.713H130.169C130.169 143.713 128.919 153.72 139.126 156.387C140.251 156.693 141.422 156.798 142.584 156.698Z" fill="#000072"/>
</g>
<path d="M117.5 154.971C117.685 155.27 117.92 155.642 118.159 155.955C118.393 156.278 118.646 156.587 118.915 156.881C119.411 157.439 119.998 157.908 120.651 158.271C121.247 158.595 121.907 158.785 122.584 158.829C122.925 158.799 123.261 158.838 123.611 158.741C123.787 158.699 123.963 158.688 124.138 158.639L124.66 158.463C126.056 158.007 127.113 157.03 127.831 155.699C128.196 155.005 128.467 154.267 128.639 153.503C128.735 153.107 128.811 152.707 128.867 152.304C128.922 151.908 128.969 151.465 128.984 151.109V151.041C128.994 150.82 129.086 150.611 129.241 150.454C129.396 150.296 129.603 150.202 129.824 150.189C130.044 150.175 130.262 150.244 130.435 150.382C130.607 150.519 130.723 150.716 130.76 150.934C130.841 151.422 130.885 151.916 130.891 152.411C130.903 152.897 130.881 153.384 130.827 153.867C130.715 154.834 130.508 155.826 130.082 156.766C129.309 158.66 127.601 160.367 125.59 161.027L124.845 161.28C124.584 161.347 124.32 161.4 124.054 161.439C123.534 161.559 122.968 161.527 122.421 161.535C121.314 161.442 120.246 161.078 119.313 160.475C118.444 159.898 117.696 159.156 117.111 158.293C116.833 157.882 116.584 157.452 116.367 157.006C116.148 156.554 115.967 156.084 115.829 155.6C115.768 155.393 115.785 155.171 115.876 154.975C115.967 154.779 116.126 154.622 116.323 154.535C116.52 154.447 116.743 154.433 116.949 154.497C117.156 154.56 117.332 154.697 117.446 154.88L117.5 154.971Z" fill="#000072"/>
<path d="M144.116 155.66C143.975 156.142 143.793 156.611 143.571 157.061C143.353 157.507 143.103 157.935 142.823 158.345C142.234 159.206 141.484 159.944 140.613 160.518C139.677 161.118 138.608 161.477 137.5 161.566C136.953 161.556 136.387 161.585 135.868 161.463C135.603 161.424 135.34 161.37 135.081 161.301L134.336 161.046C132.328 160.377 130.628 158.664 129.862 156.767C129.439 155.825 129.237 154.835 129.128 153.868C129.075 153.385 129.056 152.898 129.069 152.412C129.077 151.917 129.123 151.423 129.207 150.935C129.244 150.718 129.361 150.523 129.534 150.386C129.707 150.25 129.925 150.182 130.145 150.196C130.365 150.21 130.572 150.305 130.726 150.462C130.881 150.62 130.971 150.829 130.981 151.049V151.117C130.995 151.474 131.041 151.917 131.094 152.313C131.148 152.716 131.222 153.117 131.317 153.513C131.486 154.278 131.754 155.018 132.116 155.714C132.83 157.047 133.882 158.029 135.278 158.49L135.799 158.666C135.975 158.716 136.15 158.728 136.326 158.771C136.677 158.871 137.011 158.833 137.353 158.864C138.029 158.823 138.689 158.635 139.285 158.314C139.94 157.955 140.529 157.487 141.028 156.931C141.298 156.638 141.551 156.33 141.787 156.009C142.028 155.695 142.264 155.326 142.45 155.027L142.504 154.939C142.618 154.756 142.795 154.62 143.002 154.557C143.209 154.494 143.431 154.509 143.628 154.597C143.825 154.686 143.983 154.843 144.074 155.04C144.164 155.236 144.179 155.458 144.118 155.666L144.116 155.66Z" fill="#000072"/>
<path d="M137.44 147.171C137.44 148.915 135.156 150.452 133.066 151.495C132.01 152.033 130.841 152.312 129.656 152.31C128.47 152.308 127.303 152.024 126.248 151.482C124.161 150.428 121.889 148.884 121.892 147.14C121.901 141.878 137.449 141.909 137.44 147.171Z" fill="#000072"/>
<g opacity="0.5">
<path opacity="0.5" d="M132.748 146.13C132.748 146.632 131.844 147.075 131.015 147.375C130.142 147.69 129.185 147.688 128.313 147.37C127.484 147.066 126.583 146.621 126.584 146.117C126.587 144.601 132.752 144.616 132.748 146.13Z" fill="white"/>
</g>
<path d="M64.0333 151.535C63.7373 151.364 63.3947 151.183 63.0671 151.008C62.7394 150.832 62.4004 150.664 62.0587 150.502C61.717 150.341 61.3797 150.177 61.0301 150.03C60.6805 149.882 60.345 149.715 59.9936 149.575C58.5935 149.003 57.1828 148.452 55.7422 147.999C52.8646 147.079 49.9282 146.322 46.9329 145.865C46.5622 145.79 46.1854 145.751 45.8095 145.708L44.6816 145.57L43.5546 145.429C43.1787 145.386 42.7992 145.376 42.4215 145.348C41.6644 145.302 40.9081 145.253 40.1518 145.195L37.875 145.168C36.3537 145.101 34.8393 145.282 33.3153 145.321L32.7444 145.345L32.1761 145.408L31.0394 145.533L28.7556 145.77L28.7029 145.775C28.5018 145.794 28.301 145.735 28.1423 145.61C27.9835 145.485 27.879 145.304 27.8504 145.104C27.8219 144.904 27.8714 144.7 27.9887 144.536C28.1061 144.371 28.2823 144.258 28.4807 144.22L30.7961 143.798L31.9582 143.594L32.5388 143.493L33.1256 143.43C33.9065 143.342 34.6909 143.265 35.4744 143.193C35.867 143.163 36.2579 143.106 36.6523 143.097L37.8337 143.062C38.6243 143.041 39.4148 143.009 40.1992 142.998L42.5665 143.086C42.9609 143.108 43.357 143.111 43.7496 143.148L44.9293 143.271C45.7137 143.359 46.5043 143.414 47.2834 143.553L49.6234 143.951C50.3999 144.101 51.1676 144.295 51.9388 144.474C52.7135 144.638 53.4655 144.891 54.2279 145.106C54.9903 145.32 55.7352 145.591 56.4801 145.86C59.4613 146.958 62.3099 148.312 64.938 150.24C65.1053 150.357 65.2207 150.534 65.2597 150.734C65.2988 150.934 65.2584 151.142 65.1472 151.313C65.0361 151.484 64.8627 151.605 64.6639 151.651C64.465 151.696 64.2562 151.663 64.0816 151.557L64.0333 151.535Z" fill="#000072"/>
<path d="M66.036 163.345C64.7466 163.191 63.386 163.082 62.0552 163.029C60.7245 162.976 59.3805 162.952 58.0463 162.981C55.3795 163.048 52.7189 163.264 50.1171 163.771C48.8166 164.015 47.5312 164.333 46.2672 164.724C45.6321 164.908 45.0172 165.144 44.3909 165.356C43.7813 165.604 43.1612 165.828 42.5656 166.114C40.1495 167.191 37.8929 168.595 35.8592 170.286L35.8469 170.297C35.6891 170.41 35.4952 170.461 35.3022 170.44C35.1091 170.42 34.9305 170.329 34.8002 170.185C34.67 170.041 34.5972 169.854 34.5958 169.66C34.5945 169.466 34.6646 169.278 34.7928 169.132C36.7973 167.124 39.1152 165.457 41.6556 164.194C42.92 163.555 44.2308 163.012 45.5767 162.571C46.9145 162.116 48.281 161.752 49.6674 161.48C52.424 160.92 55.2339 160.665 58.0463 160.721C60.8571 160.779 63.6179 161.084 66.3742 161.808C66.5586 161.866 66.7153 161.99 66.8145 162.156C66.9137 162.322 66.9486 162.519 66.9126 162.709C66.8765 162.899 66.7721 163.069 66.619 163.188C66.4658 163.306 66.2747 163.364 66.0817 163.351L66.036 163.345Z" fill="#000072"/>
<path d="M195.535 150.248C198.163 148.315 201.012 146.966 203.993 145.868C204.739 145.599 205.486 145.327 206.245 145.113C207.004 144.9 207.76 144.646 208.534 144.482C209.306 144.306 210.073 144.109 210.85 143.959L213.19 143.56C213.969 143.422 214.76 143.37 215.544 143.279L216.724 143.156C217.117 143.119 217.514 143.116 217.907 143.094L220.278 143.006C221.069 143.017 221.86 143.048 222.644 143.069L223.825 143.105C224.22 143.112 224.611 143.17 225.003 143.201C225.788 143.273 226.571 143.35 227.352 143.438L227.939 143.501L228.519 143.602L229.682 143.806L231.997 144.228C232.199 144.262 232.38 144.373 232.501 144.538C232.622 144.703 232.674 144.909 232.646 145.112C232.617 145.315 232.51 145.499 232.348 145.624C232.186 145.749 231.982 145.806 231.778 145.783L231.722 145.778L229.438 145.541L228.302 145.416L227.733 145.353L227.162 145.329C225.638 145.29 224.124 145.109 222.603 145.176L220.326 145.203C219.57 145.261 218.813 145.309 218.056 145.356C217.678 145.384 217.299 145.394 216.923 145.437L215.796 145.578L214.668 145.716C214.292 145.759 213.915 145.798 213.545 145.873C210.549 146.33 207.613 147.087 204.735 148.007C203.292 148.46 201.884 149.011 200.484 149.583C200.133 149.723 199.796 149.892 199.448 150.038C199.099 150.184 198.756 150.343 198.419 150.51C198.082 150.677 197.739 150.837 197.411 151.015C197.082 151.194 196.738 151.367 196.444 151.542L196.395 151.57C196.221 151.676 196.012 151.709 195.813 151.664C195.614 151.618 195.441 151.497 195.33 151.326C195.218 151.155 195.178 150.947 195.217 150.747C195.256 150.547 195.371 150.37 195.539 150.253L195.535 150.248Z" fill="#000072"/>
<path d="M194.103 161.808C196.859 161.084 199.622 160.779 202.431 160.721C205.243 160.665 208.053 160.92 210.809 161.48C212.196 161.752 213.562 162.116 214.9 162.571C216.246 163.012 217.557 163.555 218.821 164.194C221.362 165.457 223.68 167.124 225.684 169.132C225.814 169.278 225.886 169.466 225.885 169.661C225.885 169.856 225.812 170.044 225.681 170.189C225.55 170.334 225.371 170.425 225.177 170.445C224.983 170.466 224.788 170.413 224.63 170.299L224.615 170.286C222.581 168.595 220.325 167.191 217.909 166.114C217.315 165.828 216.693 165.604 216.083 165.356C215.457 165.144 214.842 164.908 214.207 164.724C212.943 164.333 211.658 164.015 210.357 163.771C207.755 163.264 205.095 163.048 202.428 162.981C201.094 162.952 199.757 162.973 198.419 163.029C197.081 163.085 195.728 163.191 194.438 163.345L194.396 163.351C194.203 163.364 194.012 163.306 193.858 163.188C193.705 163.07 193.6 162.9 193.564 162.71C193.528 162.52 193.563 162.323 193.662 162.157C193.761 161.99 193.918 161.866 194.103 161.808Z" fill="#000072"/>
<path d="M130.237 194.742C95.8044 194.742 63.4281 193.055 39.0608 189.991C27.1596 188.498 17.7978 186.746 11.2354 184.795C3.57063 182.511 0 180.035 0 176.989C0.00970896 176.578 0.179766 176.187 0.47382 175.9C0.767874 175.613 1.16259 175.452 1.57362 175.452C1.98465 175.452 2.37938 175.613 2.67343 175.9C2.96748 176.187 3.13754 176.578 3.14725 176.989C3.14725 178.828 10.7347 183.257 39.4535 186.868C63.6916 189.916 95.9335 191.595 130.234 191.595C164.535 191.595 196.777 189.916 221.015 186.868C249.734 183.257 257.323 178.828 257.323 176.989C257.323 176.572 257.488 176.172 257.783 175.877C258.078 175.582 258.478 175.416 258.896 175.416C259.313 175.416 259.713 175.582 260.008 175.877C260.303 176.172 260.469 176.572 260.469 176.989C260.469 180.035 256.898 182.516 249.233 184.795C242.671 186.746 233.308 188.494 221.407 189.991C197.046 193.055 164.67 194.742 130.237 194.742Z" fill="#000072"/>
<path d="M91.337 191.317C90.9224 194.792 88.0659 198.313 77.8872 197.649C70.8944 200.011 64.9592 199.308 59.3015 196.109C54.8806 195.973 52.1374 193.503 52.2507 190.621C52.2834 189.728 52.425 188.843 52.6723 187.986C55.7291 177.479 74.3798 177.061 82.5163 180.018C85.79 181.207 87.8489 183.136 89.1454 185.065C91.2369 188.189 91.337 191.317 91.337 191.317Z" fill="white"/>
<g opacity="0.15">
<path opacity="0.15" d="M91.337 191.317C90.9224 194.792 88.0659 198.313 77.8872 197.649C70.8944 200.012 64.9592 199.308 59.3015 196.109C54.8806 195.973 52.1374 193.503 52.2507 190.621C52.2834 189.728 52.425 188.844 52.6723 187.986C54.2534 188.708 57.1652 189.308 59.558 185.746C60.0279 194.855 76.6741 196.858 79.9584 186.676C79.9584 186.676 90.5201 196.401 89.1454 185.075V185.065C91.2369 188.189 91.337 191.317 91.337 191.317Z" fill="#000072"/>
</g>
<path d="M69.9712 200.613C66.1318 200.613 62.4522 199.632 58.8614 197.663C56.1507 197.501 53.8546 196.54 52.3543 194.934C51.2124 193.705 50.616 192.153 50.6792 190.557C50.8391 186.524 52.7874 183.141 56.3141 180.774C63.8524 175.714 76.6873 176.225 83.0547 178.539C92.514 181.979 92.8988 190.889 92.9102 191.267V191.386L92.8961 191.503C92.4279 195.408 89.4704 199.898 78.091 199.238C75.2968 200.154 72.5967 200.613 69.9712 200.613ZM71.8746 179.992C66.9733 179.992 61.7267 180.93 58.0673 183.386C55.3716 185.197 53.9442 187.651 53.8238 190.682C53.7931 191.444 54.0812 192.175 54.6566 192.79C55.6333 193.838 57.3444 194.475 59.3515 194.537L59.7407 194.548L60.0788 194.739C65.5635 197.845 71.0586 198.297 77.383 196.16L77.6781 196.06L77.9891 196.08C85.2797 196.556 89.2324 194.934 89.7594 191.259C89.69 190.301 88.9689 184.038 81.9804 181.498C79.4937 180.593 75.794 179.992 71.8746 179.992Z" fill="#000072"/>
<path d="M60.2439 186.128C59.9071 186.918 59.6387 187.735 59.4419 188.572C59.2504 189.407 59.1117 190.249 59.1081 191.064C59.0927 191.839 59.1988 192.612 59.4226 193.353C59.6586 194.001 60.0265 194.592 60.503 195.09L60.5303 195.12C60.6891 195.267 60.816 195.445 60.9031 195.643C60.9903 195.841 61.0359 196.055 61.037 196.272C61.0381 196.488 60.9948 196.703 60.9097 196.902C60.8246 197.101 60.6995 197.28 60.5422 197.429C60.385 197.577 60.1988 197.692 59.9954 197.766C59.7919 197.84 59.5754 197.871 59.3594 197.858C59.1433 197.845 58.9323 197.787 58.7393 197.689C58.5464 197.591 58.3756 197.454 58.2377 197.288C58.1895 197.237 58.1446 197.183 58.1033 197.126C57.4299 196.195 56.9668 195.128 56.7462 194C56.5823 192.952 56.5867 191.884 56.7593 190.838C56.9243 189.857 57.1955 188.897 57.5683 187.975C57.9249 187.067 58.3608 186.192 58.871 185.361C58.9805 185.202 59.1446 185.088 59.3321 185.042C59.5197 184.996 59.7177 185.019 59.8889 185.109C60.06 185.199 60.1924 185.348 60.2611 185.528C60.3297 185.709 60.3299 185.909 60.2615 186.089L60.2439 186.128Z" fill="#000072"/>
<path d="M80.7112 186.449C81.0492 187.437 81.3005 188.453 81.4622 189.484C81.6344 190.532 81.6957 191.596 81.6449 192.657C81.5945 193.785 81.357 194.897 80.9422 195.947C80.7123 196.501 80.425 197.029 80.0849 197.522C79.7271 198.022 79.3147 198.481 78.8551 198.89C78.5429 199.165 78.1345 199.306 77.7191 199.281C77.3036 199.256 76.9148 199.068 76.6374 198.758C76.3599 198.448 76.2164 198.04 76.2381 197.625C76.2598 197.209 76.4449 196.819 76.7532 196.539C76.8027 196.495 76.8549 196.453 76.9095 196.415L76.9192 196.409C77.2276 196.203 77.5133 195.964 77.7712 195.697C78.0319 195.411 78.2626 195.099 78.4599 194.766C78.8701 194.025 79.1545 193.221 79.3014 192.387C79.4647 191.491 79.533 190.579 79.5051 189.669C79.4839 188.74 79.3837 187.815 79.2056 186.903L79.1968 186.86C79.1686 186.669 79.2116 186.474 79.3176 186.312C79.4236 186.15 79.5852 186.033 79.7719 185.982C79.9587 185.932 80.1575 185.951 80.3307 186.037C80.504 186.123 80.6397 186.27 80.7121 186.449H80.7112Z" fill="#000072"/>
<path d="M169.088 191.317C169.502 194.792 172.359 198.313 182.538 197.649C189.531 200.011 195.466 199.308 201.123 196.109C205.545 195.973 208.288 193.503 208.174 190.621C208.141 189.728 208 188.843 207.753 187.986C204.696 177.479 186.046 177.061 177.909 180.018C174.635 181.207 172.576 183.136 171.279 185.065C169.185 188.189 169.088 191.317 169.088 191.317Z" fill="white"/>
<g opacity="0.15">
<path opacity="0.15" d="M169.088 191.317C169.502 194.792 172.359 198.313 182.538 197.649C189.531 200.012 195.466 199.308 201.123 196.109C205.545 195.973 208.288 193.503 208.174 190.621C208.141 189.728 208 188.844 207.753 187.986C206.167 188.708 203.26 189.308 200.867 185.746C200.397 194.855 183.751 196.858 180.466 186.676C180.466 186.676 169.905 196.401 171.279 185.075V185.065C169.185 188.189 169.088 191.317 169.088 191.317Z" fill="#000072"/>
</g>
<path d="M190.454 200.613C187.827 200.613 185.129 200.155 182.331 199.239C170.949 199.899 167.993 195.408 167.525 191.503L167.511 191.386V191.267C167.523 190.889 167.907 181.979 177.368 178.539C183.733 176.225 196.568 175.713 204.107 180.774C207.633 183.146 209.582 186.524 209.742 190.557C209.805 192.153 209.211 193.707 208.067 194.934C206.574 196.54 204.271 197.501 201.56 197.663C197.974 199.631 194.292 200.613 190.454 200.613ZM182.747 196.059L183.042 196.159C189.366 198.296 194.861 197.845 200.346 194.739L200.684 194.547L201.073 194.536C203.08 194.474 204.792 193.837 205.768 192.789C206.344 192.174 206.632 191.444 206.602 190.68C206.481 187.649 205.053 185.195 202.358 183.385C195.77 178.965 184.039 179.461 178.446 181.495C171.459 184.035 170.736 190.298 170.666 191.257C171.193 194.931 175.151 196.552 182.437 196.077L182.747 196.059Z" fill="#000072"/>
<path d="M201.554 185.359C202.064 186.191 202.5 187.065 202.856 187.973C203.229 188.895 203.501 189.855 203.665 190.836C203.838 191.883 203.843 192.95 203.679 193.998C203.458 195.126 202.995 196.193 202.322 197.124C202.067 197.436 201.703 197.64 201.303 197.692C200.904 197.745 200.499 197.643 200.173 197.408C199.846 197.172 199.621 196.821 199.544 196.426C199.468 196.03 199.545 195.62 199.76 195.28C199.8 195.225 199.842 195.174 199.888 195.124L199.922 195.088C200.399 194.59 200.767 193.999 201.003 193.352C201.227 192.61 201.332 191.837 201.317 191.063C201.317 190.247 201.174 189.405 200.983 188.57C200.786 187.734 200.518 186.916 200.181 186.126L200.163 186.086C200.095 185.905 200.095 185.705 200.164 185.525C200.232 185.344 200.365 185.195 200.536 185.105C200.707 185.016 200.905 184.992 201.093 185.038C201.28 185.085 201.444 185.198 201.554 185.357V185.359Z" fill="#000072"/>
<path d="M181.22 186.903C181.042 187.815 180.942 188.74 180.921 189.669C180.893 190.579 180.961 191.491 181.124 192.387C181.271 193.221 181.556 194.025 181.966 194.766C182.163 195.099 182.394 195.411 182.655 195.697C182.913 195.964 183.198 196.203 183.507 196.409C183.82 196.657 184.028 197.015 184.088 197.41C184.149 197.805 184.057 198.209 183.832 198.539C183.607 198.869 183.265 199.102 182.876 199.191C182.486 199.279 182.077 199.217 181.731 199.016C181.675 198.976 181.62 198.934 181.568 198.888C181.109 198.479 180.696 198.02 180.338 197.52C179.998 197.027 179.711 196.499 179.481 195.945C179.066 194.895 178.829 193.783 178.778 192.655C178.727 191.594 178.789 190.531 178.961 189.482C179.123 188.451 179.374 187.435 179.712 186.447C179.784 186.268 179.92 186.121 180.093 186.035C180.267 185.949 180.465 185.93 180.652 185.98C180.839 186.031 181 186.148 181.106 186.31C181.212 186.472 181.255 186.667 181.227 186.859L181.22 186.903Z" fill="#000072"/>
<path d="M110.019 138.31C110.606 130.328 106.311 123.508 100.427 123.076C94.5424 122.644 89.2972 128.764 88.7111 136.745C88.1249 144.727 92.4198 151.547 98.304 151.979C104.188 152.411 109.433 146.291 110.019 138.31Z" fill="#000072"/>
<path d="M106.792 135.346C107.025 132.177 105.61 129.489 103.631 129.344C101.653 129.199 99.8607 131.65 99.628 134.82C99.3952 137.989 100.81 140.676 102.789 140.822C104.767 140.967 106.559 138.515 106.792 135.346Z" fill="white"/>
<g opacity="0.35">
<path opacity="0.35" d="M95.9524 146.626C96.879 146.279 97.0521 144.456 96.3391 142.555C95.6261 140.654 94.297 139.395 93.3704 139.742C92.4438 140.09 92.2706 141.913 92.9836 143.813C93.6966 145.714 95.0257 146.974 95.9524 146.626Z" fill="white"/>
</g>
<path d="M161.271 151.99C167.155 151.558 171.45 144.737 170.864 136.756C170.278 128.774 165.032 122.654 159.148 123.086C153.264 123.519 148.969 130.339 149.555 138.321C150.141 146.302 155.387 152.422 161.271 151.99Z" fill="#000072"/>
<path d="M156.681 142.021C158.665 141.882 160.092 139.193 159.87 136.015C159.647 132.837 157.859 130.374 155.875 130.513C153.892 130.651 152.464 133.34 152.686 136.518C152.909 139.696 154.697 142.16 156.681 142.021Z" fill="white"/>
<g opacity="0.35">
<path opacity="0.35" d="M166.587 143.791C167.3 141.89 167.127 140.067 166.2 139.72C165.273 139.372 163.944 140.632 163.231 142.532C162.518 144.433 162.691 146.256 163.618 146.604C164.545 146.951 165.874 145.692 166.587 143.791Z" fill="white"/>
</g>
<path d="M222.267 56.3505C218.206 49.3314 216.59 41.1821 217.668 33.1615C220.361 12.9051 239.116 -1.35075 259.554 1.3221C279.991 3.99496 294.372 22.5822 291.675 42.8386C288.978 63.0949 270.227 77.3507 249.786 74.6779C244.291 73.9664 239.026 72.0463 234.377 69.0581L217 72.4036L222.267 56.3505Z" fill="white"/>
<g opacity="0.5">
<path opacity="0.5" d="M258.793 8.22957C239.864 5.72371 222.397 18.074 218 36.3131C218.03 34.9877 218.13 33.6649 218.301 32.3502C220.971 11.9758 239.567 -2.36306 259.828 0.32358C280.09 3.01022 294.35 21.7075 291.678 42.0765C291.503 43.3964 291.259 44.706 290.947 46C291.415 27.2311 277.726 10.7408 258.793 8.22957Z" fill="white"/>
</g>
<path d="M254.115 76.2781C247.164 76.2766 240.346 74.3714 234.401 70.7692L219.021 73.7551C218.567 73.8431 218.098 73.8112 217.66 73.6624C217.222 73.5137 216.83 73.2532 216.524 72.9068C216.217 72.5604 216.006 72.1401 215.912 71.6873C215.818 71.2345 215.843 70.7649 215.986 70.325L220.601 56.1264C217.339 49.9777 215.833 43.0495 216.249 36.1015C216.664 29.1536 218.985 22.4541 222.956 16.7377C226.927 11.0214 232.395 6.50881 238.761 3.69485C245.128 0.880897 252.146 -0.125798 259.046 0.78515C279.769 3.51839 294.404 22.6019 291.672 43.325C289.158 62.3745 272.829 76.2781 254.115 76.2781ZM234.925 65.3027C235.438 65.3024 235.941 65.4508 236.372 65.73C240.429 68.3671 245.027 70.0585 249.826 70.6793C267.641 73.026 284.049 60.4467 286.401 42.6298C288.752 24.8129 276.168 8.40497 258.351 6.05493C252.332 5.26026 246.211 6.16283 240.678 8.6609C235.145 11.159 230.419 15.1532 227.034 20.1932C223.65 25.2331 221.74 31.1185 221.522 37.1856C221.303 43.2526 222.783 49.2602 225.796 54.5309C225.98 54.8528 226.095 55.2095 226.133 55.5783C226.171 55.9471 226.131 56.3198 226.017 56.6724L222.441 67.6782L234.423 65.3502C234.589 65.3166 234.757 65.2984 234.925 65.296V65.3027Z" fill="#000072"/>
<g opacity="0.25">
<path opacity="0.25" d="M223.295 55.5007C228.36 60.0513 234.484 63.2595 241.109 64.8318C247.733 66.4041 254.646 66.2903 261.215 64.5009C267.785 62.7115 273.8 59.3035 278.712 54.5888C283.624 49.874 287.275 44.003 289.332 37.5126C289.374 39.3368 289.274 41.1616 289.036 42.9706C286.492 62.2711 268.779 75.8542 249.478 73.3075C244.289 72.6295 239.316 70.8001 234.925 67.9529L218.514 71.1405L223.484 55.8449C223.419 55.7313 223.362 55.6143 223.295 55.5007Z" fill="#000072"/>
</g>
<path d="M250.196 30.606H253.628V45.852H250.196V39.384H244.432V45.852H241V30.606H244.432V36.436H250.196V30.606Z" fill="#000072"/>
<path d="M260.214 45.852H256.936V34.28H260.214V45.852ZM260.522 30.936C260.522 31.5373 260.324 32.014 259.928 32.366C259.547 32.7033 259.092 32.872 258.564 32.872C258.036 32.872 257.574 32.7033 257.178 32.366C256.797 32.014 256.606 31.5373 256.606 30.936C256.606 30.3347 256.797 29.8653 257.178 29.528C257.574 29.176 258.036 29 258.564 29C259.092 29 259.547 29.176 259.928 29.528C260.324 29.8653 260.522 30.3347 260.522 30.936Z" fill="#000072"/>
<path d="M266.662 34.544C266.662 35.732 266.618 36.8393 266.53 37.866C266.442 38.8927 266.324 39.934 266.178 40.99H263.67C263.523 39.934 263.398 38.8927 263.296 37.866C263.208 36.8393 263.164 35.732 263.164 34.544V30.606H266.662V34.544ZM266.948 44.114C266.948 44.7593 266.735 45.258 266.31 45.61C265.899 45.962 265.43 46.138 264.902 46.138C264.374 46.138 263.897 45.962 263.472 45.61C263.061 45.258 262.856 44.7593 262.856 44.114C262.856 43.4687 263.061 42.97 263.472 42.618C263.897 42.266 264.374 42.09 264.902 42.09C265.43 42.09 265.899 42.266 266.31 42.618C266.735 42.97 266.948 43.4687 266.948 44.114Z" fill="#513887"/>
</svg>
